<?xml version="1.0" encoding="utf-8"?>
<!-- Generator: Adobe Illustrator 24.0.3, SVG Export Plug-In . SVG Version: 6.00 Build 0)  -->
<svg version="1.1" id="Layer_1" xmlns="http://www.w3.org/2000/svg" xmlns:xlink="http://www.w3.org/1999/xlink" x="0px" y="0px"
	 viewBox="0 0 908.3 500.5" style="enable-background:new 0 0 908.3 500.5;" xml:space="preserve">
<style type="text/css">
	.st0{fill:#FFFFFF;}
	.st1{display:none;}
	.st2{display:inline;}
	.st3{display:none;fill:none;stroke:#000000;stroke-miterlimit:10;}
</style>
<image style="display:none;overflow:visible;opacity:0.37;" width="1700" height="2200" xlink:href="../../../../4-2Grey.png"  transform="matrix(0 0.7219 -0.7197 0 325.657 -364.1593)">
</image>
<path class="st0" d="M-645.3,789.8L-645.3,789.8c-298.2,0-540-241.8-540-540v0c0-298.2,241.8-540,540-540h0
	c298.2,0,540,241.8,540,540v0C-105.3,548-347,789.8-645.3,789.8z"/>
<text transform="matrix(1 0 0 1 -964.3336 358.6062)" class="st1" style="font-family:'RosalliaGTDemo'; font-size:132.8427px; letter-spacing:6;">MonteRanco</text>
<g class="st1">
	<path class="st2" d="M-527.9,125.1c3.1-1.6,6.9-3.2,10.3-1.5c4,2.1,7.6,5,11.6,7.2c3.8,2.2,8.1,3.7,11.3,6.7
		c4.2,3.9,5.1,10.1,9.4,14c4,3.6,9.1,5.8,14.1,7.9c6.8,2.7,13.5,5.9,19.3,10.4c4.3,3.3,9,6.2,13.5,9.1c3.3,2.1,5.8,5.2,7.9,8.4
		c-3.8-2.4-8.2-3.6-12-5.9c-5.4-2.9-10.5-6.2-15.9-9.1c-8.6-4.6-18.7-5.5-27.1-10.5c-3.7-2.1-7-4.9-9.2-8.6
		c-1.9-2.9-2.9-6.1-4.4-9.1c-1.5-3.1-4.7-4.7-7.4-6.7c-4.4-3-7.8-7.1-11.6-10.7c-10.6,17.7-23.7,33.8-35.7,50.6
		c-3.8,5.5-8.4,10.5-12.6,15.7c1.1-4.2,2.8-8.3,4.7-12.2c-3.7,4.1-7.6,8-12.2,11.1c3-4.5,5.3-9.4,8.3-13.8c4.6-6.9,9.4-13.6,14-20.5
		c-5.3,4.8-10.4,10-16.2,14.4c-3.8,2.8-7.6,5.7-11.3,8.6c4.7-6.3,9.6-12.6,15-18.4c-5.8,4.4-11.8,8.6-18.2,12.2
		c3.2-4,6.8-7.6,10.5-11.2c-6.6,4.5-13.3,8.8-20.3,12.5c3.7-3.5,7.1-7.3,11.2-10.4c4.3-3.4,8.8-6.5,13.2-9.8c-3.1-0.6-5.9-2-7.9-4.5
		c-2.2,1.4-4.3,2.8-6.2,4.6c-0.6,0.2-1.1,0.4-1.6,0.6c0.8,1.1-0.4,1.7-1,2.4c-1.4,1.3-2.8,2.6-4,4.1c-0.4-0.3-0.7-0.7-1-1
		c2.1-1.2,3.9-2.9,5.5-4.8c-12.3,7.3-23.8,17.3-38.2,20.2c4.2,3.1,8.6,6.1,13.4,8.1c3.8,1.6,7.2,3.7,10.6,6.1
		c-10.6-0.6-19.9-5.9-29.5-9.9c-8.4-3.7-17.7-1.2-26.4-2.7c-7.8-0.8-14.3-5.7-21.8-7.6c-7.2-1.9-14.3-4.1-20.9-7.5
		c-6.1-3.2-10.7-8.5-16.3-12.6c-2.6-1.9-5.1-4-7.5-6.2c-4,8.4-7.3,17.1-12,25.2c-5.7,9.9-11.4,19.9-19.3,28.3
		c3.6-7.9,8.1-15.5,11.7-23.4c-4.6,7.1-10.1,13.5-15.8,19.7c3.5-8.3,7.9-16.1,12.7-23.7c-8.3,9.1-16,18.8-25.4,26.9
		c4.2-7.6,9.3-14.6,14.5-21.6c-5.3,4.7-11.2,8.6-17.2,12.2c2.6-3.4,5.1-6.9,7.6-10.4c-5,3.9-9.7,8.1-14.6,12
		c-4.4,3.5-9.2,6.3-13.6,9.7c3-3.9,6.6-7.4,9.2-11.6c5.9-5.8,12.6-10.6,18.5-16.4c-12.9,8-24.6,17.7-36.7,26.8
		c-10.5,7.8-21.2,15.4-32,22.8c-6.4,4.4-13.2,8.4-20.3,11.7c-2.6,1.2-5,2.6-7.4,4.1c3.5-4.7,9.1-6.9,13.8-10.1
		c14-9.2,27.1-19.7,40.1-30.3c10.4-8.9,20.6-18.1,31.8-26c9.8-6.9,19.6-13.7,29.6-20.5c5.9-3.9,11.9-7.9,18.5-10.6
		c2.5-1,5.8-1.7,7.8,0.6c5.1,5.3,11.2,9.2,16.7,14.1c7.9,6.9,18.9,7.4,28.6,9.7c6.9,1.3,12.8,5.8,19.9,6.3
		c8.7,0.7,17.9,0.1,26.1,3.5c12.5-3.2,22.7-11.3,33.2-18.3c4.8-3.3,9.5-6.7,14.3-10c2.1-1.2,4.7-2.9,7.2-1.9
		c2.8,1.1,2.9,5.6,6.4,5.5c4.8-0.4,8.8-3.6,12.7-6.2C-545.3,136.9-537.1,130.2-527.9,125.1z"/>
	<path class="st2" d="M-523.7,142.6c1.7-2.6,3.8-5.1,6.2-7.1c-8.8,14-17.6,27.9-26.4,41.9C-538.5,165.1-531.1,153.7-523.7,142.6z"/>
	<path class="st2" d="M-526,154.4c1.9-2.6,3.5-6.3,7.2-6.7c-0.6,4.1-3.6,7.1-5.6,10.5c-3.4,5.4-7.5,10.3-11.5,15.2
		C-532.9,166.9-530.1,160.3-526,154.4z"/>
	<path class="st2" d="M-581.1,157.8c2.5-1.7,5.2-4.3,8.5-3.4c0.1,0.4,0.2,1.1,0.2,1.5c-7.5,5.8-15.1,11.5-23.1,16.6
		C-590.7,167.6-586.7,161.9-581.1,157.8z"/>
	<path class="st2" d="M-727.8,171.5c2.1-3.5,3.7-7.8,7.3-10.1c-0.7,3.8-2.9,7.1-4.5,10.5c-4.3,8.3-8.3,16.9-14.1,24.2
		C-736.3,187.5-732,179.5-727.8,171.5z"/>
	<path class="st2" d="M-591.1,164.5c-1.2-0.8,0.7-1.9,1.4-1.1C-590.1,163.7-590.7,164.3-591.1,164.5z"/>
	<path class="st2" d="M-534.6,176.3c3.5-3.8,6.7-7.8,10.5-11.4C-526.6,169.6-530.6,173-534.6,176.3z"/>
	<path class="st2" d="M-718.2,171.4c-1.6,7.6-6.3,13.9-9.4,20.9C-725.5,184.9-722.2,178-718.2,171.4z"/>
	<path class="st2" d="M-716.6,185.6c0.6,0.7,1.3,1.6,0.8,2.6c-0.7,3.1-2.4,5.9-3.8,8.7C-718.7,193.1-717.5,189.4-716.6,185.6z"/>
</g>
<g>
	<g>
		<path d="M-849.8,457.3c0,1.4-0.6,2.5-1.9,3.3c-9.7,4.7-19.8,8.4-30.4,11.2c-10.6,2.8-22.8,5.6-36.6,8.2v0.7c0,1.3-0.4,2.9-1.1,4.8
			c-1.6,3.3-4.1,5.9-7.4,7.7c-3.4,1.8-7,2.8-10.8,2.9c-1.2,0-2.4-0.2-3.8-0.5c-1.3-0.3-2.5-0.8-3.4-1.3c-1.9-1.2-2.9-2.9-2.9-5
			c0-2.3,0.9-4.5,2.6-6.4c1.7-1.9,4-3.6,6.9-4.9c2.8-1.3,6.2-2.4,10.2-3.2l-0.5-0.5c-1.1-1.1-2.7-2.5-4.8-4.3
			c-0.5-0.4-1.5-1.3-3-2.6c-1.4-1.3-2.5-2.4-3.1-3.4c-2.3-3.3-3.5-6.5-3.5-9.6c0-1.3,0.2-2.5,0.6-3.5c1-2.1,2.5-3.8,4.6-5
			c2-1.1,4.1-1.7,6.2-1.7c4.3,0,8.6,1.7,13.1,5.2c2.7,1.8,4.5,4,5.4,6.6l0.2,1.2c0.1,0.2,0.2,0.5,0.2,0.8c0,1.4-0.7,2.5-2.1,3.3
			c-0.7,0.3-1.4,0.4-2.1,0.2c-0.4-0.1-1-0.4-1.6-0.8c-0.2-0.4-0.4-1.1-0.6-1.8c-0.2-0.8-0.3-1.3-0.4-1.7c0,0.1,0,0.3,0,0.5
			c0,0.2,0.1,0.4,0.2,0.7c-0.6-1.3-1.7-2.4-3-3.3c-2.2-1.8-4.4-2.9-6.6-3.5c-0.9-0.3-1.7-0.5-2.6-0.5c-0.9,0-1.9,0.3-3.2,0.8
			c-1.3,0.8-1.9,1.8-1.9,3c0,1.2,0.7,2.9,2.2,5.2c0.7,0.9,2.5,2.5,5.3,5c3.4,2.9,5.8,5.2,7,6.8l1.3,1.5c14-2.7,26.1-5.4,36.5-8.1
			c10.4-2.8,20.3-6.4,29.8-11c0.6-0.2,1.1-0.3,1.4-0.3c1.3,0,2.3,0.7,3,2L-849.8,457.3z M-925.4,481.4c-3.9,0.6-7.5,1.5-10.7,3
			c-1.5,0.8-2.7,1.5-3.5,2.1c-0.9,0.6-1.4,1.3-1.8,2.1c0.6,0.3,1.1,0.5,1.3,0.5c1,0.2,1.6,0.3,1.9,0.2c2.6,0,5-0.6,7.3-1.7
			c2.3-1.2,4-2.9,5.2-5.1C-925.6,482-925.4,481.7-925.4,481.4z M-916.3,454.9c0.4,0,0.9,0.1,1.3,0.3
			C-915.3,455-915.7,454.9-916.3,454.9z"/>
		<path d="M-847.1,469.1c-0.3,2.9,0.5,5.2,2.6,6.8c1.2,1.2,3,1.8,5.4,1.8c2.8,0,5.8-0.8,9-2.3c10.9-4.9,21.5-13.3,32-25.3
			c0.6-0.8,1.4-1.2,2.4-1.2c0.7,0,1.5,0.3,2.2,0.8c0.7,0.8,1.1,1.7,1.1,2.7c0,0.9-0.3,1.7-1,2.3c-10.9,12.6-22.2,21.7-34.1,27.1
			c-3.9,1.8-7.8,2.7-11.7,2.7c-3.9,0-7.1-1.1-9.6-3.2c-3.4-3.1-5.1-6.8-5.1-11.1c0-2.2,0.4-4.3,1.1-6.3c1.4-4.2,3.8-8.1,7.4-11.7
			c3.5-3.6,6.9-5.9,10.2-6.9c2.1-0.6,3.9-0.8,5.3-0.8c1.4,0,2.6,0.2,3.7,0.5c2.2,0.7,3.8,1.9,4.8,3.8c0.5,0.9,0.8,1.9,0.8,3.2
			c0,1.3-0.4,2.7-1.1,4.2c-1.8,4-5.1,7.2-9.9,9.6c-2.6,1.2-5.2,2.1-8,2.6C-842.4,468.9-844.9,469.1-847.1,469.1z M-827.3,452
			c-0.3-0.1-0.7-0.2-1.3-0.3c-0.5-0.1-1.1-0.2-1.8-0.2c-1.1,0-2.1,0.2-3,0.5c-1.9,0.6-3.9,1.8-5.9,3.7c-2,1.9-3.8,4-5.3,6.5
			c4.1-0.4,7.4-1.3,10.1-2.7c3.3-1.5,5.6-3.7,6.9-6.3l0.3-0.8V452z"/>
		<path d="M-698.1,457.3c0,1.4-0.6,2.5-1.9,3.3c-9.7,4.7-19.8,8.4-30.4,11.2c-10.6,2.8-22.8,5.6-36.6,8.2v0.7c0,1.3-0.4,2.9-1.1,4.8
			c-1.6,3.3-4.1,5.9-7.4,7.7c-3.4,1.8-7,2.8-10.8,2.9c-1.2,0-2.4-0.2-3.8-0.5c-1.3-0.3-2.5-0.8-3.4-1.3c-1.9-1.2-2.9-2.9-2.9-5
			c0-2.3,0.9-4.5,2.6-6.4c1.7-1.9,4-3.6,6.9-4.9c2.8-1.3,6.2-2.4,10.2-3.2l-0.5-0.5c-1.1-1.1-2.7-2.5-4.8-4.3
			c-0.5-0.4-1.5-1.3-3-2.6c-1.4-1.3-2.5-2.4-3.1-3.4c-2.3-3.3-3.5-6.5-3.5-9.6c0-1.3,0.2-2.5,0.6-3.5c1-2.1,2.5-3.8,4.6-5
			c2-1.1,4.1-1.7,6.2-1.7c4.3,0,8.6,1.7,13.1,5.2c2.7,1.8,4.5,4,5.4,6.6l0.2,1.2c0.1,0.2,0.2,0.5,0.2,0.8c0,1.4-0.7,2.5-2.1,3.3
			c-0.7,0.3-1.4,0.4-2.1,0.2c-0.4-0.1-1-0.4-1.6-0.8c-0.2-0.4-0.4-1.1-0.6-1.8c-0.2-0.8-0.3-1.3-0.4-1.7c0,0.1,0,0.3,0,0.5
			c0,0.2,0.1,0.4,0.2,0.7c-0.6-1.3-1.7-2.4-3-3.3c-2.2-1.8-4.4-2.9-6.6-3.5c-0.9-0.3-1.7-0.5-2.6-0.5c-0.9,0-1.9,0.3-3.2,0.8
			c-1.3,0.8-1.9,1.8-1.9,3c0,1.2,0.7,2.9,2.2,5.2c0.7,0.9,2.5,2.5,5.3,5c3.4,2.9,5.8,5.2,7,6.8l1.3,1.5c14-2.7,26.1-5.4,36.5-8.1
			c10.4-2.8,20.3-6.4,29.8-11c0.6-0.2,1.1-0.3,1.4-0.3c1.3,0,2.3,0.7,3,2L-698.1,457.3z M-773.7,481.4c-3.9,0.6-7.5,1.5-10.7,3
			c-1.5,0.8-2.7,1.5-3.5,2.1c-0.9,0.6-1.4,1.3-1.8,2.1c0.6,0.3,1.1,0.5,1.3,0.5c1,0.2,1.6,0.3,1.9,0.2c2.6,0,5-0.6,7.3-1.7
			c2.3-1.2,4-2.9,5.2-5.1C-773.8,482-773.7,481.7-773.7,481.4z M-764.6,454.9c0.4,0,0.9,0.1,1.3,0.3
			C-763.5,455-763.9,454.9-764.6,454.9z"/>
		<path d="M-678.4,452.7l-1,1.3c-1.2,1.7-2.2,3.3-3.2,4.8c-3.3,5.3-5,9.4-5,12.3c0,0.1,0.1,0.4,0.3,0.8c0.1,0.2,0.4,0.4,0.8,0.5
			c0.9,0.2,1.5,0.3,2.1,0.3c1.3,0,3.2-0.4,5.8-1.3c1.5-0.6,3.1-1.3,5-2.2c1.8-0.9,3.1-1.6,3.8-1.9c16.2-8.3,29.4-15.8,39.5-22.6
			c0.4-0.4,1-0.7,1.8-0.7c1.2,0,2.1,0.6,2.9,1.7c0.3,0.4,0.5,1,0.5,1.7c0,1.3-0.5,2.4-1.6,3.2c-10,6.6-23.4,14.3-40.1,22.9
			c-0.7,0.3-2.3,1.1-4.7,2.4c-2.4,1.3-4.7,2.2-7,2.9c-2.1,0.6-4.1,0.8-5.8,0.8c-1.3,0-2.6-0.2-3.8-0.5c-1.9-0.4-3.4-1.4-4.5-3
			c-1-1.5-1.4-3.3-1.4-5.2c0-0.9,0.1-1.5,0.2-2c0.3-2.1,0.9-4.2,1.8-6.1c0.9-2,2.2-4.5,3.8-7.5c1.4-2.3,2.6-4.2,3.7-5.5
			c0.6-1,1.1-1.7,1.4-2l0.8-1c0.5-0.4,1.2-0.7,1.9-0.7c0.5,0,1.1,0.2,1.8,0.5c0.1,0.1,0.4,0.4,1,0.8c0.5,0.4,0.8,1.2,0.8,2.2
			c0,0.3-0.1,0.8-0.3,1.5C-677.7,451.9-678.1,452.4-678.4,452.7z M-675.5,438.7c-0.6,0.1-1.3,0-1.9-0.4c-0.6-0.4-1.1-0.9-1.4-1.6
			c-0.2-0.7-0.3-1.2-0.3-1.5c0-1.3,0.6-2.3,1.8-3c0.4-0.3,1.1-0.5,1.9-0.5c0.4,0,1,0.2,1.6,0.7c1,0.7,1.4,1.6,1.4,2.8
			c0,0.4-0.2,1.1-0.6,2C-673.8,438-674.6,438.5-675.5,438.7z"/>
		<path d="M-609.3,476.8c-1.8,0.6-3.5,0.8-5,0.8c-3.4,0-6.4-1-9-3c-3.9-3-5.9-7.4-5.9-13.3c0-2.9,0.7-5.7,2.2-8.5
			c1.5-2.8,3.5-5,6.1-6.8c2.6-1.8,5.3-2.7,8.2-2.7c1.8,0,3.6,0.4,5.3,1.1c1.7,0.7,3.2,1.7,4.5,3.1c0.1,0,0.4,0.5,1,1.5
			c1.1,1.8,1.7,3.3,1.9,4.5c0.1,1,0,1.8-0.3,2.3c1.1,1.8,1.5,3.9,1.4,6.3c0,4-1.2,7.4-3.5,10.1c1.5,0.3,3,0.5,4.5,0.5
			c2.5,0,5.3-0.4,8.5-1.2c5.1-1.4,10-3.5,14.7-6.1c4.7-2.7,10.4-6.3,17.3-10.8c6.1-4.1,10.3-6.9,12.8-8.3c0.5-0.3,1.1-0.5,1.6-0.5
			c1.4,0,2.3,0.6,2.9,1.8c0.3,0.4,0.5,1.1,0.5,1.8c0,1.2-0.5,2.2-1.6,2.8c-3.7,2.2-7.9,4.9-12.6,8.1c-6.9,4.5-13,8.3-18.1,11.1
			c-5.1,2.9-10.4,5.1-15.8,6.6c-3.2,0.9-6.4,1.3-9.6,1.3C-602.1,479.6-606,478.7-609.3,476.8z M-608.4,451.9c-1.1-1-2.5-1.5-4.2-1.5
			h-0.6c-2.6,0.1-4.7,1.4-6.6,3.7c-1.8,2.4-2.7,5-2.7,7.7c0,3.3,1.1,5.7,3.2,7.1c1,0.8,2.1,1.3,3.4,1.5c-1.7-2.5-2.6-5.2-2.6-8
			c0-1.7,0.3-3.2,1-4.5c0.9-1.8,2.1-3.2,3.6-4.2c1.5-1.1,3.2-1.7,4.9-1.9H-608.4z M-608.7,468.8c2-1.7,3.1-3.9,3.2-6.8
			c0-1.3-0.3-2.3-0.8-2.8c-0.5-0.3-1-0.5-1.4-0.5c-0.5,0-0.9,0.1-1.1,0.2c-1.3,0.3-2.1,1.1-2.6,2.2c-0.2,0.3-0.3,0.9-0.3,1.7
			c0,1.4,0.6,3,1.8,4.7L-608.7,468.8z"/>
		<path d="M-467.8,454.5c0,0.9-0.4,1.7-1.1,2.5c-4.8,4.7-10.2,8.9-16.1,12.7c-5.9,3.8-11.2,6.6-15.9,8.2c-2.9,1.1-5.5,1.7-7.8,1.7
			c-0.7,0-1.5-0.1-2.4-0.3c-1.7-0.6-3.1-1.7-4.2-3.3c-0.7-1.2-1.1-2.8-1.1-4.7c0-1,0.1-1.8,0.2-2.3c0.3-2.5,1.1-5.2,2.5-7.8
			c1.3-2.7,2.1-4.3,2.3-4.8l0.5-1.2l-0.5,0.3c-1.2,0.6-2.7,1.6-4.5,3c-2,1.7-4.9,4.4-8.5,8.1c-2.5,2.5-4.1,4.2-5,4.8
			c-0.2,0.2-1.3,1.2-3.2,2.9c-1.9,1.7-3.6,2.9-5,3.4c-0.7,0.3-1.5,0.5-2.2,0.5c-0.9,0-1.7-0.3-2.4-0.8c-0.9-0.7-1.3-1.4-1.4-2.3
			l-0.2-1.2l0.3-2.2c0.6-2.3,1.8-5.4,3.6-9.2c1.8-3.8,2.7-6,3-6.4c0.2-0.4,0.5-1.2,1-2.2c0.4-1.1,0.7-2,1-2.9l0.2-1
			c0-0.7,0.2-1.2,0.5-1.7c0.3-0.8,0.8-1.3,1.4-1.7c0.9-0.3,1.7-0.4,2.6-0.2c1.6,0.6,2.3,1.7,2.2,3.5l-0.5,3.2l-2.2,5.6l-3.7,8.1
			l1-0.8l4.5-4.3c2.9-3.2,5.9-6.1,9-8.6c4.7-4,8.8-5.8,12.3-5.5c0.9,0.1,1.7,0.5,2.6,1.2c1.1,1.1,1.6,2.3,1.6,3.7
			c0,1-0.2,2.1-0.6,3.4c-0.4,1.3-0.8,2.3-1.1,3.1c-0.3,0.8-0.9,2.1-1.8,4c-0.9,1.9-1.6,3.7-2.2,5.3c-0.3,0.8-0.5,1.6-0.5,2.5
			c0,1.1,0.3,1.8,1,2c0.6,0,1.2-0.1,1.6-0.2c0.6-0.1,2.1-0.5,4.3-1.2c4.3-1.5,9.1-4.1,14.6-7.6c5.4-3.5,10.4-7.5,15-11.8
			c0.6-0.7,1.4-1,2.2-1c1,0,1.8,0.4,2.4,1.2C-468.1,452.9-467.8,453.6-467.8,454.5z"/>
		<path d="M-465.1,469.1c-0.3,2.9,0.5,5.2,2.6,6.8c1.2,1.2,3,1.8,5.4,1.8c2.8,0,5.8-0.8,9-2.3c10.9-4.9,21.5-13.3,32-25.3
			c0.6-0.8,1.4-1.2,2.4-1.2c0.7,0,1.5,0.3,2.2,0.8c0.7,0.8,1.1,1.7,1.1,2.7c0,0.9-0.3,1.7-1,2.3c-10.9,12.6-22.2,21.7-34.1,27.1
			c-3.9,1.8-7.8,2.7-11.7,2.7c-3.9,0-7.1-1.1-9.6-3.2c-3.4-3.1-5.1-6.8-5.1-11.1c0-2.2,0.4-4.3,1.1-6.3c1.4-4.2,3.8-8.1,7.4-11.7
			c3.5-3.6,6.9-5.9,10.2-6.9c2.1-0.6,3.9-0.8,5.3-0.8c1.4,0,2.6,0.2,3.7,0.5c2.2,0.7,3.8,1.9,4.8,3.8c0.5,0.9,0.8,1.9,0.8,3.2
			c0,1.3-0.4,2.7-1.1,4.2c-1.8,4-5.1,7.2-9.9,9.6c-2.6,1.2-5.2,2.1-8,2.6C-460.3,468.9-462.8,469.1-465.1,469.1z M-445.2,452
			c-0.3-0.1-0.7-0.2-1.3-0.3c-0.5-0.1-1.1-0.2-1.8-0.2c-1.1,0-2.1,0.2-3,0.5c-1.9,0.6-3.9,1.8-5.9,3.7c-2,1.9-3.8,4-5.3,6.5
			c4-0.4,7.4-1.3,10.1-2.7c3.3-1.5,5.6-3.7,6.9-6.3l0.3-0.8V452z"/>
		<path d="M-316,457.3c0,1.4-0.6,2.5-1.9,3.3c-9.7,4.7-19.8,8.4-30.4,11.2c-10.6,2.8-22.8,5.6-36.6,8.2v0.7c0,1.3-0.4,2.9-1.1,4.8
			c-1.6,3.3-4.1,5.9-7.4,7.7c-3.4,1.8-7,2.8-10.8,2.9c-1.2,0-2.4-0.2-3.8-0.5c-1.3-0.3-2.5-0.8-3.4-1.3c-1.9-1.2-2.9-2.9-2.9-5
			c0-2.3,0.9-4.5,2.6-6.4c1.7-1.9,4-3.6,6.9-4.9c2.8-1.3,6.2-2.4,10.2-3.2l-0.5-0.5c-1.1-1.1-2.7-2.5-4.8-4.3
			c-0.5-0.4-1.5-1.3-3-2.6c-1.4-1.3-2.5-2.4-3.1-3.4c-2.3-3.3-3.5-6.5-3.5-9.6c0-1.3,0.2-2.5,0.6-3.5c1-2.1,2.5-3.8,4.6-5
			c2-1.1,4.1-1.7,6.2-1.7c4.3,0,8.6,1.7,13.1,5.2c2.7,1.8,4.5,4,5.4,6.6l0.2,1.2c0.1,0.2,0.2,0.5,0.2,0.8c0,1.4-0.7,2.5-2.1,3.3
			c-0.7,0.3-1.4,0.4-2.1,0.2c-0.4-0.1-1-0.4-1.6-0.8c-0.2-0.4-0.4-1.1-0.6-1.8c-0.2-0.8-0.3-1.3-0.4-1.7c0,0.1,0,0.3,0,0.5
			c0,0.2,0.1,0.4,0.2,0.7c-0.6-1.3-1.7-2.4-3-3.3c-2.2-1.8-4.4-2.9-6.6-3.5c-0.9-0.3-1.7-0.5-2.6-0.5c-0.9,0-1.9,0.3-3.2,0.8
			c-1.3,0.8-1.9,1.8-1.9,3c0,1.2,0.7,2.9,2.2,5.2c0.7,0.9,2.5,2.5,5.3,5c3.4,2.9,5.8,5.2,7,6.8l1.3,1.5c14-2.7,26.1-5.4,36.5-8.1
			c10.4-2.8,20.3-6.4,29.8-11c0.6-0.2,1.1-0.3,1.4-0.3c1.3,0,2.3,0.7,3,2L-316,457.3z M-391.7,481.4c-3.9,0.6-7.5,1.5-10.7,3
			c-1.5,0.8-2.7,1.5-3.5,2.1c-0.9,0.6-1.4,1.3-1.8,2.1c0.6,0.3,1.1,0.5,1.3,0.5c1,0.2,1.6,0.3,1.9,0.2c2.6,0,5-0.6,7.3-1.7
			c2.3-1.2,4-2.9,5.2-5.1C-391.8,482-391.7,481.7-391.7,481.4z M-382.6,454.9c0.4,0,0.9,0.1,1.3,0.3
			C-381.5,455-381.9,454.9-382.6,454.9z"/>
	</g>
	<g>
		<g>
			<g>
				<path d="M-983,315.8c0-0.6-0.2-3-0.5-5.4c-2.8-26.3-8.7-92.9-11.3-119.3l-0.3-3.1l-5.2,10.9c-11.3,23.9-17.8,41.7-24,44.4
					c-17,7.3-19.9-21.2-20.1-39l0-3.9l-3.5,7.1c-1.9,3.9-6.4,15.5-10.6,24.4c-19.7,41.3-27.5,65.5-30.8,66.9c-5.2,2.2-8-4.4-4-7.8
					c2.4-2.1,8.1-23.8,25.2-63.4c12.4-28.7,16.7-46.3,19.6-50.1c3.1-4.1,8.3-5.2,11.9-2.5c3.4,2.6,4.2,5.7,4.8,19.9
					c0.7,14.3,3.7,25.8,3.7,34c0,0.7,1.7-1.7,5.1-7.3c3.8-6.3,21.8-50.8,23.7-53.2c4.2-5.3,11.5-4.5,14.3,1.7
					c2.4,5.2,10.3,119,10.3,143.6c0,3.5-1.3,5.9-4.1,5.9C-980.5,319.6-983,317.4-983,315.8z"/>
			</g>
			<g>
				<path d="M-927.6,237.6c12.3-2.8,20.4,15,19.2,29.4c-0.2,2.9-0.2,3.8,0.3,4c2.6,1,15.4,0.9,22.1-0.3c2.8-0.5,3.6-0.5,4.5,0.2
					c13.1,8.5-28.1,10.6-30.2,10.5c-5.8,14.2-19.8,28.4-31.1,13.4c-6.9-9.1-5.9-23.2,2.5-37.6c1-1.6,1.8-3.7,1.9-5
					C-937.6,244.5-933.1,238.8-927.6,237.6z M-935.7,270.8c-1.6,6.3-1.2,11.6,1,14.9c4.3,6.2,7.7-2.1,9.2-5.4l1.3-3l-3.6-2.5
					c-2-1.4-4.4-3.5-5.4-4.7l-1.8-2.2L-935.7,270.8z M-923.5,262.7l1.5,2c0.1-3-0.1-5.6-1.4-9.1l-1-2.7
					C-925.9,255.2-926.4,258.8-923.5,262.7z"/>
			</g>
			<g>
				<path d="M-855.6,259.6c-1.1,3.1-1.1,3.1-0.2,1.8c1.8-2.4,6.5-7.1,8.4-8.5c21.5-14.9,23.7,23.7,29.8,35.7
					c5.4,10.8,16.8-9.8,19.1-14.8c1.2-2.6,2.6-5.1,3-5.4c5-4.2,7.1,2.7,5.2,8.3c-4.8,14.3-14.2,29.8-27,26.8
					c-11.2-2.6-13.7-12.9-17.8-27.1c-2.6-8.9-3.6-11.8-4.3-12.3c-5-3.1-16.2,13.9-18.9,19.3c-4.5,9-6,16.3-9.5,16.3
					c-4,0-6.7-2.8-7.2-7.5c-1-10.1,17.8-62.6,25.5-54.9C-845.7,241.2-854.3,256-855.6,259.6z"/>
			</g>
			<g>
				<path d="M-753.4,218.3c0.1,0.1,1.5-0.1,3.3-0.4c7.9-1.1,22.6-2.2,22.6,3.9c0,5.9-17.3,8.5-23.8,9.8c-3.6,0.8-6.6,1.5-6.7,1.6
					c-1.1,1.1-14,55.2-17.5,73.2c-0.6,3.4-2.8,6.9-6.5,4.8c-1.8-1-2.1-2.3-2.1-8.3c0-18.8,3.5-40.1,10.1-61.2c1-3.1,1.7-5.7,1.7-5.8
					c-2.1-2.1-10.9,8.2-14.4,3.6c-5.3-6.8,10.7-14.7,17.2-17.1l2.9-1l3.4-6.9c5.4-10.9,9.1-15.6,12.8-16.7
					c7.4-2.2,8.3,10.1,2.8,10.1C-749.5,208-754.2,217.6-753.4,218.3z"/>
			</g>
			<g>
				<path d="M-710.3,240.8c4.8,0.2,8.3,3.3,9.2,9.3c2.1,13-18.1,34.1-28.6,30.1c-2-0.8-1.4,12.5-1.1,13.9
					c4.6,20.3,28.1-2.6,35.9-13.4c2.9-3.9,5.3-10.7,6.6-10.7c11.3,0-5.3,23.4-9,27.8c-9,10.6-20.7,19-29.7,17.3
					c-10.8-2.1-18-12.9-18-26.9c0-14.1,6.5-28.4,17.8-39.2C-721.1,243.3-715.1,240.6-710.3,240.8z M-727.4,272.7
					c3.4,0,10.2-9.4,11.9-12.3c1.9-3.2,3.4-6.9,2.7-6.9C-716.4,253.5-728.7,272.7-727.4,272.7z"/>
			</g>
			<g>
				<path d="M-547.6,212.2c-7,10.4-46.2,40.2-69.3,47.9c-1.2,0.4,6,11.2,12.4,18.7c8.8,10.3,27.8,28,45.9,42.8
					c5.9,4.9,6.7,5.9,5.7,8.3c-1.2,3-3.5,3.1-8.7,0.4c-21.7-11.4-41.2-28.5-53.3-47c-3.4-5.2-8.3-14.4-9.3-17.4
					c-0.9-2.9-7.2-0.3-9.3,1.6c-0.1,0.1-0.9,4.4-1.8,9.7c-2.2,12.6-4.5,28.4-5.3,37c-0.7,7.5-2.9,15.3-9.7,10.7
					c-1.8-1.2-3-3.6-4.7-9.7c-1.7-6.1-9.3-32.3-15.2-52.7c-9.4-32.3-11.8-44-11.1-56.7c1.4-29.7,33.2-45,65.3-44.7
					C-584.8,161.3-524.9,178.5-547.6,212.2z M-666.5,197.5l-1.8,3.6l-1,8.4c0,12.6,2,17.6,11.4,52c2.6,9.4,5.7,21,7,25.8
					c1.8,6.9,2.4,8.4,2.6,7.5c0.1-0.3,4.6-23.1,4.6-23.7c0-0.2-0.6-0.4-1.3-0.4c-1.8,0-3.4-1.7-3.4-3.6c0-3.9,6.3-3.3,7-6
					c1.1-4.5,10.7-52.8,9.2-57.5c-1.4-4.1,3.6-9.6,7.4-6c2.1,2,1,20.7-4.3,47.9c-1.2,6-2.1,11.1-2.1,11.4c0,0,21.6-10.4,28.7-14.6
					c17.8-10.6,33.2-22,41.5-30.9c13.1-14,9.5-19.3-7-27.3C-599.6,169-652.2,168.8-666.5,197.5z"/>
			</g>
			<g>
				<path d="M-503.1,247.6c14.5-10.3,12.5,17.6,17.1,23.5c6.7,8.8,25.1,7.9,34.4,1.6c3.7-2.5,7.2-1.2,7.2,2.7c0,1.6-0.3,2.1-1.8,3.6
					c-14.4,14-43.5,11.6-52.6-5.5l-1.1-2.1l-3.9,5.8c-5,7.4-9.8,12.9-14.5,16.7c-10.9,8.8-27.9,14.5-31-0.8
					c-2.7-13.7,17.8-41.1,35.1-46.8c3.5-1.2,6.1-1.3,9,0.2L-503.1,247.6z M-535,281.9c-0.7,1.6-3.1,8.1-1,7.5
					c9.8-3,18.2-14.2,25.5-27.1c3.5-6.2,0.9-3.6,0.9-7.6c0-1.4-1.4-0.3-3.7,0.9C-520.8,259.6-530.4,271.2-535,281.9z"/>
			</g>
			<g>
				<path d="M-422.4,259.6c-1.1,3.1-1.1,3.1-0.2,1.8c1.8-2.4,6.5-7.1,8.4-8.5c21.5-14.9,23.7,23.7,29.8,35.7
					c5.4,10.8,16.8-9.8,19.1-14.8c1.2-2.6,2.6-5.1,3-5.4c5-4.2,7.1,2.7,5.2,8.3c-4.8,14.3-14.2,29.8-27,26.8
					c-11.2-2.6-13.7-12.9-17.8-27.1c-2.6-8.9-3.6-11.8-4.3-12.3c-5-3.1-16.2,13.9-18.9,19.3c-4.5,9-6,16.3-9.5,16.3
					c-4,0-6.7-2.8-7.2-7.5c-1-10.1,17.8-62.6,25.5-54.9C-412.5,241.2-421.1,256-422.4,259.6z"/>
			</g>
			<g>
				<path d="M-308.2,251.9c-1.4-1.1-3.2-1-7.3,0.5c-9.1,3.4-25.9,18.4-24.8,31.7c0.7,8.8,12.9,7.8,20.6,5.2
					c8-2.7,24.8-11.4,37.2-19.3c5.8-3.7,10.1-4.6,10.1,1c0,2.1-0.8,3-7.7,8.7c-14,11.6-30.2,21-40.9,23.8
					c-17.8,4.7-31.8-2.8-32.5-18.3c-1-21,18.7-36.1,33.9-41.3c3.7-1.3,11-2.2,14.5-0.5C-298.6,246.7-302.4,256.4-308.2,251.9z"/>
			</g>
			<g>
				<path d="M-244.1,237.6c12.3-2.8,20.4,15,19.2,29.4c-0.2,2.9-0.2,3.8,0.3,4c2.6,1,15.4,0.9,22.1-0.3c2.8-0.5,3.6-0.5,4.5,0.2
					c13.1,8.5-28.1,10.6-30.2,10.5c-5.8,14.2-19.8,28.4-31.1,13.4c-6.9-9.1-5.9-23.2,2.5-37.6c1-1.6,1.8-3.7,1.9-5
					C-254.1,244.5-249.6,238.8-244.1,237.6z M-252.3,270.8c-1.6,6.3-1.2,11.6,1,14.9c4.3,6.2,7.7-2.1,9.2-5.4l1.3-3l-3.6-2.5
					c-2-1.4-4.4-3.5-5.4-4.7l-1.8-2.2L-252.3,270.8z M-240,262.7l1.5,2c0.1-3-0.1-5.6-1.4-9.1l-1-2.7
					C-242.4,255.2-242.9,258.8-240,262.7z"/>
			</g>
		</g>
		<g>
			<g>
				<g>
					<path d="M-498.2,6.3c4.1-2.2,9.3-4.3,13.8-2c5.4,2.8,10.2,6.7,15.5,9.7c5.1,3,10.8,4.9,15.1,9c5.6,5.3,6.9,13.6,12.6,18.8
						c5.4,4.9,12.2,7.8,18.9,10.5c9.2,3.6,18.1,7.9,26,14c5.8,4.5,12,8.3,18.2,12.3c4.4,2.8,7.7,7,10.6,11.3c-5.1-3.2-11-4.9-16.1-8
						c-7.2-3.9-14.2-8.3-21.4-12.2c-11.6-6.2-25.1-7.4-36.4-14.1c-5-2.8-9.4-6.7-12.4-11.5c-2.5-3.8-3.9-8.2-5.9-12.3
						c-2-4.2-6.4-6.3-9.9-9c-5.9-4-10.4-9.5-15.6-14.4c-14.3,23.8-31.8,45.4-48,67.9c-5.1,7.4-11.2,14.1-16.9,21
						c1.5-5.7,3.7-11.1,6.4-16.4c-5,5.4-10.2,10.7-16.4,14.9c4-6,7.1-12.6,11.2-18.5c6.2-9.2,12.6-18.3,18.8-27.6
						c-7.2,6.5-14,13.5-21.7,19.3c-5.1,3.8-10.2,7.6-15.2,11.5c6.4-8.5,12.9-16.9,20.1-24.7c-7.8,5.9-15.9,11.5-24.4,16.3
						c4.4-5.3,9.2-10.2,14.1-15c-8.8,6-17.9,11.8-27.3,16.8c4.9-4.7,9.6-9.8,15-14c5.8-4.6,11.9-8.8,17.7-13.2
						c-4.1-0.8-7.9-2.7-10.6-6c-2.9,1.9-5.8,3.8-8.3,6.1c-0.8,0.3-1.5,0.6-2.2,0.9c1.1,1.5-0.5,2.3-1.3,3.2
						c-1.9,1.7-3.8,3.4-5.4,5.5c-0.5-0.5-0.9-0.9-1.4-1.3c2.8-1.6,5.2-3.9,7.3-6.4c-16.6,9.9-31.9,23.3-51.4,27.1
						c5.7,4.2,11.5,8.2,18,10.9c5.1,2.1,9.7,5,14.2,8.2c-14.2-0.7-26.8-7.9-39.6-13.3c-11.2-5-23.8-1.6-35.5-3.6
						c-10.5-1-19.2-7.6-29.3-10.2c-9.6-2.5-19.2-5.5-28.1-10.1c-8.2-4.4-14.4-11.5-21.9-16.9c-3.5-2.6-6.8-5.4-10-8.3
						c-5.3,11.3-9.9,23-16.1,33.9c-7.7,13.3-15.3,26.7-25.9,38c4.9-10.7,10.8-20.8,15.7-31.4c-6.2,9.5-13.6,18.1-21.2,26.4
						c4.7-11.1,10.6-21.7,17-31.8c-11.2,12.2-21.5,25.3-34.1,36.1c5.6-10.2,12.5-19.6,19.4-29c-7.1,6.3-15,11.5-23.1,16.4
						c3.5-4.6,6.9-9.3,10.2-14c-6.7,5.2-13,10.8-19.6,16.1c-5.9,4.7-12.4,8.4-18.3,13.1c4-5.3,8.9-9.9,12.4-15.5
						c7.9-7.8,16.9-14.3,24.8-22c-17.3,10.8-33.1,23.8-49.3,36.1c-14.2,10.4-28.4,20.7-42.9,30.7c-8.6,6-17.8,11.2-27.3,15.7
						c-3.5,1.6-6.8,3.5-10,5.5c4.7-6.4,12.3-9.2,18.6-13.6c18.8-12.4,36.4-26.5,53.9-40.7c14-11.9,27.7-24.3,42.8-34.9
						c13.2-9.3,26.4-18.4,39.7-27.5c8-5.2,16-10.6,24.8-14.2c3.4-1.3,7.8-2.3,10.5,0.8c6.8,7.1,15.1,12.4,22.4,18.9
						c10.7,9.3,25.3,9.9,38.5,13c9.3,1.7,17.2,7.8,26.7,8.5c11.7,0.9,24,0.1,35.1,4.7c16.8-4.2,30.5-15.1,44.6-24.6
						c6.5-4.4,12.8-9.1,19.3-13.4c2.9-1.6,6.3-3.9,9.7-2.5c3.7,1.5,3.9,7.5,8.6,7.3c6.5-0.5,11.8-4.8,17.1-8.3
						C-521.6,22.1-510.7,13.1-498.2,6.3"/>
				</g>
			</g>
			<g>
				<g>
					<path d="M-492.6,29.8c2.3-3.5,5.1-6.8,8.4-9.5C-496,39-507.8,57.8-519.6,76.6C-512.5,60-502.6,44.7-492.6,29.8"/>
				</g>
			</g>
			<g>
				<g>
					<path d="M-495.7,45.7c2.6-3.5,4.7-8.5,9.6-9c-0.8,5.5-4.8,9.5-7.6,14.1c-4.6,7.2-10.1,13.8-15.5,20.4
						C-505,62.5-501.2,53.6-495.7,45.7"/>
				</g>
			</g>
			<g>
				<g>
					<path d="M-569.7,50.2c3.4-2.3,7-5.8,11.5-4.6c0.1,0.5,0.2,1.5,0.3,2.1c-10,7.8-20.3,15.4-31,22.3
						C-582.6,63.4-577.3,55.6-569.7,50.2"/>
				</g>
			</g>
			<g>
				<g>
					<path d="M-766.8,68.6c2.8-4.8,4.9-10.4,9.8-13.6c-0.9,5.1-3.9,9.5-6,14.2c-5.8,11.1-11.2,22.6-19,32.6
						C-778.3,90.2-772.5,79.3-766.8,68.6"/>
				</g>
			</g>
			<g>
				<g>
					<path d="M-583.2,59.2c-1.6-1.1,1-2.6,1.9-1.5C-581.8,58.1-582.7,58.9-583.2,59.2"/>
				</g>
			</g>
			<g>
				<g>
					<path d="M-507.3,75.1c4.7-5.1,9.1-10.5,14.1-15.3C-496.5,66-501.9,70.7-507.3,75.1"/>
				</g>
			</g>
			<g>
				<g>
					<path d="M-754,68.5c-2.1,10.1-8.5,18.7-12.6,28.1C-763.8,86.6-759.3,77.3-754,68.5"/>
				</g>
			</g>
			<g>
				<g>
					<path d="M-751.9,87.5c0.8,1,1.7,2.2,1.1,3.5c-1,4.1-3.2,7.9-5.1,11.7C-754.6,97.6-753,92.7-751.9,87.5"/>
				</g>
			</g>
			<g>
				<g>
					<path d="M-717.4,53.2c3.8,2.1,7.8,4,11.9,5.8c2.2-3.4,4.4-7,6.4-11.2c4.6,4.7,8.6,11.2,12.5,18.2c1.5,0.5,2.9,0.9,4.4,1.4
						c-3.6-8.3-7.6-15.8-11.7-22.8c-2-3.4-4.3-6.3-6.8-7.7c-1-0.6-2.1-1-3.2-1.2c-3.4,3.7-6.6,8.4-9.9,12.3c0.5-0.1,1-0.2,1.6-0.4
						C-714.1,49-715.8,51-717.4,53.2"/>
				</g>
			</g>
		</g>
	</g>
</g>
<path class="st3" d="M-645.3,789.8L-645.3,789.8c-298.2,0-540-241.8-540-540v0c0-298.2,241.8-540,540-540h0
	c298.2,0,540,241.8,540,540v0C-105.3,548-347,789.8-645.3,789.8z"/>
<g>
	<g>
		<path class="st0" d="M250.2,457.3c0,1.4-0.6,2.5-1.9,3.3c-9.7,4.7-19.8,8.4-30.4,11.2c-10.6,2.8-22.8,5.6-36.6,8.2v0.7
			c0,1.3-0.4,2.9-1.1,4.8c-1.6,3.3-4.1,5.9-7.4,7.7c-3.4,1.8-7,2.8-10.8,2.9c-1.2,0-2.4-0.2-3.8-0.5c-1.3-0.3-2.5-0.8-3.4-1.3
			c-1.9-1.2-2.9-2.9-2.9-5c0-2.3,0.9-4.5,2.6-6.4c1.7-1.9,4-3.6,6.9-4.9c2.8-1.3,6.2-2.4,10.2-3.2l-0.5-0.5
			c-1.1-1.1-2.7-2.5-4.8-4.3c-0.5-0.4-1.5-1.3-3-2.6c-1.4-1.3-2.5-2.4-3.1-3.4c-2.3-3.3-3.5-6.5-3.5-9.6c0-1.3,0.2-2.5,0.6-3.5
			c1-2.1,2.5-3.8,4.6-5c2-1.1,4.1-1.7,6.2-1.7c4.3,0,8.6,1.7,13.1,5.2c2.7,1.8,4.5,4,5.4,6.6l0.2,1.2c0.1,0.2,0.2,0.5,0.2,0.8
			c0,1.4-0.7,2.5-2.1,3.3c-0.7,0.3-1.4,0.4-2.1,0.2c-0.4-0.1-1-0.4-1.6-0.8c-0.2-0.4-0.4-1.1-0.6-1.8c-0.2-0.8-0.3-1.3-0.4-1.7
			c0,0.1,0,0.3,0,0.5c0,0.2,0.1,0.4,0.2,0.7c-0.6-1.3-1.7-2.4-3-3.3c-2.2-1.8-4.4-2.9-6.6-3.5c-0.9-0.3-1.7-0.5-2.6-0.5
			c-0.9,0-1.9,0.3-3.2,0.8c-1.3,0.8-1.9,1.8-1.9,3c0,1.2,0.7,2.9,2.2,5.2c0.7,0.9,2.5,2.5,5.3,5c3.4,2.9,5.8,5.2,7,6.8l1.3,1.5
			c14-2.7,26.1-5.4,36.5-8.1c10.4-2.8,20.3-6.4,29.8-11c0.6-0.2,1.1-0.3,1.4-0.3c1.3,0,2.3,0.7,3,2L250.2,457.3z M174.6,481.4
			c-3.9,0.6-7.5,1.5-10.7,3c-1.5,0.8-2.7,1.5-3.5,2.1c-0.9,0.6-1.4,1.3-1.8,2.1c0.6,0.3,1.1,0.5,1.3,0.5c1,0.2,1.6,0.3,1.9,0.2
			c2.6,0,5-0.6,7.3-1.7c2.3-1.2,4-2.9,5.2-5.1C174.4,482,174.6,481.7,174.6,481.4z M183.7,454.9c0.4,0,0.9,0.1,1.3,0.3
			C184.7,455,184.3,454.9,183.7,454.9z"/>
		<path class="st0" d="M252.9,469.1c-0.3,2.9,0.5,5.2,2.6,6.8c1.2,1.2,3,1.8,5.4,1.8c2.8,0,5.8-0.8,9-2.3
			c10.9-4.9,21.5-13.3,32-25.3c0.6-0.8,1.4-1.2,2.4-1.2c0.7,0,1.5,0.3,2.2,0.8c0.7,0.8,1.1,1.7,1.1,2.7c0,0.9-0.3,1.7-1,2.3
			c-10.9,12.6-22.2,21.7-34.1,27.1c-3.9,1.8-7.8,2.7-11.7,2.7c-3.9,0-7.1-1.1-9.6-3.2c-3.4-3.1-5.1-6.8-5.1-11.1
			c0-2.2,0.4-4.3,1.1-6.3c1.4-4.2,3.8-8.1,7.4-11.7c3.5-3.6,6.9-5.9,10.2-6.9c2.1-0.6,3.9-0.8,5.3-0.8c1.4,0,2.6,0.2,3.7,0.5
			c2.2,0.7,3.8,1.9,4.8,3.8c0.5,0.9,0.8,1.9,0.8,3.2c0,1.3-0.4,2.7-1.1,4.2c-1.8,4-5.1,7.2-9.9,9.6c-2.6,1.2-5.2,2.1-8,2.6
			C257.6,468.9,255.1,469.1,252.9,469.1z M272.7,452c-0.3-0.1-0.7-0.2-1.3-0.3c-0.5-0.1-1.1-0.2-1.8-0.2c-1.1,0-2.1,0.2-3,0.5
			c-1.9,0.6-3.9,1.8-5.9,3.7c-2,1.9-3.8,4-5.3,6.5c4.1-0.4,7.4-1.3,10.1-2.7c3.3-1.5,5.6-3.7,6.9-6.3l0.3-0.8V452z"/>
		<path class="st0" d="M401.9,457.3c0,1.4-0.6,2.5-1.9,3.3c-9.7,4.7-19.8,8.4-30.4,11.2c-10.6,2.8-22.8,5.6-36.6,8.2v0.7
			c0,1.3-0.4,2.9-1.1,4.8c-1.6,3.3-4.1,5.9-7.4,7.7c-3.4,1.8-7,2.8-10.8,2.9c-1.2,0-2.4-0.2-3.8-0.5c-1.3-0.3-2.5-0.8-3.4-1.3
			c-1.9-1.2-2.9-2.9-2.9-5c0-2.3,0.9-4.5,2.6-6.4c1.7-1.9,4-3.6,6.9-4.9c2.8-1.3,6.2-2.4,10.2-3.2l-0.5-0.5
			c-1.1-1.1-2.7-2.5-4.8-4.3c-0.5-0.4-1.5-1.3-3-2.6c-1.4-1.3-2.5-2.4-3.1-3.4c-2.3-3.3-3.5-6.5-3.5-9.6c0-1.3,0.2-2.5,0.6-3.5
			c1-2.1,2.5-3.8,4.6-5c2-1.1,4.1-1.7,6.2-1.7c4.3,0,8.6,1.7,13.1,5.2c2.7,1.8,4.5,4,5.4,6.6l0.2,1.2c0.1,0.2,0.2,0.5,0.2,0.8
			c0,1.4-0.7,2.5-2.1,3.3c-0.7,0.3-1.4,0.4-2.1,0.2c-0.4-0.1-1-0.4-1.6-0.8c-0.2-0.4-0.4-1.1-0.6-1.8c-0.2-0.8-0.3-1.3-0.4-1.7
			c0,0.1,0,0.3,0,0.5c0,0.2,0.1,0.4,0.2,0.7c-0.6-1.3-1.7-2.4-3-3.3c-2.2-1.8-4.4-2.9-6.6-3.5c-0.9-0.3-1.7-0.5-2.6-0.5
			c-0.9,0-1.9,0.3-3.2,0.8c-1.3,0.8-1.9,1.8-1.9,3c0,1.2,0.7,2.9,2.2,5.2c0.7,0.9,2.5,2.5,5.3,5c3.4,2.9,5.8,5.2,7,6.8l1.3,1.5
			c14-2.7,26.1-5.4,36.5-8.1c10.4-2.8,20.3-6.4,29.8-11c0.6-0.2,1.1-0.3,1.4-0.3c1.3,0,2.3,0.7,3,2L401.9,457.3z M326.3,481.4
			c-3.9,0.6-7.5,1.5-10.7,3c-1.5,0.8-2.7,1.5-3.5,2.1c-0.9,0.6-1.4,1.3-1.8,2.1c0.6,0.3,1.1,0.5,1.3,0.5c1,0.2,1.6,0.3,1.9,0.2
			c2.6,0,5-0.6,7.3-1.7c2.3-1.2,4-2.9,5.2-5.1C326.2,482,326.3,481.7,326.3,481.4z M335.4,454.9c0.4,0,0.9,0.1,1.3,0.3
			C336.5,455,336.1,454.9,335.4,454.9z"/>
		<path class="st0" d="M421.6,452.7l-1,1.3c-1.2,1.7-2.2,3.3-3.2,4.8c-3.3,5.3-5,9.4-5,12.3c0,0.1,0.1,0.4,0.3,0.8
			c0.1,0.2,0.4,0.4,0.8,0.5c0.9,0.2,1.5,0.3,2.1,0.3c1.3,0,3.2-0.4,5.8-1.3c1.5-0.6,3.1-1.3,5-2.2c1.8-0.9,3.1-1.6,3.8-1.9
			c16.2-8.3,29.4-15.8,39.5-22.6c0.4-0.4,1-0.7,1.8-0.7c1.2,0,2.1,0.6,2.9,1.7c0.3,0.4,0.5,1,0.5,1.7c0,1.3-0.5,2.4-1.6,3.2
			c-10,6.6-23.4,14.3-40.1,22.9c-0.7,0.3-2.3,1.1-4.7,2.4c-2.4,1.3-4.7,2.2-7,2.9c-2.1,0.6-4.1,0.8-5.8,0.8c-1.3,0-2.6-0.2-3.8-0.5
			c-1.9-0.4-3.4-1.4-4.5-3c-1-1.5-1.4-3.3-1.4-5.2c0-0.9,0.1-1.5,0.2-2c0.3-2.1,0.9-4.2,1.8-6.1c0.9-2,2.2-4.5,3.8-7.5
			c1.4-2.3,2.6-4.2,3.7-5.5c0.6-1,1.1-1.7,1.4-2l0.8-1c0.5-0.4,1.2-0.7,1.9-0.7c0.5,0,1.1,0.2,1.8,0.5c0.1,0.1,0.4,0.4,1,0.8
			c0.5,0.4,0.8,1.2,0.8,2.2c0,0.3-0.1,0.8-0.3,1.5C422.3,451.9,421.9,452.4,421.6,452.7z M424.5,438.7c-0.6,0.1-1.3,0-1.9-0.4
			c-0.6-0.4-1.1-0.9-1.4-1.6c-0.2-0.7-0.3-1.2-0.3-1.5c0-1.3,0.6-2.3,1.8-3c0.4-0.3,1.1-0.5,1.9-0.5c0.4,0,1,0.2,1.6,0.7
			c1,0.7,1.4,1.6,1.4,2.8c0,0.4-0.2,1.1-0.6,2C426.2,438,425.4,438.5,424.5,438.7z"/>
		<path class="st0" d="M490.7,476.8c-1.8,0.6-3.5,0.8-5,0.8c-3.4,0-6.4-1-9-3c-3.9-3-5.9-7.4-5.9-13.3c0-2.9,0.7-5.7,2.2-8.5
			c1.5-2.8,3.5-5,6.1-6.8c2.6-1.8,5.3-2.7,8.2-2.7c1.8,0,3.6,0.4,5.3,1.1c1.7,0.7,3.2,1.7,4.5,3.1c0.1,0,0.4,0.5,1,1.5
			c1.1,1.8,1.7,3.3,1.9,4.5c0.1,1,0,1.8-0.3,2.3c1.1,1.8,1.5,3.9,1.4,6.3c0,4-1.2,7.4-3.5,10.1c1.5,0.3,3,0.5,4.5,0.5
			c2.5,0,5.3-0.4,8.5-1.2c5.1-1.4,10-3.5,14.7-6.1c4.7-2.7,10.4-6.3,17.3-10.8c6.1-4.1,10.3-6.9,12.8-8.3c0.5-0.3,1.1-0.5,1.6-0.5
			c1.4,0,2.3,0.6,2.9,1.8c0.3,0.4,0.5,1.1,0.5,1.8c0,1.2-0.5,2.2-1.6,2.8c-3.7,2.2-7.9,4.9-12.6,8.1c-6.9,4.5-13,8.3-18.1,11.1
			c-5.1,2.9-10.4,5.1-15.8,6.6c-3.2,0.9-6.4,1.3-9.6,1.3C497.9,479.6,494,478.7,490.7,476.8z M491.6,451.9c-1.1-1-2.5-1.5-4.2-1.5
			h-0.6c-2.6,0.1-4.7,1.4-6.6,3.7c-1.8,2.4-2.7,5-2.7,7.7c0,3.3,1.1,5.7,3.2,7.1c1,0.8,2.1,1.3,3.4,1.5c-1.7-2.5-2.6-5.2-2.6-8
			c0-1.7,0.3-3.2,1-4.5c0.9-1.8,2.1-3.2,3.6-4.2c1.5-1.1,3.2-1.7,4.9-1.9H491.6z M491.3,468.8c2-1.7,3.1-3.9,3.2-6.8
			c0-1.3-0.3-2.3-0.8-2.8c-0.5-0.3-1-0.5-1.4-0.5c-0.5,0-0.9,0.1-1.1,0.2c-1.3,0.3-2.1,1.1-2.6,2.2c-0.2,0.3-0.3,0.9-0.3,1.7
			c0,1.4,0.6,3,1.8,4.7L491.3,468.8z"/>
		<path class="st0" d="M632.2,454.5c0,0.9-0.4,1.7-1.1,2.5c-4.8,4.7-10.2,8.9-16.1,12.7c-5.9,3.8-11.2,6.6-15.9,8.2
			c-2.9,1.1-5.5,1.7-7.8,1.7c-0.7,0-1.5-0.1-2.4-0.3c-1.7-0.6-3.1-1.7-4.2-3.3c-0.7-1.2-1.1-2.8-1.1-4.7c0-1,0.1-1.8,0.2-2.3
			c0.3-2.5,1.1-5.2,2.5-7.8c1.3-2.7,2.1-4.3,2.3-4.8l0.5-1.2l-0.5,0.3c-1.2,0.6-2.7,1.6-4.5,3c-2,1.7-4.9,4.4-8.5,8.1
			c-2.5,2.5-4.1,4.2-5,4.8c-0.2,0.2-1.3,1.2-3.2,2.9c-1.9,1.7-3.6,2.9-5,3.4c-0.7,0.3-1.5,0.5-2.2,0.5c-0.9,0-1.7-0.3-2.4-0.8
			c-0.9-0.7-1.3-1.4-1.4-2.3l-0.2-1.2l0.3-2.2c0.6-2.3,1.8-5.4,3.6-9.2c1.8-3.8,2.7-6,3-6.4c0.2-0.4,0.5-1.2,1-2.2
			c0.4-1.1,0.7-2,1-2.9l0.2-1c0-0.7,0.2-1.2,0.5-1.7c0.3-0.8,0.8-1.3,1.4-1.7c0.9-0.3,1.7-0.4,2.6-0.2c1.6,0.6,2.3,1.7,2.2,3.5
			l-0.5,3.2l-2.2,5.6l-3.7,8.1l1-0.8l4.5-4.3c2.9-3.2,5.9-6.1,9-8.6c4.7-4,8.8-5.8,12.3-5.5c0.9,0.1,1.7,0.5,2.6,1.2
			c1.1,1.1,1.6,2.3,1.6,3.7c0,1-0.2,2.1-0.6,3.4c-0.4,1.3-0.8,2.3-1.1,3.1c-0.3,0.8-0.9,2.1-1.8,4c-0.9,1.9-1.6,3.7-2.2,5.3
			c-0.3,0.8-0.5,1.6-0.5,2.5c0,1.1,0.3,1.8,1,2c0.6,0,1.2-0.1,1.6-0.2c0.6-0.1,2.1-0.5,4.3-1.2c4.3-1.5,9.1-4.1,14.6-7.6
			c5.4-3.5,10.4-7.5,15-11.8c0.6-0.7,1.4-1,2.2-1c1,0,1.8,0.4,2.4,1.2C631.9,452.9,632.2,453.6,632.2,454.5z"/>
		<path class="st0" d="M634.9,469.1c-0.3,2.9,0.5,5.2,2.6,6.8c1.2,1.2,3,1.8,5.4,1.8c2.8,0,5.8-0.8,9-2.3
			c10.9-4.9,21.5-13.3,32-25.3c0.6-0.8,1.4-1.2,2.4-1.2c0.7,0,1.5,0.3,2.2,0.8c0.7,0.8,1.1,1.7,1.1,2.7c0,0.9-0.3,1.7-1,2.3
			c-10.9,12.6-22.2,21.7-34.1,27.1c-3.9,1.8-7.8,2.7-11.7,2.7c-3.9,0-7.1-1.1-9.6-3.2c-3.4-3.1-5.1-6.8-5.1-11.1
			c0-2.2,0.4-4.3,1.1-6.3c1.4-4.2,3.8-8.1,7.4-11.7c3.5-3.6,6.9-5.9,10.2-6.9c2.1-0.6,3.9-0.8,5.3-0.8c1.4,0,2.6,0.2,3.7,0.5
			c2.2,0.7,3.8,1.9,4.8,3.8c0.5,0.9,0.8,1.9,0.8,3.2c0,1.3-0.4,2.7-1.1,4.2c-1.8,4-5.1,7.2-9.9,9.6c-2.6,1.2-5.2,2.1-8,2.6
			C639.7,468.9,637.2,469.1,634.9,469.1z M654.8,452c-0.3-0.1-0.7-0.2-1.3-0.3c-0.5-0.1-1.1-0.2-1.8-0.2c-1.1,0-2.1,0.2-3,0.5
			c-1.9,0.6-3.9,1.8-5.9,3.7c-2,1.9-3.8,4-5.3,6.5c4-0.4,7.4-1.3,10.1-2.7c3.3-1.5,5.6-3.7,6.9-6.3l0.3-0.8V452z"/>
		<path class="st0" d="M784,457.3c0,1.4-0.6,2.5-1.9,3.3c-9.7,4.7-19.8,8.4-30.4,11.2c-10.6,2.8-22.8,5.6-36.6,8.2v0.7
			c0,1.3-0.4,2.9-1.1,4.8c-1.6,3.3-4.1,5.9-7.4,7.7c-3.4,1.8-7,2.8-10.8,2.9c-1.2,0-2.4-0.2-3.8-0.5c-1.3-0.3-2.5-0.8-3.4-1.3
			c-1.9-1.2-2.9-2.9-2.9-5c0-2.3,0.9-4.5,2.6-6.4c1.7-1.9,4-3.6,6.9-4.9c2.8-1.3,6.2-2.4,10.2-3.2l-0.5-0.5
			c-1.1-1.1-2.7-2.5-4.8-4.3c-0.5-0.4-1.5-1.3-3-2.6c-1.4-1.3-2.5-2.4-3.1-3.4c-2.3-3.3-3.5-6.5-3.5-9.6c0-1.3,0.2-2.5,0.6-3.5
			c1-2.1,2.5-3.8,4.6-5c2-1.1,4.1-1.7,6.2-1.7c4.3,0,8.6,1.7,13.1,5.2c2.7,1.8,4.5,4,5.4,6.6l0.2,1.2c0.1,0.2,0.2,0.5,0.2,0.8
			c0,1.4-0.7,2.5-2.1,3.3c-0.7,0.3-1.4,0.4-2.1,0.2c-0.4-0.1-1-0.4-1.6-0.8c-0.2-0.4-0.4-1.1-0.6-1.8c-0.2-0.8-0.3-1.3-0.4-1.7
			c0,0.1,0,0.3,0,0.5c0,0.2,0.1,0.4,0.2,0.7c-0.6-1.3-1.7-2.4-3-3.3c-2.2-1.8-4.4-2.9-6.6-3.5c-0.9-0.3-1.7-0.5-2.6-0.5
			c-0.9,0-1.9,0.3-3.2,0.8c-1.3,0.8-1.9,1.8-1.9,3c0,1.2,0.7,2.9,2.2,5.2c0.7,0.9,2.5,2.5,5.3,5c3.4,2.9,5.8,5.2,7,6.8l1.3,1.5
			c14-2.7,26.1-5.4,36.5-8.1c10.4-2.8,20.3-6.4,29.8-11c0.6-0.2,1.1-0.3,1.4-0.3c1.3,0,2.3,0.7,3,2L784,457.3z M708.3,481.4
			c-3.9,0.6-7.5,1.5-10.7,3c-1.5,0.8-2.7,1.5-3.5,2.1c-0.9,0.6-1.4,1.3-1.8,2.1c0.6,0.3,1.1,0.5,1.3,0.5c1,0.2,1.6,0.3,1.9,0.2
			c2.6,0,5-0.6,7.3-1.7c2.3-1.2,4-2.9,5.2-5.1C708.2,482,708.3,481.7,708.3,481.4z M717.4,454.9c0.4,0,0.9,0.1,1.3,0.3
			C718.5,455,718.1,454.9,717.4,454.9z"/>
	</g>
	<g>
		<g>
			<g>
				<path class="st0" d="M117,315.8c0-0.6-0.2-3-0.5-5.4c-2.8-26.3-8.7-92.9-11.3-119.3l-0.3-3.1L99.7,199
					c-11.3,23.9-17.8,41.7-24,44.4c-17,7.3-19.9-21.2-20.1-39l0-3.9l-3.5,7.1c-1.9,3.9-6.4,15.5-10.6,24.4
					c-19.7,41.3-27.5,65.5-30.8,66.9c-5.2,2.2-8-4.4-4-7.8c2.4-2.1,8.1-23.8,25.2-63.4c12.4-28.7,16.7-46.3,19.6-50.1
					c3.1-4.1,8.3-5.2,11.9-2.5c3.4,2.6,4.2,5.7,4.8,19.9c0.7,14.3,3.7,25.8,3.7,34c0,0.7,1.7-1.7,5.1-7.3
					c3.8-6.3,21.8-50.8,23.7-53.2c4.2-5.3,11.5-4.5,14.3,1.7c2.4,5.2,10.3,119,10.3,143.6c0,3.5-1.3,5.9-4.1,5.9
					C119.5,319.6,117,317.4,117,315.8z"/>
			</g>
			<g>
				<path class="st0" d="M172.4,237.6c12.3-2.8,20.4,15,19.2,29.4c-0.2,2.9-0.2,3.8,0.3,4c2.6,1,15.4,0.9,22.1-0.3
					c2.8-0.5,3.6-0.5,4.5,0.2c13.1,8.5-28.1,10.6-30.2,10.5c-5.8,14.2-19.8,28.4-31.1,13.4c-6.9-9.1-5.9-23.2,2.5-37.6
					c1-1.6,1.8-3.7,1.9-5C162.4,244.5,166.9,238.8,172.4,237.6z M164.3,270.8c-1.6,6.3-1.2,11.6,1,14.9c4.3,6.2,7.7-2.1,9.2-5.4
					l1.3-3l-3.6-2.5c-2-1.4-4.4-3.5-5.4-4.7L165,268L164.3,270.8z M176.5,262.7l1.5,2c0.1-3-0.1-5.6-1.4-9.1l-1-2.7
					C174.1,255.2,173.6,258.8,176.5,262.7z"/>
			</g>
			<g>
				<path class="st0" d="M244.4,259.6c-1.1,3.1-1.1,3.1-0.2,1.8c1.8-2.4,6.5-7.1,8.4-8.5c21.5-14.9,23.7,23.7,29.8,35.7
					c5.4,10.8,16.8-9.8,19.1-14.8c1.2-2.6,2.6-5.1,3-5.4c5-4.2,7.1,2.7,5.2,8.3c-4.8,14.3-14.2,29.8-27,26.8
					c-11.2-2.6-13.7-12.9-17.8-27.1c-2.6-8.9-3.6-11.8-4.3-12.3c-5-3.1-16.2,13.9-18.9,19.3c-4.5,9-6,16.3-9.5,16.3
					c-4,0-6.7-2.8-7.2-7.5c-1-10.1,17.8-62.6,25.5-54.9C254.3,241.2,245.7,256,244.4,259.6z"/>
			</g>
			<g>
				<path class="st0" d="M346.6,218.3c0.1,0.1,1.5-0.1,3.3-0.4c7.9-1.1,22.6-2.2,22.6,3.9c0,5.9-17.3,8.5-23.8,9.8
					c-3.6,0.8-6.6,1.5-6.7,1.6c-1.1,1.1-14,55.2-17.5,73.2c-0.6,3.4-2.8,6.9-6.5,4.8c-1.8-1-2.1-2.3-2.1-8.3
					c0-18.8,3.5-40.1,10.1-61.2c1-3.1,1.7-5.7,1.7-5.8c-2.1-2.1-10.9,8.2-14.4,3.6c-5.3-6.8,10.7-14.7,17.2-17.1l2.9-1l3.4-6.9
					c5.4-10.9,9.1-15.6,12.8-16.7c7.4-2.2,8.3,10.1,2.8,10.1C350.5,208,345.8,217.6,346.6,218.3z"/>
			</g>
			<g>
				<path class="st0" d="M389.7,240.8c4.8,0.2,8.3,3.3,9.2,9.3c2.1,13-18.1,34.1-28.6,30.1c-2-0.8-1.4,12.5-1.1,13.9
					c4.6,20.3,28.1-2.6,35.9-13.4c2.9-3.9,5.3-10.7,6.6-10.7c11.3,0-5.3,23.4-9,27.8c-9,10.6-20.7,19-29.7,17.3
					c-10.8-2.1-18-12.9-18-26.9c0-14.1,6.5-28.4,17.8-39.2C378.9,243.3,384.9,240.6,389.7,240.8z M372.6,272.7
					c3.4,0,10.2-9.4,11.9-12.3c1.9-3.2,3.4-6.9,2.7-6.9C383.6,253.5,371.3,272.7,372.6,272.7z"/>
			</g>
			<g>
				<path class="st0" d="M552.4,212.2c-7,10.4-46.2,40.2-69.3,47.9c-1.2,0.4,6,11.2,12.4,18.7c8.8,10.3,27.8,28,45.9,42.8
					c5.9,4.9,6.7,5.9,5.7,8.3c-1.2,3-3.5,3.1-8.7,0.4c-21.7-11.4-41.2-28.5-53.3-47c-3.4-5.2-8.3-14.4-9.3-17.4
					c-0.9-2.9-7.2-0.3-9.3,1.6c-0.1,0.1-0.9,4.4-1.8,9.7c-2.2,12.6-4.5,28.4-5.3,37c-0.7,7.5-2.9,15.3-9.7,10.7
					c-1.8-1.2-3-3.6-4.7-9.7c-1.7-6.1-9.3-32.3-15.2-52.7c-9.4-32.3-11.8-44-11.1-56.7c1.4-29.7,33.2-45,65.3-44.7
					C515.2,161.3,575.1,178.5,552.4,212.2z M433.5,197.5l-1.8,3.6l-1,8.4c0,12.6,2,17.6,11.4,52c2.6,9.4,5.7,21,7,25.8
					c1.8,6.9,2.4,8.4,2.6,7.5c0.1-0.3,4.6-23.1,4.6-23.7c0-0.2-0.6-0.4-1.3-0.4c-1.8,0-3.4-1.7-3.4-3.6c0-3.9,6.3-3.3,7-6
					c1.1-4.5,10.7-52.8,9.2-57.5c-1.4-4.1,3.6-9.6,7.4-6c2.1,2,1,20.7-4.3,47.9c-1.2,6-2.1,11.1-2.1,11.4c0,0,21.6-10.4,28.7-14.6
					c17.8-10.6,33.2-22,41.5-30.9c13.1-14,9.5-19.3-7-27.3C500.4,169,447.8,168.8,433.5,197.5z"/>
			</g>
			<g>
				<path class="st0" d="M596.9,247.6c14.5-10.3,12.5,17.6,17.1,23.5c6.7,8.8,25.1,7.9,34.4,1.6c3.7-2.5,7.2-1.2,7.2,2.7
					c0,1.6-0.3,2.1-1.8,3.6c-14.4,14-43.5,11.6-52.6-5.5l-1.1-2.1l-3.9,5.8c-5,7.4-9.8,12.9-14.5,16.7c-10.9,8.8-27.9,14.5-31-0.8
					c-2.7-13.7,17.8-41.1,35.1-46.8c3.5-1.2,6.1-1.3,9,0.2L596.9,247.6z M565,281.9c-0.7,1.6-3.1,8.1-1,7.5
					c9.8-3,18.2-14.2,25.5-27.1c3.5-6.2,0.9-3.6,0.9-7.6c0-1.4-1.4-0.3-3.7,0.9C579.2,259.6,569.6,271.2,565,281.9z"/>
			</g>
			<g>
				<path class="st0" d="M677.6,259.6c-1.1,3.1-1.1,3.1-0.2,1.8c1.8-2.4,6.5-7.1,8.4-8.5c21.5-14.9,23.7,23.7,29.8,35.7
					c5.4,10.8,16.8-9.8,19.1-14.8c1.2-2.6,2.6-5.1,3-5.4c5-4.2,7.1,2.7,5.2,8.3c-4.8,14.3-14.2,29.8-27,26.8
					c-11.2-2.6-13.7-12.9-17.8-27.1c-2.6-8.9-3.6-11.8-4.3-12.3c-5-3.1-16.2,13.9-18.9,19.3c-4.5,9-6,16.3-9.5,16.3
					c-4,0-6.7-2.8-7.2-7.5c-1-10.1,17.8-62.6,25.5-54.9C687.5,241.2,678.9,256,677.6,259.6z"/>
			</g>
			<g>
				<path class="st0" d="M791.8,251.9c-1.4-1.1-3.2-1-7.3,0.5c-9.1,3.4-25.9,18.4-24.8,31.7c0.7,8.8,12.9,7.8,20.6,5.2
					c8-2.7,24.8-11.4,37.2-19.3c5.8-3.7,10.1-4.6,10.1,1c0,2.1-0.8,3-7.7,8.7c-14,11.6-30.2,21-40.9,23.8
					c-17.8,4.7-31.8-2.8-32.5-18.3c-1-21,18.7-36.1,33.9-41.3c3.7-1.3,11-2.2,14.5-0.5C801.4,246.7,797.6,256.4,791.8,251.9z"/>
			</g>
			<g>
				<path class="st0" d="M855.9,237.6c12.3-2.8,20.4,15,19.2,29.4c-0.2,2.9-0.2,3.8,0.3,4c2.6,1,15.4,0.9,22.1-0.3
					c2.8-0.5,3.6-0.5,4.5,0.2c13.1,8.5-28.1,10.6-30.2,10.5c-5.8,14.2-19.8,28.4-31.1,13.4c-6.9-9.1-5.9-23.2,2.5-37.6
					c1-1.6,1.8-3.7,1.9-5C845.9,244.5,850.4,238.8,855.9,237.6z M847.7,270.8c-1.6,6.3-1.2,11.6,1,14.9c4.3,6.2,7.7-2.1,9.2-5.4
					l1.3-3l-3.6-2.5c-2-1.4-4.4-3.5-5.4-4.7l-1.8-2.2L847.7,270.8z M860,262.7l1.5,2c0.1-3-0.1-5.6-1.4-9.1l-1-2.7
					C857.6,255.2,857.1,258.8,860,262.7z"/>
			</g>
		</g>
		<g>
			<g>
				<g>
					<path class="st0" d="M601.8,6.3c4.1-2.2,9.3-4.3,13.8-2c5.4,2.8,10.2,6.7,15.5,9.7c5.1,3,10.8,4.9,15.1,9
						c5.6,5.3,6.9,13.6,12.6,18.8c5.4,4.9,12.2,7.8,18.9,10.5c9.2,3.6,18.1,7.9,26,14c5.8,4.5,12,8.3,18.2,12.3
						c4.4,2.8,7.7,7,10.6,11.3c-5.1-3.2-11-4.9-16.1-8c-7.2-3.9-14.2-8.3-21.4-12.2c-11.6-6.2-25.1-7.4-36.4-14.1
						c-5-2.8-9.4-6.7-12.4-11.5c-2.5-3.8-3.9-8.2-5.9-12.3c-2-4.2-6.4-6.3-9.9-9c-5.9-4-10.4-9.5-15.6-14.4
						c-14.3,23.8-31.8,45.4-48,67.9c-5.1,7.4-11.2,14.1-16.9,21c1.5-5.7,3.7-11.1,6.4-16.4c-5,5.4-10.2,10.7-16.4,14.9
						c4-6,7.1-12.6,11.2-18.5c6.2-9.2,12.6-18.3,18.8-27.6c-7.2,6.5-14,13.5-21.7,19.3C543.1,73,538,76.9,533,80.8
						c6.4-8.5,12.9-16.9,20.1-24.7c-7.8,5.9-15.9,11.5-24.4,16.3c4.4-5.3,9.2-10.2,14.1-15c-8.8,6-17.9,11.8-27.3,16.8
						c4.9-4.7,9.6-9.8,15-14c5.8-4.6,11.9-8.8,17.7-13.2c-4.1-0.8-7.9-2.7-10.6-6c-2.9,1.9-5.8,3.8-8.3,6.1
						c-0.8,0.3-1.5,0.6-2.2,0.9c1.1,1.5-0.5,2.3-1.3,3.2c-1.9,1.7-3.8,3.4-5.4,5.5c-0.5-0.5-0.9-0.9-1.4-1.3
						c2.8-1.6,5.2-3.9,7.3-6.4C509.8,58.8,494.4,72.2,475,76c5.7,4.2,11.5,8.2,18,10.9c5.1,2.1,9.7,5,14.2,8.2
						c-14.2-0.7-26.8-7.9-39.6-13.3c-11.2-5-23.8-1.6-35.5-3.6c-10.5-1-19.2-7.6-29.3-10.2c-9.6-2.5-19.2-5.5-28.1-10.1
						c-8.2-4.4-14.4-11.5-21.9-16.9c-3.5-2.6-6.8-5.4-10-8.3c-5.3,11.3-9.9,23-16.1,33.9c-7.7,13.3-15.3,26.7-25.9,38
						c4.9-10.7,10.8-20.8,15.7-31.4c-6.2,9.5-13.6,18.1-21.2,26.4c4.7-11.1,10.6-21.7,17-31.8C301.3,79.9,291,93,278.4,103.8
						c5.6-10.2,12.5-19.6,19.4-29c-7.1,6.3-15,11.5-23.1,16.4c3.5-4.6,6.9-9.3,10.2-14c-6.7,5.2-13,10.8-19.6,16.1
						c-5.9,4.7-12.4,8.4-18.3,13.1c4-5.3,8.9-9.9,12.4-15.5c7.9-7.8,16.9-14.3,24.8-22C267,79.6,251.2,92.7,235,104.9
						c-14.2,10.4-28.4,20.7-42.9,30.7c-8.6,6-17.8,11.2-27.3,15.7c-3.5,1.6-6.8,3.5-10,5.5c4.7-6.4,12.3-9.2,18.6-13.6
						c18.8-12.4,36.4-26.5,53.9-40.7c14-11.9,27.7-24.3,42.8-34.9c13.2-9.3,26.4-18.4,39.7-27.5c8-5.2,16-10.6,24.8-14.2
						c3.4-1.3,7.8-2.3,10.5,0.8c6.8,7.1,15.1,12.4,22.4,18.9c10.7,9.3,25.3,9.9,38.5,13c9.3,1.7,17.2,7.8,26.7,8.5
						c11.7,0.9,24,0.1,35.1,4.7c16.8-4.2,30.5-15.1,44.6-24.6c6.5-4.4,12.8-9.1,19.3-13.4c2.9-1.6,6.3-3.9,9.7-2.5
						c3.7,1.5,3.9,7.5,8.6,7.3c6.5-0.5,11.8-4.8,17.1-8.3C578.4,22.1,589.3,13.1,601.8,6.3"/>
				</g>
			</g>
			<g>
				<g>
					<path class="st0" d="M607.4,29.8c2.3-3.5,5.1-6.8,8.4-9.5C604,39,592.2,57.8,580.4,76.6C587.5,60,597.4,44.7,607.4,29.8"/>
				</g>
			</g>
			<g>
				<g>
					<path class="st0" d="M604.3,45.7c2.6-3.5,4.7-8.5,9.6-9c-0.8,5.5-4.8,9.5-7.6,14.1c-4.6,7.2-10.1,13.8-15.5,20.4
						C595,62.5,598.8,53.6,604.3,45.7"/>
				</g>
			</g>
			<g>
				<g>
					<path class="st0" d="M530.3,50.2c3.4-2.3,7-5.8,11.5-4.6c0.1,0.5,0.2,1.5,0.3,2.1c-10,7.8-20.3,15.4-31,22.3
						C517.4,63.4,522.7,55.6,530.3,50.2"/>
				</g>
			</g>
			<g>
				<g>
					<path class="st0" d="M333.2,68.6c2.8-4.8,4.9-10.4,9.8-13.6c-0.9,5.1-3.9,9.5-6,14.2c-5.8,11.1-11.2,22.6-19,32.6
						C321.7,90.2,327.5,79.3,333.2,68.6"/>
				</g>
			</g>
			<g>
				<g>
					<path class="st0" d="M516.8,59.2c-1.6-1.1,1-2.6,1.9-1.5C518.2,58.1,517.3,58.9,516.8,59.2"/>
				</g>
			</g>
			<g>
				<g>
					<path class="st0" d="M592.7,75.1c4.7-5.1,9.1-10.5,14.1-15.3C603.5,66,598.1,70.7,592.7,75.1"/>
				</g>
			</g>
			<g>
				<g>
					<path class="st0" d="M346,68.5c-2.1,10.1-8.5,18.7-12.6,28.1C336.2,86.6,340.7,77.3,346,68.5"/>
				</g>
			</g>
			<g>
				<g>
					<path class="st0" d="M348.1,87.5c0.8,1,1.7,2.2,1.1,3.5c-1,4.1-3.2,7.9-5.1,11.7C345.4,97.6,347,92.7,348.1,87.5"/>
				</g>
			</g>
			<g>
				<g>
					<path class="st0" d="M382.6,53.2c3.8,2.1,7.8,4,11.9,5.8c2.2-3.4,4.4-7,6.4-11.2c4.6,4.7,8.6,11.2,12.5,18.2
						c1.5,0.5,2.9,0.9,4.4,1.4c-3.6-8.3-7.6-15.8-11.7-22.8c-2-3.4-4.3-6.3-6.8-7.7c-1-0.6-2.1-1-3.2-1.2c-3.4,3.7-6.6,8.4-9.9,12.3
						c0.5-0.1,1-0.2,1.6-0.4C385.9,49,384.2,51,382.6,53.2"/>
				</g>
			</g>
		</g>
	</g>
</g>
</svg>
