<svg id="a05fa889-bf17-4c89-bf5f-9b21e0b397a2" data-name="Layer 1" xmlns="http://www.w3.org/2000/svg" viewBox="0 0 1080 1080"><defs><style>.f38befe2-8384-486c-9409-5fe529659e4c{fill:#fff;}</style></defs><title>01 LOGO MONVEL - E</title><path class="f38befe2-8384-486c-9409-5fe529659e4c" d="M275.4,433.8l.9,1.8c8.2-1.5,16.4-2.8,24.5-4.7a11,11,0,0,0,6.3-4.9c38.8-74.3,98.7-121.3,180.7-139.2,52.4-11.3,103.6-6,153.2,14.4a258.9,258.9,0,0,1,72.2,45c1.7,1.5,4.1,3.5,5.9,3.3,9.1-1.4,18.1-3.4,27.2-5.2l.3-1.8c-71.8-69.2-157-99.8-256.1-81.9C388,279,317.8,340,275.4,433.8m41-7.5.8,1.5,261.4-50.7q35.9,87.4,71.4,174.5l1.5-.5V363l54.7-11c-54.6-48.9-140.5-77.4-227.8-54.4-72.8,19.2-126,63.3-162,128.7M111.3,476.4c-.5-2.9-1-5.2-1.5-8.2l33.5-6.5c36.2-7.1,72.3-14.6,108.6-20.9,9.8-1.7,14.3-5.8,18.1-14.6,30.6-70.5,81-122,151.3-153.5,55.7-25,113.9-31.5,173.7-20.4,62.6,11.6,115.9,41.2,160.1,87a8.2,8.2,0,0,0,6,2.2l113.4-22.1,37.5-7c.6,2.7,1.2,5.2,1.9,8.2L661,369.8c0,15,.1,29.8,0,44.6-.1,52.5-.3,104.9-.3,157.4a29.2,29.2,0,0,0,1.9,10.1,197.5,197.5,0,0,0,11.7,25.3c.1-1.8.3-3.6.3-5.3q0-70.8.1-141.6c.1-25,.3-50.1.1-75.1,0-4.1,1.3-5.7,5.3-6.5q68.1-12.9,136.1-26.2L913,333.7l3.2-.5c.6,2.5,1.1,4.9,1.9,8.1-10.3,2.1-20.2,4.2-30.1,6.1L802.5,364l-86.1,16.6c-8.9,1.7-17.8,3.8-26.9,5.1-4.2.7-5.1,2.4-5.1,6.5q-.3,109.4-1,218.8c-.1,8.4-.1,8.4-8.5,9.9l-6.2.9c-3.7-9.1-7.4-18.4-11.2-27.6q-41.7-101.4-83.3-202.7c-1.4-3.4-2.7-4.5-6.8-3.6-38.3,7.6-76.7,14.9-115.1,22.4L313.1,437.5c-38.3,7.5-76.7,14.8-115.1,22.2l-79.6,15.5-7.1,1.2"/><path class="f38befe2-8384-486c-9409-5fe529659e4c" d="M334.9,735.3a19.4,19.4,0,0,1-.5,2c77.2,73.5,167.9,102.6,273.1,78.6S782.5,709.5,805.2,644c-5.7,1.1-11.2,2.6-16.8,3-8.5.8-13.1,4.6-17.4,12.5-39.7,72.6-100.2,117.6-181.3,134.2-44.3,9.1-88,5.8-130.9-8.2A261.2,261.2,0,0,1,367.2,733c-1.6-1.3-4.1-2.9-5.9-2.6-8.8,1.3-17.6,3.2-26.4,4.9m430.2-83.6L375.4,727.5c111,102.5,310.1,79.6,389.7-75.8M969,603.3l1.2,8.5-46,9.1-88.1,17.2c-5.2,1-10.5,1.6-15.6,3a8.5,8.5,0,0,0-5.3,4.3c-37.1,88.7-101,148.8-193.7,175.2-90.4,25.9-175.2,10.6-252.3-43.3-15.7-10.9-29-25-43.7-37.4-1.5-1.3-4.6-1.8-6.7-1.4l-86,16.7-59.7,11.6-5.3.7-1.6-8.2L969,603.3"/><path class="f38befe2-8384-486c-9409-5fe529659e4c" d="M550.6,644.8c-1.7-8.9-3.4-17.3-5-25.7-3.9-20-7.8-40.1-11.9-60.2a13.6,13.6,0,0,0-2.5-5.9c-12-15-24.2-29.8-36.4-44.7l-2.4-1.7c9.4,48.5,18.6,95.8,27.8,143.7l-9,2.5c-2.1-10.3-4.1-20-6-29.8-6.4-32.6-12.7-65.3-19-97.9-1.8-9.4-3.8-18.7-5.3-28a25.7,25.7,0,0,0-6.8-14c-4.2-4.5-7.8-9.4-11.7-14.1l-1.3.6C473,531.2,484.9,592.7,497,654.8l-9.2,2.4q-20.1-103.2-40-205.8c9.1-3.4,9.1-3.4,14.3,3l61.1,74a26.5,26.5,0,0,0,5.1,4.9c-2.5-11.9-1.8-24.3-11.1-34.5-14-15.4-26.6-32-39.8-48.1-1.2-1.4-2.2-2.8-3.3-4.3,8.5-3.6,8.4-3.6,13.8,2.9l27.7,33.3c1,1.2,2.2,2.3,4.2,4.5-3.2-16.9-6.1-32.5-9.1-48.5l9.1-1.9c13.3,68.5,26.6,136.9,40.1,206l-9.3,2.1"/><path class="f38befe2-8384-486c-9409-5fe529659e4c" d="M163.5,746.3c-.5-2.9-.9-5.2-1.5-8.4L964.6,582c.7,2.8,1.2,5.2,1.9,8.3l-803,156"/><path class="f38befe2-8384-486c-9409-5fe529659e4c" d="M751.9,582.3c.9,4.5,1.8,8.7,2.7,13.4l12.8-2.7c-2.1-15.7-.4-13.9-15.5-10.7m-45-182.1,80.8-15.6,2,8.8-71.9,14c5.1,26.4,10.1,52.3,15.2,78.9l13.6-3c-4.2-21.8-8.2-42.9-12.4-64.8l57.9-11.2c.6,3.3,1.1,5.8,1.8,9L745.3,426c3.6,18.5,7,36.7,10.7,55.8l48.7-9.3c.5,2.8,1.1,5.5,1.7,8.7l-71.5,14.2c5,25.8,9.9,51.4,15,77.6l13.5-2.9c-4-21.5-8-42.4-12.1-63.8l57.6-11.2L811,504l-48.7,9.6c3.6,18.5,7,36.3,10.6,54.8l48.7-9.4c.6,3.1,1.1,5.7,1.8,9l-48.5,9.6c.9,4.6,1.7,8.8,2.7,13.7l48.6-9.3c.6,3,1,5.6,1.6,8.8L747,606.7c-13.3-68.8-26.6-137.3-40.1-206.5"/><path class="f38befe2-8384-486c-9409-5fe529659e4c" d="M243.1,704.4l-8.7,1.8-6.7-34.6L213,596.2a8.4,8.4,0,0,0-1.1-3.6,211.5,211.5,0,0,0-18.1-21.2c8.8,45.6,17.6,91.2,26.6,137.4l-8.8,1.6C200.2,652,189,594.2,177.8,536.3l1.2-.6c20.4,25.8,40.7,51.7,62,78.6l28.2-98h1.2c11.4,58.5,22.8,116.9,34.2,175.9l-9.1,2.3c-9.1-46.6-18.1-92.9-27.2-139.6-8.1,16.8-8.2,33.3-4.1,50.8,6.7,28.4,11.6,57.3,17.1,86,1.1,5.5.4,6-9,6.4L254,604.4h-1.3c-2.6,9.3-5.1,18.6-8,28.9-6.5-7.9-12.5-15.4-18.5-22.8l-1.1.3c5.9,31,11.9,62,18,93.7"/><path class="f38befe2-8384-486c-9409-5fe529659e4c" d="M558.5,411.4,115.1,497.5c-.5-3.1-.9-5.4-1.4-8.4l27.4-5.6,121-23.5,83.3-16.1L454,422.6l103.8-20.2c4.1-.8,6,.1,7.6,4.2q29,70.5,58.1,140.8C634,572.7,644.4,598,655.1,624l-8.9,2.3q-44-107.5-87.7-214.9"/><path class="f38befe2-8384-486c-9409-5fe529659e4c" d="M867.1,559.9c1,4.7,1.9,9.1,2.9,13.6l7.1-1.2c2.1-.4,4.1-1,6.3-1.5-.9-4.9-1.7-9.1-2.5-13.6-2,.3-3.5.4-4.9.7s-5.6,1.3-8.9,2M822.6,378.1l8.7-1.7c11.3,58,22.5,115.7,33.9,174.4l14-2.6c-11.3-58.2-22.5-116-33.9-174.6L854,372c11.4,58.2,22.6,116,34,174.5l58.4-11.2c.6,2.7,1.2,5.3,2,8.4l-58.5,11.6c.9,4.8,1.8,9.2,2.7,13.9L950.9,558c.5,2.9,1,5.4,1.6,8.6l-89.9,17.6c-13.4-68.9-26.7-137.1-40-206.1"/><path class="f38befe2-8384-486c-9409-5fe529659e4c" d="M381.9,668.2c26.9-.2,44.6-21.3,39.6-46.7q-11.1-55.2-21.7-110.7c-4.9-26-32.5-40.3-55.8-28.7-15.6,7.8-24,25.9-20.5,44q11,55.6,21.7,111.3c3.5,18,18.8,30.9,36.7,30.8M362,469.3c23.1,0,41.6,16.2,46.5,40.8q10.8,55,21.5,110.1c5,25.7-8.2,47.1-33.6,55-23.2,7.1-48.1-4-56.7-26.8-3.9-10.3-5.3-21.5-7.4-32.5-6-30-12.1-60.1-17.5-90.3s16.6-56.3,47.2-56.3"/><path class="f38befe2-8384-486c-9409-5fe529659e4c" d="M533.8,433.9l9.2-1.7c13.4,68.6,26.7,137,40.1,205.9l-9.2,2.5c-13.4-69-26.7-137.5-40.1-206.7"/><path class="f38befe2-8384-486c-9409-5fe529659e4c" d="M231.6,565.7c2.6-9,5.1-17.3,7.5-25.7,4.3-14.9,8.9-29.7,12.6-44.7,1.6-6.5,4.7-8.9,11.6-8.1-9.2,32.4-18.4,64.7-27.9,98.4l-63.5-80.9c5.8-2.4,9.5-2.4,13.3,2.6,14.3,18.8,29.1,37.1,43.8,55.5.6.8,1.4,1.6,2.6,2.9"/><path class="f38befe2-8384-486c-9409-5fe529659e4c" d="M344.9,520.6c.8,4.5,2.2,11.5,3.5,18.4,6.2,31.4,12.2,62.7,18.5,94,2,9.7,9.8,14.6,19,12.7s14.6-9.3,13-18.9c-1.4-8.1-3.1-16.1-4.7-24.2-5.8-29.5-11.5-59.1-17.4-88.6-1.9-9.1-8.8-13.6-17.7-12.4s-14.5,7.6-14.2,19m-8.8-1.9c0-15.3,9.3-24.8,24.1-26A25.2,25.2,0,0,1,386.8,513q10.5,54.9,21.3,109.7c3,15.2-4.8,28.3-19.1,31.2-16,3.3-27.9-4.5-31.1-20.4q-10.6-54.9-21.2-109.7c-.4-2.2-.5-4.3-.6-5.1"/></svg>