<svg id="f0d2520d-4987-463d-80c3-da50ff3385b2" data-name="Layer 1" xmlns="http://www.w3.org/2000/svg" viewBox="0 0 1080 1080"><defs><style>.e188afdd-19a5-44c5-a0e5-f3aa99dc5145{fill:#fff;}</style></defs><title>LOGO UNION PREMIERE</title><path class="e188afdd-19a5-44c5-a0e5-f3aa99dc5145" d="M329.6,905.4,317,898.2V816.8c0-8.5.6-16.3-6.3-17-4.4-.3-9.4-.3-14.7-.3-15.8,0-16.1.3-16.1,15.7v139c0,14.4-2.2,28.2-16.3,30.8-11.3,1.5-17.6-10.1-17.9-18.3-.3-3.4-.3-7.5-.3-12.2V819.3c0-11.6,1.2-18.8-7.3-19.5-6.3-.6-24.2-.9-27.6,2.2-1.6,1.6-2.2,6.3-2.2,13.9v82.3l-12.6,7.2a4.5,4.5,0,0,0-2.8,4.4,4.6,4.6,0,0,0,2.8,4.4l12.6,7.3V962c0,7.2,1.2,16.4,3.7,27a46.8,46.8,0,0,0,6,12.3c17,22,42.8,26.4,69.2,17.3a13.5,13.5,0,0,0,5.3-3.2c16.7-13.2,25.1-28.9,24.5-47.4,0-10.7-.3-29.2-.3-46.2l12.9-7.6a4.4,4.4,0,0,0,2.5-4.4C332.1,907.6,331.5,906.4,329.6,905.4Z"/><path class="e188afdd-19a5-44c5-a0e5-f3aa99dc5145" d="M490.5,904.5l-12.3-7.2V814.6c0-7.2.7-15.1-5.9-15.4a122.1,122.1,0,0,0-15.1-.6c-15.4,0-16,.6-16,16,0-1.2,0,21.4-.4,68.2,0,10.4.4,11.3-1.5,17.3-.7,3.8-5.4,4.4-6.9.6a24,24,0,0,1-1.9-4.7c-3.2-11.3-14.8-50-19.8-66.6-.7-2.8-1.9-6.9-3.5-12s-3.1-9.7-3.8-11.9c-1.2-4.4-4-6.6-7.8-6.6H365.7c-7.2.3-6.6,7.9-6.6,17.6v80.8l-12.5,7.2c-1.6,1.3-2.6,2.5-2.6,4.7s1,3.2,2.6,4.4l12.5,7.2v79.6c0,10-1.2,17.9,8.5,19.1h11c17.6,0,17.9,0,17.9-16.9V934.4c0-6.6.3-11,1.3-13.6s5.6-4.7,7.5-.9l3.8,10.4c-.6-1.6,7.2,22.3,23.3,72.3l1.5,4.4a22.9,22.9,0,0,1,1.6,5c3.1,9.7,17.6,7.5,25.1,7.5,16.7,0,17.6-.6,17.6-17.3V920.8l12.3-7.2c1.9-1.2,2.8-2.5,2.8-4.4S492.4,905.8,490.5,904.5Z"/><path class="e188afdd-19a5-44c5-a0e5-f3aa99dc5145" d="M570,904.8l-12.6-7.2V817.4c0-10.6,1.3-17.6-7.2-18.5-6-.3-24.8-1-28,2.2-1.2,1.2-1.8,6-1.8,13.5v83l-12.6,7.2a4.7,4.7,0,0,0-2.8,4.4,4.4,4.4,0,0,0,2.8,4.4l12.6,7.2v81.1c0,8.8-1,16.7,7.5,17.3,3.1.3,7.5.3,13.5.3,15.4,0,16-.3,16-16V920.8l12.6-7.2a4.6,4.6,0,0,0,2.5-4.4A5,5,0,0,0,570,904.8Z"/><path class="e188afdd-19a5-44c5-a0e5-f3aa99dc5145" d="M723.4,905.1l-12.6-7.2V856.1c0-16.7-4.1-34.6-17.3-46.8a46.4,46.4,0,0,0-13.3-9.1l-14.7-25.5c-2.1-3.5-4.9-5.6-9.8-5.6a11.2,11.2,0,0,0-9.8,5.6l-14.6,25.4-2.8,1.9q-27.4,19.8-26.4,47.5c0,8.8.3,25.5,0,48.4l-12.6,7.2a4.9,4.9,0,0,0-2.5,4.7,4.6,4.6,0,0,0,2.5,4.4l12.6,7.3v45.9c0,10,1.5,18.2,5.3,25.1,20.1,37.7,72.3,40.2,97.1.3,1.6-2.8,2.9-5.3,3.2-8.2,2.5-12.8,3.4-21,3.4-24.5l-.3-38.6,12.6-7.3a4.6,4.6,0,0,0,2.5-4.4C725.9,907.6,725.3,906.1,723.4,905.1Zm-51.9,56c0,5-.6,9.1-1.9,11.9-5.6,12.6-23.8,12.3-28.9-.6-1.2-2.5-1.5-7.2-1.5-13.5V856.4a79.6,79.6,0,0,1,.3-10c2.2-16.1,25.4-18,30.5-2.6a39,39,0,0,1,1.5,11Z"/><path class="e188afdd-19a5-44c5-a0e5-f3aa99dc5145" d="M884.3,904.5,872,897.3V814.6c0-7.2.7-15.1-5.9-15.4a122.1,122.1,0,0,0-15.1-.6c-15.4,0-16,.6-16,16,0-1.2,0,21.4-.4,68.2,0,10.4.4,11.3-1.5,17.3-.7,3.8-5.4,4.4-6.9.6a24,24,0,0,1-1.9-4.7c-3.2-11.3-14.8-50-19.8-66.6-.7-2.8-1.9-6.9-3.5-12s-3.1-9.7-3.8-11.9c-1.2-4.4-4-6.6-7.8-6.6H759.5c-7.2.3-6.6,7.9-6.6,17.6v80.8l-12.5,7.2c-1.6,1.3-2.6,2.5-2.6,4.7s1,3.2,2.6,4.4l12.5,7.2v79.6c0,10-1.2,17.9,8.5,19.1h11c17.6,0,17.9,0,17.9-16.9V934.4c0-6.6.3-11,1.3-13.6s5.6-4.7,7.5-.9l3.8,10.4c-.6-1.6,7.2,22.3,23.3,72.3l1.5,4.4a22.9,22.9,0,0,1,1.6,5c3.1,9.7,17.6,7.5,25.1,7.5,16.7,0,17.6-.6,17.6-17.3V920.8l12.3-7.2c1.9-1.2,2.8-2.5,2.8-4.4S886.2,905.8,884.3,904.5Z"/><path class="e188afdd-19a5-44c5-a0e5-f3aa99dc5145" d="M465.5,349.2l.5-107.5a7.8,7.8,0,0,1,.6-3.1V228.5a45,45,0,0,1,45.1-44.6l42.7.2A44.9,44.9,0,0,1,599,229.2v17.9l74.9.4c-2.7-37.9-14.6-76.3-44-104-15.6-15-32.6-25.1-52.6-30.7L551.2,67c-4.9-7.5-9.9-10-17.4-10.1s-15,2.5-18.8,9.9l-25.5,43.9h-.2c-10.7,1.6-19.8,5.7-29.7,13-44.6,32-67.8,69.8-69.6,114v21.2h0l-.4,76.6h.3c-.1,12-.3,24.9-.5,38.7l-33,18.8c-5,3.2-6.6,6.5-6.7,12.3s1.6,8.2,6.6,11.5L389,435.9v18.5l76.6.4.5-103.4A5.4,5.4,0,0,1,465.5,349.2Z"/><path class="e188afdd-19a5-44c5-a0e5-f3aa99dc5145" d="M686.8,544.5c39.1-2.1,79.2-13.8,107.8-44.2,15-15.6,25.1-32.6,30.7-52.6l45.7-26c7.6-4.9,10.1-9.9,10.1-17.4s-2.4-15-9.9-18.8L827.4,360c0-.1,0-.1-.1-.2-1.5-10.7-5.6-19.8-13-29.7C780,282.3,739,259,690.5,260.4h-1.4l-90.2-.4v.2l-35-.5-18.8-33c-3.3-5-6.5-6.6-12.3-6.6s-8.2,1.6-11.5,6.5l-19.1,32.8H478.8l-.3,76.6,120,.6v.6l75.5.4V337l35.6.2a44.9,44.9,0,0,1,44.6,45l-.2,42.7a44.9,44.9,0,0,1-45.1,44.6H687.2Z"/><path class="e188afdd-19a5-44c5-a0e5-f3aa99dc5145" d="M465,544.4v-.3h35.7l18.8,33c3.2,5,6.5,6.6,11.5,6.7s9.8-1.6,12.3-6.6l19.1-32.8h20.4l.3-75.5-117.7-.6v-.5l-76.6-.4v.5H363.9a44.9,44.9,0,0,1-44.6-45.1l.2-42.7a45,45,0,0,1,45-44.6h12l.4-76.6c-23.9.4-43.7,4.5-60.7,13.6-38.6,20.4-63.2,53.5-72.7,90.3l-36.6,20.8c-7.5,5-10,9.9-10.1,17.4s2.5,15,9.9,18.8l39.6,23c10.6,32,33,61.9,67.8,83.8,7.4,4.2,14,7.5,21.4,8.4,23.8,4.7,41.4,7.4,52.9,8.6v.4Z"/><path class="e188afdd-19a5-44c5-a0e5-f3aa99dc5145" d="M549.3,731.3l23-39.5c32-10.7,61.9-33,83.8-67.9,4.2-7.3,7.5-13.9,8.3-21.3,5.5-27.4,8.3-46.6,9.1-57.7h.4l.4-75.5h-.7V437.3l33-18.7c4.9-3.3,6.6-6.6,6.6-11.5s-1.6-9.9-6.5-12.4l-32.8-19V350.5l-75.5-.4L597.8,469h-.6l-.4,75.5h.6v29.7a44.9,44.9,0,0,1-45.1,44.6l-42.7-.2a45,45,0,0,1-44.6-45.1V557.3l-76.6-.4c-.1,25.9,3.9,47,13.6,64.9,20.3,38.6,53.5,63.3,90.3,72.8l20.8,36.5c4.9,7.6,9.9,10.1,17.4,10.1S545.5,738.8,549.3,731.3Z"/></svg>