<?xml version="1.0" encoding="utf-8"?>
<!-- Generator: Adobe Illustrator 24.0.3, SVG Export Plug-In . SVG Version: 6.00 Build 0)  -->
<svg version="1.1" id="Layer_1" xmlns="http://www.w3.org/2000/svg" xmlns:xlink="http://www.w3.org/1999/xlink" x="0px" y="0px"
	 viewBox="0 0 1080 1080" style="enable-background:new 0 0 1080 1080;" xml:space="preserve">
<style type="text/css">
	.st0{display:none;}
	.st1{fill:#FFFFFF;}
</style>
<rect class="st0" width="1080" height="1080"/>
<g>
	<path class="st1" d="M65,451.8c24,0,43.4,19.4,43.4,43.4v30.9H21.6v-30.9C21.6,471.2,41,451.8,65,451.8z M65,468.6
		c-14.6,0-26.5,11.9-26.5,26.5v14.1h53v-14.1C91.5,480.5,79.5,468.6,65,468.6z"/>
	<path class="st1" d="M38.3,422.2h18.1v-26.5h16.9v26.5h18.1v-37.4h16.9v54.3H21.6v-54.3h16.9L38.3,422.2z"/>
	<path class="st1" d="M91.6,316.7h16.9v55.4H21.6v-16.9h69.9L91.6,316.7z"/>
</g>
<g>
	<path class="st1" d="M339,314.9v212.5h-41.3v-99.6l-37.9,99.6h-42.5l-37.9-99.6v99.6h-41.3V314.9h42.5l57.7,152.4l57.7-152.4H339z"
		/>
	<path class="st1" d="M565.8,421.3c0,58.6-47.5,106.1-106.1,106.1c-58.6,0-106.1-47.5-106.1-106.1c0-58.6,47.5-106.1,106.1-106.1
		C518.4,315.2,565.8,362.7,565.8,421.3z M524.3,421.6c0-35.7-28.9-64.5-64.5-64.5s-64.5,28.9-64.5,64.5s28.9,64.5,64.5,64.5
		S524.3,457.3,524.3,421.6z"/>
	<path class="st1" d="M728.7,314.9v212.5H685l-63.3-125.4v125.4h-41.3V314.9h43.8l63.3,125.7V315.2L728.7,314.9z"/>
	<path class="st1" d="M902.5,315.2v41.3h-59v171h-41.3v-171h-59v-41.3H902.5z"/>
	<path class="st1" d="M958.6,356.2v44.4h64.9v41.3h-64.9v44.4h91.5v41.3H917.4V315.2h132.8v41.3L958.6,356.2z"/>
</g>
<g>
	<path class="st1" d="M681.8,558.2v212.5h-41.3v-99.6l-37.9,99.6h-42.5l-37.9-99.6v99.6h-41.3V558.2h42.5l57.7,152.4L639,558.2
		H681.8z"/>
	<path class="st1" d="M881.6,770.7h-43.4l-8.7-26.4h-80.7l-9,26.4h-43.4l71.4-212.5h43.4L881.6,770.7z M815.6,703.1l-26.4-79.4
		l-26.7,79.4H815.6z"/>
	<path class="st1" d="M1052.6,771h-51.8l-45.6-60.8h-17.4V771h-41.3V558.5h75.1c36,0,67,25.1,74.5,60.2c7.4,35.1-10.9,70.4-43.8,85
		L1052.6,771z M971.3,668.6c18.9,0,34.4-15.5,34.4-34.4c0-18.9-15.5-34.4-34.4-34.4h-33.8v69.2h33.8V668.6z"/>
</g>
<g>
	<path class="st1" d="M400.4,773.1h-17.8l-3.6-10.8h-33l-3.7,10.8h-17.8l29.2-86.9h17.8L400.4,773.1z M373.4,745.5L362.6,713
		l-10.9,32.5H373.4z"/>
	<path class="st1" d="M461.9,756.4v16.9h-55.4v-86.9h16.9v69.9L461.9,756.4z"/>
</g>
<g>
	<g>
		<g>
			<path class="st1" d="M138,770.9H20L78.1,677L138,770.9z M39.4,760.1h78.9l-40.1-62.8L39.4,760.1z"/>
		</g>
		<g>
			<path class="st1" d="M274,770.9H68.8l105.6-158.1L274,770.9z M89,760.1h165.5l-80.3-127.4L89,760.1z"/>
		</g>
		<g>
			<path class="st1" d="M316,770.9h-93.4l45.3-96.1L316,770.9z M239.7,760.1h58.9l-30.3-60.6L239.7,760.1z"/>
		</g>
	</g>
	<g>
		<g>
			
				<rect x="31.1" y="751.2" transform="matrix(0.9136 -0.4065 0.4065 0.9136 -301.3332 89.3715)" class="st1" width="57.2" height="5.4"/>
		</g>
		<g>
			<polygon class="st1" points="88.5,765.5 83.1,765.5 83.1,730.8 69.8,714.2 75.5,686.6 80.8,687.7 75.6,712.8 88.5,728.9 			"/>
		</g>
		<g>
			<polygon class="st1" points="130.2,767.2 126,763.8 141.4,745.3 138.2,723.7 104.6,730.5 103.5,725.2 142.7,717.3 147.1,746.9 
							"/>
		</g>
		<g>
			<polygon class="st1" points="142.7,721.9 138.1,719.1 154,693.2 157.8,666.7 168.9,652.9 168.9,626.8 174.3,626.8 174.3,654.7 
				163,668.9 159.2,695.1 			"/>
		</g>
		<g>
			<polygon class="st1" points="180.2,766.4 172.2,743.2 176,721.3 154.5,695.9 158.6,692.4 181.7,719.7 177.8,742.8 185.3,764.6 
							"/>
		</g>
		<g>
			<polygon class="st1" points="230,767.9 204.6,755.6 204.6,738.6 181.1,712.9 185.3,666.7 176.9,649 176.9,636.5 182.3,636.5 
				182.3,647.8 190.8,665.7 186.7,711 210,736.5 210,752.2 232.3,763.1 			"/>
		</g>
		<g>
			<polygon class="st1" points="299.8,767.9 276.9,755.5 276.9,742.6 263.2,742.6 247.8,728.3 251.4,724.4 265.3,737.2 282.3,737.2 
				282.3,752.3 302.4,763.1 			"/>
		</g>
		<g>
			
				<rect x="96.8" y="721" transform="matrix(0.4121 -0.9112 0.9112 0.4121 -612.1201 523.4401)" class="st1" width="5.4" height="30.1"/>
		</g>
	</g>
</g>
</svg>
