<?xml version="1.0" encoding="utf-8"?>
<!-- Generator: Adobe Illustrator 24.0.3, SVG Export Plug-In . SVG Version: 6.00 Build 0)  -->
<svg version="1.1" id="Layer_1" xmlns="http://www.w3.org/2000/svg" xmlns:xlink="http://www.w3.org/1999/xlink" x="0px" y="0px"
	 viewBox="0 0 1080 1080" style="enable-background:new 0 0 1080 1080;" xml:space="preserve">
<style type="text/css">
	.st0{display:none;}
	.st1{fill:#FFFFFF;}
</style>
<rect class="st0" width="1080" height="1080"/>
<g>
	<path class="st1" d="M1049.2,596.2c3.3-19.7,11.1-39.7-2-59c-28.9-8-54.3-28.3-88.5-19.7c-30.3,24.8-68.5,24.6-107.1,22.6
		c-12.2,16.1-29.8,20.6-47.1,26.2c-7.5,2.4-13.8,8.2-20.7,12.5c0.3,0.8,0.7,1.6,1,2.3c-4.8,0.5-9.7,1.1-16.2,1.8
		c4.4-5.9,7.8-10.3,11-14.8c5.5-7.6,9.6-16.8,16.6-22.7c13.2-11.2,27.8-20.7,42.2-30.5c3.6-2.4,8.4-4.7,12.5-4.5
		c23.7,1.3,43.2-10.8,65.2-19.1c-2.4-7.4-4.7-14.3-7.7-23.4c-17.8-12.8-36.7-26.5-56.2-40.5c1.2-8.2,2.2-15.3,3.1-21.9
		c5.4-2.6,9.5-4.6,14.1-6.8c-6.7-10.3-6.3-20.2,1.1-30.1c12.7-2.5,25.4-5.1,38.6-7.7c2.1-4,4.2-7.9,7-13.2
		c-4.4-7.5-8.8-15.1-14.3-24.6c0.3-4.5,0.8-11.2,1.3-19.2c5.2-4,10.6-8.1,16.4-12.6c-3.7-10.6-6.8-19.5-9.3-26.8
		c0-23.8,0-46.3,0-69.7c-3.8-0.5-9.2-1.3-16.4-2.3c-3.6-6.8-7.4-14.2-12.2-23.3c-8.3-0.7-17.8-1.6-28.2-2.5
		c-2.6-3.3-5.7-7.2-9.1-11.5c-19.1,3.7-38.6-0.2-57,9c-11.4,5.7-25.5,6.2-36.5,12.5c-18.3,10.4-36.2,14.6-56.8,7.3
		c-5.2-28.3-7.8-58.5-44.4-60.6c-12.3,5.5-22.4,13.3-33,14.1c-19.2,1.4-32.4,12-46.8,22.2c-5,3.6-11.4,5.1-16.4,7.2
		c-12.9-14.7-24-26.8-42.3-24.4c-4.3,4.5-7.7,8.2-12,12.7c-16.7,0-33.9-1-50.8,0.3c-19.5,1.4-36.1-1.3-45.2-21.1
		c-0.1-0.3-1-0.1-2.8-0.3c-0.6,10.1-1.3,20.2-2.1,33.4c-8.3-5.5-13.6-9.1-18.7-12.5c-19.1-1.8-37.7-3.5-57.6-5.3
		c-5.9-6.7-13.9-13.6-23.7-5.3c-7.7,6.5-13.6,14.9-20.7,22.9c-13.4,0.7-27,1.4-42.1,2.2c7.2,12.3,25.6,7.7,25,25.7
		c-7.8,8.2-16.5,17.3-23.9,25c6.1,8.9,13.8,15.3,14.9,22.6c2.8,18.3,2.5,37.1,3.4,53c-7.9,9.1-13.3,15.4-17.9,20.6
		c8.9,9.6,16.9,18.3,24.4,26.2c1.2,19.9,23.1,30.3,18.8,52.1c-2,3.5-4.7,8.1-8,14c26.1-4.9,50.4-9.4,76.2-14.2
		c1.3,26.5,22.4,37.4,33,53.6c19.9-1.2,35.7-20.2,58.6-8.7c3.7,9.9,6.9,20.8,11.6,31.1c4.8,10.4,11,20.2,16.6,30.2
		c-0.9,0.6-1.8,1.2-2.8,1.7c-7.9-10.3-15.8-20.6-23.1-30.1c-16.6,1.4-31.2,2.6-45.1,3.7c-15.9,9.8-31.1,19.2-46.3,28.6
		c0.2,0.4,0.5,0.8,0.7,1.2c-4.9,1.2-9.8,2.5-14.4,3.6c-8.2,17.5-10.8,20.6-22.1,21.2c-13.5,0.7-27.1,0.2-39.9,0.2
		c-5.1-6.1-9.1-10.9-12.8-15.3c-10.6-3.8-20.7-7.5-30-10.8c-23.8,13.8-27.7,13.2-46.2-5.3c-14.8,0.8-14.8,0.8-27.5,16.4
		c-16,6.2-29.5,11.4-43.6,16.9c0.9,8.5,2.1,14.6,2.2,20.7c0.1,5.5,0.9,12.3-1.8,16.3c-12.2,17.6-13.3,37-12.5,57.2
		c0.5,14.5-4,26.7-16.2,35.7c-6.3,4.7-11.8,10.4-18.3,16.3c6.3,5.3,11.8,9.9,16.8,14.1c3.3,16.1-9.1,18.5-18.3,23.2
		c-17.5,8.8-31.4,21.3-41.6,39.2c12.1,8.8,13.2,20.9,12.6,33.8c-0.5,11.4,0.3,22.8,0.2,34.1c-0.1,19.1,4.7,37,12.5,53.9
		c13.4,4.6,13.4,4.6,21.1,24.2c6.1,15.5,11.8,31.3,33.2,36.1c3.1-0.6,8.9-0.9,14.2-2.8c15.7-5.4,29.8-3.7,43.4,6.2
		c15.3,11.1,33.4,13.7,51.7,15.1c8.9,0.7,16.4-1.5,23.2-8c8.1-7.8,17.6-13.4,29.2-16c14.7-3.3,26.5-11.9,34.7-25.5
		c5.5-9.1,13.1-16.8,17.7-22.4c11.7-2.8,19.8-4.8,29.3-7.1c1.3-11.4,3.5-21.4,3.4-31.4c-0.1-16,5.1-27.4,21.1-32.9
		c8-2.8,16.3-6.3,13.7-16.9c-1-12.5-1.9-24.9-3.3-43c-7.1-11.1-1.7-27.8,0.8-47.3c10.8,10.1,22.4,16.7,27.9,26.7
		c10.4,19,19.7,37.5,43.2,38.8c17.2,26.5,13.2,50-2.8,73c-1.8,9.8-4.7,19.4-7.8,28.9c-2.8,8.6,3.6,26.6,12.8,32.5
		c3.3,0,7.7,0,11.5,0c4.1-4.3,7.6-8,10.9-11.4c17.3-4.8,35.8-6.5,41.7-21.2c13.3-11.4,23.1-19.7,30.2-25.8
		c3.4-15.3,5.9-26.6,8.8-39.8c20.3,7,20.2,25.5,28.1,36.7c10,6.4,20.8,9.8,25.2,17c11.2,18.3,27.3,27.9,46.3,35.4
		c10.4,4.1,19.6,11.1,29.9,15.7c7.5,3.4,15.7,6.8,23.7,6.8c13,0,25.9-2.5,38.9-4.3c3.1-0.4,6-1.8,11.6-3.6
		c-12.1-21.3-23.5-41.3-34.8-61.2c-4.2-7.4-9.3-14.5-12.3-22.3c-4.4-11.7-6.4-23.8,3.9-33.8c10.8,17.5,21.1,34.2,31.3,50.9
		c0.9-0.8,1.8-1.6,2.6-2.4c8.5,6.1,17,12.3,25.5,18.4c34.1,29.9,75.5,25.8,116.6,23.7c3.8-3.1,7.7-6.2,11.1-8.9
		c27.5-1.3,49.9-9.7,61.3-35.8c21.3-7.7,40.8-17.2,54.6-34.4c-8.9-24-8.8-24-5.6-51.1c0.4-3.3,0.1-6.9-0.9-10.1
		c-5.7-18.6,2.3-33.1,13.4-46.9c6.3-7.8,12-16,17.9-24c-7.5-19.9-13.6-38.4-6-57.9C1045.2,609.2,1048.1,602.9,1049.2,596.2z
		 M326.8,802c-8.3,14.8-16.8,30-24.7,44.1c-9.8,6.4-18.9,12.7-28.4,18.3c-5.3,3.1-11.1,6.5-16.9,7.2c-12.8,1.3-22.4,6-29.4,17.2
		c-3.1,5-8.9,8.4-13.9,12.8c-16.2,0-32.6,0-50.5,0c-7.4-10.8-19.4-11-32.1-12.3c-10.7-1.1-21-7.1-30.2-10.5c-5-7.6-9.4-13.5-13-19.9
		c-6-10.6-5.9-77.6-0.3-88.2c5.2-9.9,10.3-19.9,13.6-31.2c5-3.6,10-7.1,14.4-10.3c22.8,8.1,63,53.8,65.6,74.2
		c-12.6,6.6-25.2-2-38.7-0.6c-4,8.9-4.5,17.8,1.8,26.1c24.1,7.9,62.3,7.9,88.4,0.7c8.5-6.6,15.4-11.8,22.2-17.1
		c0.6,0.5,1.1,1,1.7,1.5c5.3-11.1,10.5-22.1,16.7-35.1c2-1.8,5.8-5.2,9.3-8.3c0-9.1,0-17.5,0-25.6c-7.6-8.1-16.5-10.5-26.5-10.4
		c-25,0.1-50,0-75.1,0c-5.6,0-11.3,0-17.7,0c-7.6-23-26.7-34.1-47.9-48c20.8-36.1,37.9-72.4,34-115.6c8.7-1.3,15.8-2.4,23.6-3.6
		c2.8-2.6,6.1-5.7,9.7-9c9.4,0,19,0,28.8,0c2.4,4.4,4.4,8.3,6.9,12.9c33.8,0,67.7,0,100.7,0c15.9,11.1,21.4,25.6,20.8,43.3
		c-0.7,19.9-0.9,39.8-1.5,59.6c-0.1,3.3-0.7,6.9-2.1,9.8c-12,25.4-3.5,47.2,12.3,68.9C347.8,771.5,352.9,792.8,326.8,802z
		 M699.4,302c7.1-11.1,13.9-21.8,20.5-32.1c-4.5-10-9-20.1-13.6-30.2c4-2.9,6.2-6,8.4-6c23.7,0,42.1-14.7,63-22.4
		c7.7-2.8,16-4.3,24.1-5.3c6.7-0.9,13.7,0.7,20.4-0.3c19.1-3,34.9,0.6,45.2,18.7c1.5,7.2,4.1,14.4,4.2,21.6c0.1,7-1.2,14.6-4.1,20.9
		c-10.7,22.5-17.3,45.3-9.5,72c-4.5,10.5-9.7,22.3-15.6,36c-7.7,2.9-16.5,8.7-25.4,8.9c-13.4,0.2-22.6,5.4-28.3,13
		c-19.7,2.9-35,5.7-50.5,7.4c-12.8,1.4-21.2-8.9-31.5-14c-3.4-1.7-5.7-5.4-8.8-8.5c-5.4-13.8,1.8-24.7,9.9-35.9
		C704.9,331.1,702.1,316.3,699.4,302z M559.4,388.7c17.8-9.8,17.4-26.1,18.4-42.9c0.9-15.6,5.6-30.9,8.2-46.5
		c1.4-8.3,2.1-16.8,2.5-25.3c0.5-11.4,0.5-22.2,9.9-31.3c3.9-3.8,4-11.4,7-20.7c-5.8-4.1-12.2-8.5-20-14c6.8-12,12.8-22.5,18.8-33.1
		c14-1.3,26.6-2.4,41.8-3.8c3,14.6,5.5,27,7.9,38.6c-11.5,11.3-16.4,22.7-15.5,36.8c0.3,4.2-2.5,8.5-3.9,12.8
		c-1.2,3.7-3.3,7.4-3.7,11.2c-4.2,35.9-8,71.8-12.1,107.7c-0.3,2.8-0.2,6.3-1.9,8.2c-14.7,16.6-10.3,37.3-12.6,56.5
		c-0.3,2.8-0.4,5.6-0.6,8.7c-9.4,10.5-16.6,22.2-20.9,39.4c20.1-3.6,37.5-6.7,58.6-10.4c8.2-5.1,19.5-12.3,33.3-21
		c6.4,0.4,15.4,1.2,24.4,1.4c11.9,0.2,23.8,0,35.7-0.1c12.5-0.1,25-1.2,37.3,0.1c10.6,1.2,19.6,2.8,30.3-3.4
		c15.7-9.2,38.1-1.8,52.8,15.6c-21.3,2.6-45.1-10.4-60.4,13.9c-23.7,2-47.8,4.1-72,6.1c-2.8,0.2-6.1-0.1-8.3,1.3
		c-16.1,9.7-32.1,19.7-52.6,32.5c-36,3.9-76,20.2-117.6,21.2c-12.4-10.8-5.9-23.6-7.7-33.4c6.2-14,11.8-26.8,17.7-40.1
		c-4.2-3.9-7.7-7.3-13.5-12.7c2.2-7.4,3.9-16.1,7.4-24C555.4,422.5,564,407.6,559.4,388.7z M330.3,279.5c0.3,5.3,0.7,10.7,1,15.3
		c-7.1,12-13.8,23.4-21.3,36.1c11.2,9.9,8.5,23.2,4.7,36.3c-0.8,2.9-3.7,5.3-7.1,7.4c-3.5-19.1-18-34.1-13.5-55
		c4.8-22.1,6.7-44.8,9.7-67.2c0.5-3.9,1.1-8,0.5-11.8c-1.8-11.6-4.2-23-6.7-36.3c-1.9-1-5.6-3-9.1-4.9c0.5-2.1,0.6-4,1.1-4.1
		c10.3-2.1,20.6-5.4,30.9-5.6c18-0.4,36,0.8,54,1.8c10.6,0.6,21.2,2.2,31.2,3.3c4.1,8.1,7.3,14.5,11.5,22.7
		c-1.9,11.8-4.1,25.1-6.1,37C390.6,269.8,403.1,272.5,330.3,279.5z M404.4,678.2c-7.8-5.5-19-6.2-27.9-8.9
		c-12.4-12.3-16.6-26.5-14.4-42.5c1.7-12.2-0.7-23.2-5.8-34.5c-7.3-16-5.6-33-2.5-49.6c5.9-4,11-7.4,15.6-10.5
		c34.3-4.9,61.1,18.2,91.6,22.1c12.3,12.1-1.3,22-0.2,34c4.7,8.6,10.1,18.4,14.9,27.2c-12.2,23.4-11.6,27.3,5.8,43.9
		c-0.4,14.8-3.9,19.4-15.6,24.7C444.1,693.9,424.3,692.2,404.4,678.2z M725.4,884.2c-8.5,10-17.9,12.3-27.1,5.9
		c-10.1-7-19.2-15.6-28.7-23.6c-6-5.1-11.2-12.3-18.1-15.1c-19-7.5-30.3-23.8-45.3-35.8c-22.4-17.9-35.1-43.2-54.5-65.1
		c-5.2,11.4-8.8,21.3-8.7,33c0.1,11.2-2.4,22.4-3.5,31.1c-20.5,21.9-39.7,42.4-59.9,64.1c-5.2-8.5-1.5-14.3,0.9-20.3
		c6.9-17.3,13.7-34.7,20.5-52c0.8-2.1,1.8-4.2,2-6.4c2-16.3,3.8-32.6,5.6-48.9c0.4-3.9,0.5-7.8,0.8-14.1c-8.2-0.4-15.8-0.9-23.4-1
		c-10.2-0.2-20.5,0.3-30.7-0.2c-4.5-0.2-8.9-2.4-16-4.5c4.4-6.5,6.2-12.3,9.9-14.1c17-8.4,34.4-15.9,51.8-23.1
		c10.3-4.3,15.3-12.4,14.3-27.7c-0.4-6.2-2-12.3-3.3-20.2c-10.2-3.5-19.9-6.9-32.2-11.1c16.8-11.9,7.3-29.1,16.2-41.9
		c4.5-1.1,9.8-2.5,16.8-4.2c-5-37.6-10.6-75-14.6-112.7c-1.8-16.8-0.3-33.9-2.3-50.5c-3-21-6.1-42.1-8.8-60.9
		c-15.7-12-29.9-22.8-45.4-34.7c-5.3,4.4-9.2,11.8-11.8,20.6c-2.3,7.4-6.4,14.2-9.6,21.3c-3.9,8.7-8.5,17.3-11,26.4
		c-3,10.8-7.9,18.2-21.2,19.9c-0.7-5.4-1.4-9.7-1.7-13.9c-1.1-15.8-2.2-31.7-2.9-47.5c-0.2-4.4-0.2-9.5,1.6-13.3
		c7.6-15.4,16-30.5,25.2-47.9c3.6-22.2,7.2-47,23.9-68.6c-5.5-17-11.2-34.3-17.3-53.2c7.6-0.5,12.5-0.8,17-1.1
		c14.3,13.3,14.3,13.3,53.2,20.1c15-2.5,25.9-4.3,35.4-5.8c12,12,19.5,21.9,8,35.9c-2.6,3.2-2.6,8.6-4,13.6
		c1.6,4.4,3.3,9.1,5.4,14.9c-2.5,3.5-5.4,7.6-8.2,11.5c-0.1,1.2-0.7,2.5-0.4,3.5c6.3,20.9,7.2,41.3,3.3,63.3
		c-2.7,15.6,3.7,32.8,15.2,45.6c5.1,5.7,6.1,10.3,1.8,17.3c-5.3,0-10.8,0-16.9,0c0,6.7-0.7,13.4,0.1,20c4.2,33.2,0.4,66.4,0.1,99.5
		c-0.2,23.7,1.6,47.4,2.5,71.4c18,5.4,33-1.2,47.8-5.5c11.3-3.3,21.8-4.1,33.4-1.7c9.9,2,20.4,0.7,30.6,1.3
		c7.8,0.5,15.5,1.7,21.9,2.4c11.3,14.2,1.2,28.3,4.5,41.4c3.1,12.5,4.2,25.6,6.3,39.1c-15.8,9-30.7,17.4-42.1,23.9
		c-16.3,11.5-29.5,20.8-42.3,29.9c14.1,20.4,31.6,36.9,38.1,60.6c1.1,4,5,7.1,7.5,10.8c11.4,17.3,22.2,35,34.1,51.9
		c10.9,15.5,22.8,30.3,33.1,43.8C711.6,882.4,717.9,883.2,725.4,884.2z M763.6,550.4c-13.5,19.8-14.8,40.7-10.9,64.2
		c3.4,20.1,2.2,40.7-2.3,61.8c-3.5,16.1-10.3,34.8-0.6,52.9c3.2,5.9,1.4,14.5,2,22.9c4.1,3.2,7.5,5.9,11.2,8.8
		c-1.6,1.9-2.4,3.9-3.8,4.3c-15.1,4.6-30.3,2.3-45.4-0.5c-4.9-0.9-10.7-2.9-15-1.4c-24.5,8.8-42.6-1-59.4-18.9c0-5.7,0-11.8,0-16.2
		c6.3-10.4,11.8-19.4,19.8-32.6c16.9-8.4,37.8-18.7,60.8-30.1c11.6-21.6,10.4-48.7,10.7-75.7c0.1-7.6,2.4-15.6,5.6-22.6
		c3-6.5,8.5-11.9,13.5-18.6c3.7-0.5,8.1-1,12.3-1.5C763,548.8,763.9,550,763.6,550.4z M999.2,645.2c-0.1,11.4-2.3,21.8-8.2,32.4
		c-8.9,15.9-11.3,33.7-9.1,52.3c1.6,13.5,1.1,27.3,0.3,40.9c-0.3,4.7-3.6,9.4-6.2,13.7c-2.3,3.9-6.5,6.9-8,11
		c-6.8,19.4-24.3,23.5-40.4,24.8c-17,1.3-29.2,6.8-38.6,20.5c-1.2,1.7-3.6,2.6-5.8,0.9c-19-0.1-38.1-1.2-56.9,0.1
		c-24.4,1.8-44-6.3-61.3-24.2c-2.6-17-0.9-32.9,19-44.7c-4.1-21.2-8.4-43.5-12.7-65.2c9-13.7,17.7-27,27.8-42.3
		c0.8-15.3-11.7-23.9-21.3-35.9c3.6-6,7.2-12.1,11.7-19.7c14.2-2.4,28.5-4.7,42.9-7.3c3.8-0.7,9.1-0.8,11.1-3.3
		c8-10.2,19.1-11.5,31-12.2c4.2-3.3,8.6-6.7,13.8-10.8c22.8-2.2,46.4-4.8,70-6.4c5.3-0.4,11.5,1.4,16,4.2
		c25,15.4,24.9,15.6,24.9,45.9C999.2,628.2,999.3,636.7,999.2,645.2z"/>
	<path class="st1" d="M441.3,281.4c6.9-18.1,13-34.4,19.4-51.3c19.4-2,25.5,13.5,34.1,24.2c0,24.7,0,48.3,0,73.1
		C470.7,318.8,459,297,441.3,281.4z"/>
	<path class="st1" d="M588.9,664.5c-11.8,3.9-20.7,6.8-31.8,10.4c0-16.8,0-32.2,0-49.9c20.6-1.8,41.7-3.7,62.7-5.6
		C621.5,633.6,621.5,633.6,588.9,664.5z"/>
	<path class="st1" d="M266.9,680.1c-10.4,2.6-19.5,5-28.7,7.1c-2.7,0.6-6.4,1.1-8.3-0.3C213.4,675,194,675.3,175.3,673
		c-1-0.1-1.8-1.3-5.1-3.7c8.6-16,17.3-32.3,25.9-48.3c10.7,0,19.1,0,27.7,0c3.7-3,7.1-5.8,10.4-8.5c15.6,0,30.8,0,45.9,0
		c8.3,10.9,10.2,17.5,1.6,27C270.6,651.7,266.5,665.3,266.9,680.1z"/>
	<path class="st1" d="M936.1,735.8c-16,8.4-14.5,26.7-22.5,41.2c-13.2,8.7-32.8-7.6-43.2,9c-11.9-3.1-22.1-5.7-33.6-8.7
		c-7.4-24.6,7-50.4,0.8-76.2c9.7-17.7,19.4-35.5,30.6-55.8c0.5-3.9,1.3-11,2.1-17.3c16.7,0.8,31.2,1.4,46.6,2.1
		c3.8-2,8.1-4.4,12.8-6.9c4.5,3.1,8.5,5.9,12.8,8.8c1.6,15.7,2.1,30.4-2.5,45.7c-3.4,11.6-2.1,24.5-2.8,36.9
		C936.9,721.5,936.5,728.3,936.1,735.8z"/>
	<path class="st1" d="M817.1,246.2c10.6,11,12.3,19.5,5,32.8c-5.9,10.9-4.2,25.9-6.2,42.2c-4.5,8.7-10.8,20.7-16.9,32.3
		c-16,0-30.1,0-46.2,0c-0.8-17.9-1.6-35.2-2.4-52.4c7.5-10.1,14.9-19.9,23.3-31.3c-0.9-5.1-2-11.5-3.3-18.4
		C784.4,241,801.4,250.1,817.1,246.2z"/>
	<path class="st1" d="M437.7,646c-6.1,1.9-10.4,3.3-14.4,4.6c-16.2-3.2-29-10.7-37-26.7c-1.5-18.6-3.1-38.6-4.9-60
		c12.5,0,22.4,0,32.7,0c7.7,15.5,14.9,30.2,23.5,47.5C437.7,621.4,437.7,634,437.7,646z"/>
	<path class="st1" d="M715.3,705.3c2.3,4.6,4.4,8.5,5.8,11.4c-2,8.6-3.7,16-5.6,24.1c-10.2-1.2-20.5-2.4-32.3-3.8
		c-1.6-6.3-3.3-13.1-5.2-20.8C690.3,712.6,702.1,709.2,715.3,705.3z"/>
	<path class="st1" d="M372.2,224.2c-1.4,6.8-2.6,12.3-3.7,17.6c-9.3,3.2-18.1,6.2-27.2,9.3c-12.6-10.3-1.4-20.7-2-31.2
		C350.7,221.3,360.7,222.6,372.2,224.2z"/>
</g>
</svg>
