<?xml version="1.0" encoding="utf-8"?>
<!-- Generator: Adobe Illustrator 24.0.3, SVG Export Plug-In . SVG Version: 6.00 Build 0)  -->
<svg version="1.1" id="f72f624a-6e31-4d16-ac50-76c4312e6b65"
	 xmlns="http://www.w3.org/2000/svg" xmlns:xlink="http://www.w3.org/1999/xlink" x="0px" y="0px" viewBox="0 0 1080 317"
	 style="enable-background:new 0 0 1080 317;" xml:space="preserve">
<style type="text/css">
	.st0{fill:url(#SVGID_1_);}
	.st1{fill:url(#SVGID_2_);}
	.st2{fill:url(#SVGID_3_);}
	.st3{fill:url(#SVGID_4_);}
	.st4{fill:url(#SVGID_5_);}
	.st5{fill:url(#SVGID_6_);}
	.st6{fill:url(#SVGID_7_);}
	.st7{fill:url(#SVGID_8_);}
	.st8{fill:url(#SVGID_9_);}
	.st9{fill:url(#SVGID_10_);}
	.st10{fill:url(#SVGID_11_);}
	.st11{fill:url(#SVGID_12_);}
</style>
<title>LOGO ANTARES</title>
<linearGradient id="SVGID_1_" gradientUnits="userSpaceOnUse" x1="529.9805" y1="232.2" x2="529.9805" y2="29.2799" gradientTransform="matrix(1 0 0 -1 0 288)">
	<stop  offset="0" style="stop-color:#D0A400"/>
	<stop  offset="0.11" style="stop-color:#D9B632"/>
	<stop  offset="0.24" style="stop-color:#E3C968"/>
	<stop  offset="0.37" style="stop-color:#ECDA96"/>
	<stop  offset="0.5" style="stop-color:#F3E7BC"/>
	<stop  offset="0.63" style="stop-color:#F8F2D9"/>
	<stop  offset="0.76" style="stop-color:#FCF9EE"/>
	<stop  offset="0.88" style="stop-color:#FEFDFB"/>
	<stop  offset="1" style="stop-color:#FFFFFF"/>
</linearGradient>
<path class="st0" d="M631,234.6c0.1-1.1,0.1-2.2,0-3.3c-0.2-0.8-0.7-1.5-1.4-2c-1.2-0.5-2.6-0.3-3.7,0.3l0,0
	c-0.3,0.5-0.7,0.8-1.2,1.1l-0.3,0.4c-0.5,0.4-1,0.9-1.4,1.4l-0.4,0.4c-0.7,1.5-1.7,2.8-2.9,4l-1.3,1.3l-1.3,1.2
	c-0.2,0.4-0.5,0.6-0.9,0.7c-0.7,0.4-1.4,0.6-2.2,0.5l0,0c-0.6,0.1-1.2-0.1-1.7-0.5c-2.5-2-5.4-3.8-7.3-6.3s-5.2-5.9-7-9.4
	s-3.7-6.3-5.3-9.6c-0.5-1.1-1-2.2-1.4-3.4c-1-3.1-2-6.3-2.9-9.5c-0.1,0-0.1-0.1-0.1-0.2l0,0c-0.3-0.9-0.6-1.7-0.8-2.6l-0.3-1.5
	c-0.1-0.3-0.1-0.7-0.2-1.1s-0.4-2-0.6-3.1l-2.4-14c-0.1-1.1-0.3-2.2-0.4-3.3s-0.5-3.6-0.8-5.6c0-0.1-0.1-0.2-0.1-0.4l0,0
	c-0.2-0.4-0.2-0.8-0.1-1.2v-1.2c0-0.3-0.1-0.5-0.1-0.8v-19c0-2.5-0.1-5,0-7.5V128c-0.1-3.5,0.3-7,1-10.5V117
	c0.4-6,0.8-12.1,1.3-18.2c0-0.6,0.1-1.3,0.2-1.9c0.2-1.7,0.5-3.5,0.7-5.3c0.4-3.9,1.6-7.8,1.5-11.8c0-0.2,0.1-0.3,0.1-0.5
	c0.7-3.9,1.1-7.8,2-11.6s-0.2-4.8-2.8-6.1c-0.1-0.1-0.2-0.3-0.2-0.4c0.3-0.3,0.7-0.6,0.7-0.9c0.2-0.7,0.1-1.4-0.3-2
	c-0.9-1.4-2.1-2.5-4.1-2.2c-0.2,0.4-0.3,0-0.5-0.1s-0.5,0-0.6-0.2h-1.8l-0.7,0.3c-3.9,1.1-7.8,2-11.4,3.9H567l-3.6,2.4
	c-0.7,0.2-1.3,0.6-1.7,1.1l-2.7,1.7l-2.7,1.4c-4.3,2-7.7,5.2-11.1,8.3c-1.3,1.1-1.9,0.9-3.1,0.1c-1.2-0.9-2.6-1.6-4-2.1
	c-2.4-0.6-4.8-1.5-7-2.7c-5.3-2.7-11.1-4.4-17.1-4.8c-6-0.5-12.1-0.4-18.2-0.3c-2.1,0.1-4.1,0.4-6.1,0.9c-2.8,0.7-5.4,1.7-8,2.9
	c-2.6,1.3-5.4,1.7-8,2.7l-0.7,0.3c-5.2,2.3-9.7,5.9-14.4,9l-1.1,0.8h-0.1l-4.8,4.7l-0.9,1l-0.5,0.4l-4.2,5.1l-0.9,1.3
	c-2.5,3.3-4.8,6.8-6.9,10.4l-0.2,0.3v0.2c-2.6,4.4-4.7,9.1-6.3,13.9c-0.8,2.4-1.5,4.9-2.2,7.3l0,0c-0.2,1.2-0.7,2.3-1,3.5
	s-0.3,1.1-0.4,1.7s-0.1,0.7-0.1,1.1c-0.1,0.1-0.1,0.2-0.1,0.3c-0.1,1.2-0.5,2.5-0.6,3.7c-0.2,3-1.6,5.8-1.3,8.9s-0.2,4.3-0.4,6.3
	h-0.1c-0.1,1-0.1,2.1-0.1,3.1c0,2.6,0.2,5.3,0.2,7.9c0,0.2,0,0.5-0.1,0.7v1.8c0.2,2.1,0.3,4.3,0.5,6.4c0,0.1,0.1,0.2,0.1,0.3v1.9
	c0.1,1.1,0.3,2.1,0.4,3.1s0.1,1.2,0.2,1.9c0.7,2.7,0.5,5.5,1.6,8.2s1.8,6.6,2.7,9.9c0.3,1.4,0.8,2.7,1.4,4c1.3,2.7,2.7,5.4,3.9,8.1
	c2.7,6.3,6.1,12.3,10.3,17.8c4.5,5.6,9.7,10.7,15.5,15c6.5,4.7,13.6,8.4,21.1,11.1c4.9,1.7,9.9,3.4,15.2,3.8c0.4,0,0.8,0.1,1.2,0.3
	h0.2l1.1,0.2c0.6,0.2,1.3,0.4,2,0.4h0.7l9.1,0.7c2.4,0.1,4.8,0.4,7.2,0.3s6.5-0.7,9.7-1h0.9l2.5-0.5c2.1-0.5,4.3-1.2,6.4-1.5
	c3.6-0.5,7.1-1.4,10.4-2.8c6-2.1,11.8-4.6,16.9-8.5c1.5-1,3.1-1.9,4.7-2.7l4.8,4.3c6.5,5.5,13.2,10.5,22,12.3
	c4.1,0.8,7.6-0.4,11.3-1.2c2-0.5,3.8-1.7,5.8-2.2c0-0.1,0.1-0.1,0.2-0.2l0.2-0.2l0.5-0.2l0,0c1.7-1.1,3.4-2.4,5-3.6l0.5-0.4l9.5-9.1
	c1.1-1.2,1.5-2.7,1.3-4.3C633.3,235.4,632.1,235,631,234.6z M541.7,240.8h-0.9c-1.4,0.2-2.9,0.3-4.3,0.1c-2.2-0.2-4.4-0.7-6.6-1.1
	h-0.8c-4.2-0.2-8.2-1.8-12.1-3.3h-0.4l-1.7-0.6l-3.3-1.8l-9.1-4.5h-0.3l-2.4-2v-0.2l-0.5-0.2l-14.5-12c-1.3-1.4-2.6-2.8-3.8-4.3
	c-3.3-4.2-6.5-8.6-8.5-13.7c-1.3-3.3-2.3-6.7-3.1-10.2c-0.7-2.9-0.4-5.9-1.1-8.7c-0.6-2.9-0.8-5.9-0.8-8.9c-0.3-2.9-0.2-5.8,0.3-8.6
	c0.6-3,0.2-6,0.8-8.9c1.3-5.8,2.3-11.6,4.2-17.2c1.4-4.4,3.1-8.7,5.1-12.9c2-4.1,4.5-7.9,6.8-11.9c0.7-1.2,1.5-2.4,2.4-3.6
	c3.3-4.5,7.1-8.7,11.3-12.3c3.7-3.3,7.8-6.1,12.3-8.3c7.7-3.7,15.6-4,23.7-1.6c1.6,0.7,3.2,1.4,4.7,2.2l-0.3,0.8
	c-0.1,0.2-0.1,0.4-0.1,0.6c-0.8,2.6-1.3,5.3-1.6,8c-0.3,2.2-0.5,4.4-0.5,6.6V120c0,0.6,0,1.1-0.1,1.7c0,0.2,0.1,0.4,0.1,0.6l0.2,5.3
	c0.3,5.6,0.5,11.2,0.7,16.8c0,0.4,0.1,0.8,0.1,1.3c0.3,2,0.7,4.1,0.9,6.1s0,4.1,0.9,6l0.3,2.1v0.8l0.3,2.3l0.9,4
	c0.5,2.5,1.1,4.9,1.7,7.3c0.1,0.5,0.3,1,0.4,1.5c0.8,3.9,1.9,7.7,3.4,11.4c0.5,1.3,0.8,2.6,1.1,4c0.1,0.2,0.2,0.4,0.2,0.6l0,0
	c0,0.1,0.1,0.2,0.1,0.3s0.1,0.2,0.1,0.4l0,0l0.2,0.5c0.1,0.1,0.1,0.1,0.1,0.2c0,0.1,0.1,0.2,0.1,0.3c0.2,0.3,0.4,0.6,0.6,1
	c1.9,4.6,3.8,9.3,5.8,14c1.3,2.8,2.9,5.4,4.3,8.1s3.9,7.1,5.8,10.6l-4.3,6.8h-0.1c-1.9,2.3-5,3.4-7.9,4.1
	C549,239.2,545.3,240.1,541.7,240.8z"/>
<linearGradient id="SVGID_2_" gradientUnits="userSpaceOnUse" x1="808.4919" y1="235" x2="808.4919" y2="27.0324" gradientTransform="matrix(1 0 0 -1 0 288)">
	<stop  offset="0" style="stop-color:#D0A400"/>
	<stop  offset="0.11" style="stop-color:#D9B632"/>
	<stop  offset="0.24" style="stop-color:#E3C968"/>
	<stop  offset="0.37" style="stop-color:#ECDA96"/>
	<stop  offset="0.5" style="stop-color:#F3E7BC"/>
	<stop  offset="0.63" style="stop-color:#F8F2D9"/>
	<stop  offset="0.76" style="stop-color:#FCF9EE"/>
	<stop  offset="0.88" style="stop-color:#FEFDFB"/>
	<stop  offset="1" style="stop-color:#FFFFFF"/>
</linearGradient>
<path class="st1" d="M1022.7,79.7v-0.5c0.3-1-0.2-2.1-1.2-2.6c-1.2-0.5-1.8-1.8-1.5-3c0.1-0.6,0.1-1.2,0.1-1.8h0.1l-2.1-1.5
	c-1.4-1.2-3-2.2-4.6-3.1l-1.6-1.1l-13.7-6.3l-10.4-3.1l-6.8-1.2l-3.1-0.5l-3.5-0.6h-0.8L962,53l-18.5,2l-12,4.3l-7.1,3.3H924
	l-0.5,0.4l-2.1,1l-6.4,4.1l-1.2,0.8l-7.4,4.8l-12.2,10.4c-5.4,3.4-9.5,8.4-11.9,14.3c0,0.1-0.1,0.2-0.1,0.3c-0.3,0.5-0.5,1-0.6,1.6
	c-0.9,3-1.3,6-1.3,9.1l0.3,6.9c0.4,2.7,0.7,5.4,1.1,8.1l2.5,8.7l6.8,11.3h0.1l2.3,2.9l0,0c3,3.6,6.5,6.7,10.3,9.3
	c3.6,2.4,7.6,4.3,11.8,5.6c3.3,1.1,6.8,1.9,10.2,2.6c2.4,0.4,4.8,0.4,7.2,0.8s7.6,1.1,11.4,1.9s6.6,1.9,9.9,2.8
	c0.6,0.2,1.2,0.5,1.8,0.9l1.5,0.5l2.4,1.3c0.7,0.6,1.5,1.1,2.3,1.5c0,0.1,0.1,0.1,0.2,0.2c3.6,1.6,6.9,3.8,9.7,6.5
	c2.3,2.1,4.4,4.4,6.3,6.9c2.5,3.4,5,6.9,5.8,11.3c0.2,1.3,1.1,2.7,1,3.9c-0.2,2.9-1.1,5.7-2.4,8.2l0,0c-0.3,0.7-0.7,1.4-1,2.2
	c-0.1,0.2-0.2,0.4-0.2,0.6l-5.7,7.6l-0.4,0.6c-0.2,0.1-0.3,0.3-0.4,0.4l-13.3,6.8c-9.9,1.2-20-0.3-29.2-4.3l-9.6-4.5l-0.6-0.4
	c-2.7-1.1-5.2-2.8-7.3-4.8c-1.5-1-2.9-2-4.3-3.2c-4-3.3-7.7-7-11-11c-2.9-3.3-5.4-7-7.5-10.8c-0.9-1.7-1.6-3.4-2.2-5.2
	c-0.6-1-1.1-2.1-1.6-3.2c-0.1-0.2-0.2-0.3-0.4-0.4H887c-1.1,1.4-2.7,2.3-4.5,2.6c-0.1,0.2-0.2,0.3-0.4,0.3l-1.2,0.5l-0.6,0.4
	l-0.3,0.2c-5.1,4-10.4,7.9-15.2,12.2c-2.1,2-4.8,3.3-6.4,5.8c-0.2,0.7-0.3,1.4-0.4,2.1c0.3,0.7,0.4,1.5,0.5,2.3
	c0.2,0.6,0.3,1.2,0.5,1.8l0.3,0.6l0.3,0.7l0,0c0.6,1.8,2,3.5,1.6,5.7l-0.9-2.3c-1.2-2.9-4-3.5-6.3-1.4l-1.1,0.8
	c-0.7,0.6-1.3,1.3-1.9,2c-0.6,1-1.2,2-1.9,2.9c0,0.1-0.1,0.3-0.1,0.4c-0.4,0.9-1,1.7-1.7,2.5c-3.2,3.5-7,6.5-11.2,8.9
	c-0.9,0.6-1.8,1-2.8,1.3l-0.8,0.3l-3.4,1.5c-1.7,0.8-3.6,1.4-5.4,1.9l0,0c-1.4,0.6-3,0.9-4.5,0.9h-9.7c-1.3,0-2.6-0.2-3.8-0.6
	c-1,0.1-2-0.1-2.9-0.4c-3-1-6.1-1.6-8.9-3.1l-4.3-2.6l-4.3-3.1c-1.5-1.1-2.8-2.3-4-3.7c-1.5-1.2-2.9-2.6-4.2-4.1
	c-3.6-3.8-5.8-8.7-7.8-13.4c-4.4-10.2-4.4-21.6-6.5-32.4c-0.1,0-0.1,0-0.1-0.1c-0.2-0.8-0.3-1.7-0.3-2.5v-0.2c0-0.3,0.3-0.5,0.6-0.5
	h0.3c2,0,3.9-0.1,5.8,0h6.5l27.8-0.3c5.7,0,11.4,0.3,17.1,0.3l26.2-0.2c4.8,0,9.6,0.1,14.3,0c2,0.1,4-0.1,5.9-0.6
	c2-0.6,2.7-2.1,3.3-3.6c1.4-3.7,2.7-7.4,4-11.2l0.5-1.1v-1c0.1-0.4,0.2-0.7,0.2-1.1c0.7-4.8,1.4-9.6,2.2-14.4
	c0.2-1.8,0.3-3.6,0.5-5.4l0.3-1.2c0.2-1.1,0.3-2.3,0.2-3.4l0,0l0.3-2.7l0,0v-0.3h-0.1c-0.3-4.4-0.6-8.4-1-12.3s-0.7-7.7-2.4-11.2
	s-2.7-7.6-4.4-11.2s-3.3-5.8-5-8.7c-2.8-4.5-6.3-8.4-10.5-11.6c-7.5-5.9-16.5-9.8-25.9-11.3H829c-1-0.1-7.2-1-9.5-1.1h-1.1
	c-2.9,0.8-5.8,0.6-8.7,0.9c-3.3,0.3-6.6,0.9-9.7,2c-2.9,1.1-5.9,2-8.9,2.7c-3.6,1.2-7.1,2.8-10.4,4.7c-7,3.8-13.4,8.5-19.1,14
	c-1.1,0.8-2.1,1.7-3,2.6l-4,3.9l-3.8,5.3l-0.4,0.6c-0.5,0.4-0.9,0.9-1.3,1.4c-4.2,5.8-7.9,12-11.1,18.5c-1.3,2.4-2.4,4.9-3.3,7.5
	c-0.9,2.6-2.4,4.9-3.1,7.7s-2.7,6.8-3,10.5c0,1-0.8,1.9-1.9,1.9c-0.1,0-0.2,0-0.3,0c-0.5,0-1.1,0-1.6,0h-25.6l-1,0.2
	c-2.4,0.4-3.9,2-5.3,3.8l-0.7,0.8H692l-0.3,0.4l-1.3,1.4h0.1c-2.7,2.9-5.2,5.9-7.9,8.5s-2.9,2.8-3,5.1c-0.2-0.6-0.3-1.2-0.2-1.8
	c0.2-1.2,0.3-2.5,0.5-3.7c0-0.2,0-0.4,0.1-0.6v-0.2c0.1-1.6,0.4-3.3,0.7-4.9c0.3-1.4,0.8-2.8,1.4-4.1c0.6-1.3,1.3-2.5,1.9-3.7
	s1.4-2.7,2.2-4l1-1.7c0.3-0.6,0.4-1.2,0.7-1.7s0.1-0.1,0.1-0.2s0.9-1.2,1.2-1.7c3.4-5.2,7.3-10.1,11.6-14.6
	c6.1-6.2,13.1-11.1,20.4-15.7c5.3-3.2,10.8-5.9,16.6-8.1c2.6-0.8,4.5-3.1,4.8-5.8c0.3-1.9,0.9-3.8,1.8-5.6c1.8-3.6,3.9-7.1,5.8-10.6
	s2.5-4.6,3.6-6.9s0.5-5-2.2-6.3v-2.9c0.1-1-0.5-1.9-1.5-2.1c-1.6-0.5-3.3-0.7-5-0.4c-4.1,0.7-8.3,0.5-12.3,1.6
	c-0.7,0.2-1.5,0-2.3,0.2c-4.5,1-9.1,1.9-13.6,3c-2.1,0.4-4.2,0.9-6.2,1.7c-4.4,1.7-8.8,3.5-13.1,5.4s-6.2,2.9-9.3,4.4
	c-2,0.9-3.6,2.4-4.5,4.4c-1.1,2.5-2.3,4.9-3.4,7.4s-3,7.1-4.5,10.8l0,0l-0.9,2.9c-0.1,0.8-0.3,1.6-0.6,2.4c-1.5,5-3.2,10-4.9,15
	l-0.3,1.7l-0.3,1.4v1.4c0,0.1-0.1,0.3-0.2,0.4c-0.1,0.6-0.3,1.2-0.7,1.7c-0.2-0.7-0.4-1.4-0.5-1.9v-0.2l0,0
	c-0.1-0.1-0.1-0.2-0.1-0.3c-0.1-0.9,0-1.7,0.1-2.6v-2.7c-0.1-0.3-0.1-0.7,0-1c0.1-4.1,0.4-8.2,0.9-12.3c0-0.6,0.1-1.3,0.2-1.9
	c0-0.2,0-0.3,0.1-0.5c0-0.4,0.1-0.9,0.2-1.3c0.1-0.7,0.1-1.2,0.2-1.8c0.2-0.9,0.3-1.8,0.4-2.7c0.7-3.7,1.4-7.5,1.9-11.3
	c0.3-1.9,0.8-3.9,1.3-5.8s0.2-2.2,0.4-3.3l0,0c0.1-4,0.2-8,0.4-12v-0.3c0-0.3,0-0.5-0.1-0.8c-0.3-0.9-0.8-2.1-1.6-2.4
	c-1.6-0.5-3.2-0.7-4.8-0.6c-0.9,0.2-1.8,0.3-2.7,0.3c-3.4,0.4-6.9,0.7-10.3,1.2s-9.6,2.1-14.4,2.7c-1.6,0.3-3.2,0.7-4.7,1.3l-6,2.1
	c-3.8,1.2-7.6,2.3-11.3,3.6L606.2,69c-1.9,0.8-3.6,1.9-5.4,2.8l-0.5,0.3l-0.7,0.4c-0.6,0.4-1.2,0.8-1.7,1.3l-0.5,0.4
	c-1.7,2.8-1.3,6.1-2,9.1s-0.3,4.8-0.5,7.2l-0.6,6.9c-0.2,1.3-0.1,2.5,0.1,3.8c0.3,1.2,0.5,2.5,0.6,3.8c0,0.1,0,0.1,0.1,0.2l0.3,2.9
	c0.3,1.6,0.6,3.2,0.8,4.8l0.9,2.8c0.2,0.5,0.4,1,0.5,1.5l0.9,2.9c0.3,0.8,0.5,1.6,0.8,2.3c0.2,0.7,0.5,1.4,0.8,2l0.4,0.7
	c0.7,0.9,1.2,2,1.5,3.1c0.1,0.1,0.1,0.3,0.2,0.4v0.2h0.1c0,0.1,0,0.1,0.1,0.1l0.3,0.4c0.1,0.1,0.2,0.2,0.2,0.3l0.2,0.2
	c1.8,0.8,3.6,0.3,5.3-0.7c1.1-0.8,2.1-1.6,3.1-2.5l10.2-7.9l12.6-9.6L645,101l8.7-6.7c0,0.7,0,1.3,0.1,2c-1.5,10.4-3,20.9-4.4,31.3
	l-3.9,35.8l-3.3,37.9l-2,30.8c0,0.2-0.1,0.4-0.1,0.6c-0.1,0.9-0.1,1.8-0.1,2.7c-0.3,3.5-0.5,7.1-0.8,10.6c-0.2,1.5,0.3,3,1.2,4.2
	l0.5,0.6l0.8,1.9c0.1,0.1,0.1,0.3,0.1,0.4c0.2,2.3,1.9,4.2,4.2,4.7c3.9,0.8,7.7,1.7,11.6,2.2c3.3,0.5,6.6,0.7,9.9,0.8
	c2.4,0.2,4.9,0.2,7.3,0.1l13.3-0.8l1-0.2c1.7-0.4,3.5-0.8,5.3-1c3.8-0.4,5.1-1.9,4.4-5.6c-0.1-0.5-0.3-1-0.4-1.5
	c-1.5-3.7-3-7.4-4.3-11.2s-2.4-8.1-3.7-12.1c-0.5-1.6-1.2-3.2-1.6-4.8c-0.9-3.1-1.8-6.3-2.6-9.4s-1.1-4.8-1.7-7.2s-1.3-4.5-1.7-6.7
	s-0.9-5.8-1.5-8.7c-0.7-2.8-1.3-5.7-1.7-8.6c-0.4-4.1-0.6-8.3-0.6-12.4v-0.4c0-1.7,0-3.4,0.2-5.1l0,0c0-0.5,0.1-1.2,0.2-2.3
	c1.2,0.9,2.8,0.9,3,2.7v0.5c0.1,0.4,0.1,0.7,0.1,1.1c0.1,0.3,0.1,0.6,0.2,1c0.1,0.2,0.1,0.4,0.1,0.6l2.1,1.4l0.3,0.2
	c1.4,0.1,2.7,0.4,4,0.4s3.4-0.3,5.1-0.3s5.7,0,8.5,0H721c0.3,0.6,0.6,1.2,0.4,1.6l0,0v0.5c0,0.2,0.1,0.4,0.1,0.6
	c0.2,0.5,0.2,1.1,0.2,1.6c-0.1,0.3-0.1,0.7-0.1,1c0.6,5.1,1.5,10.3,2.7,15.3c0.6,2.6,1.2,5.1,1.9,7.7c0.3,0.9,0.7,1.8,1.1,2.7
	c0.1,0.2,0.2,0.4,0.2,0.6l0.3,0.9c0.1,0.5,0.3,1,0.5,1.4c0.2,0.7,0.4,1.3,0.6,2c0.4,0.5,0.7,1,0.9,1.6c1.4,3.1,2.8,6.3,4.3,9.4
	c0.9,1.9,1.8,3.8,2.9,5.6l1.1,1.7c0.1,0.2,0.1,0.4,0.2,0.5c0.4,0.4,0.7,0.8,1,1.3l2.4,3.1c1.2,1.7,2.5,3.3,4.1,4.7l7.2,7.8h0.1
	c0.3,0.3,0.6,0.5,0.9,0.7c2.8,2,5.5,4.1,8.4,5.9c4.9,3,9.9,5.7,15.5,7.1c3.5,0.9,7,2.4,10.6,2.9l4.9,0.6h4.4c0.7,0.1,1.3,0.1,2,0
	c3.8-0.5,7.7-0.3,11.5-1.3c3.3-0.7,6.5-1.7,9.6-2.8c5.9-2.3,11.5-5.1,16.9-8.4c5.3-3.2,10.3-6.9,14.9-11c2.8-2.5,5.4-5.2,7.8-8.1
	c2-2.4,3.6-5.2,1.9-8.5l0.3-0.3l0.7,1.1c1.3,2.8,2.3,5.9,4,8.6s4.7,6.7,7.1,10c4.6,6.4,10.9,10.8,17.5,14.7c4.6,2.7,9.4,5,14.4,6.7
	l0.5,0.2h0.1l1.6,0.3h1.4c0,0.1,0,0.1,0.1,0.1H939c0.8,0,1.5,0,2.3-0.2c2.6-0.5,5.2-1.1,7.8-1.5c5.1-1,10.2-2.4,15-4.4
	c7.5-3.1,13.9-7.9,19.8-13.3c5.3-4.9,9.6-10.9,12.7-17.4c1.6-3.3,2.8-6.8,3.6-10.4c0.4-1.7,0.4-3.5,0.2-5.2
	c-0.7-5.6-1.3-11.1-2-16.7c-4.8-11.6-10.3-20-14.4-23.8l0,0c0-0.1,0-0.3-0.1-0.4h-0.3l-3.4-2.7c-1-1.4-2.4-2.4-4.1-2.8l-4.1-2.6
	c-0.3-0.4-0.7-0.6-1.1-0.6l-6-2.8h-0.1l-0.6-0.3h0.1l-1.5-0.6c-0.2,0.2-0.5,0.2-0.8,0.2l-6-1.4l-26.5-7.6l-6.9-2.7l-10.7-4.4
	l-0.5-0.2c-0.6-0.8-3.1-1.8-5.3-2.7h-0.4c-2-0.8-3.2-1-4.2-1.5h-0.1c-0.6-0.2-1.2-0.6-1.6-1.1c-1-0.9-1.8-2.1-2.2-3.4
	c-0.7-1.8-0.9-3.8-0.6-5.7c0-0.3,0-0.5,0.1-0.8c0,0.1,0,0.1-0.1,0.1l0,0c0.8-7.1,2.9-10.3,2.9-10.3l0.3-0.4
	c3.7-4.6,9.9-7.6,15.4-9.2c7.5-2.2,13.9-2.4,21.5-3.3c0-0.1,1.3-0.1,1.3-0.2c6.8-1.3,13.6-1.6,20.5-1.1c4.4,0.4,8.9,0.8,13.4,1.5
	c1.2,0,2.4,0.1,3.5,0.4h0.1l1.5,0.2l1.3,0.4h0.3l1,0.2l1.4,0.4h0.7l0.7,0.3h0.2c2.6,0.7,5.2,1.3,7.7,2.2c2.6,1.1,5.1,2.4,7.5,3.9
	c1.2,0,2.2-1.1,3.2-2.5l1.4-1.8c5.8-6,11.4-12.2,17.3-18.1C1022.1,84.5,1023.1,82.5,1022.7,79.7z M773,137.3l10.4-17.7l1.1-1.5
	c0.6-1,1.3-2,2.1-2.8l0,0c0.8-1.2,1.8-2.4,2.6-3.5l0.6-0.6l0.5-0.6c2.2-4.4,5.8-7.8,8.6-11.8l0.5-0.6l0.7-0.9c0.3-0.4,0.6-0.7,1-0.9
	c2.1-2.5,3.9-4.7,5.7-6.7s4.2-4.6,6.3-6.9c1.1-1.6,2.3-3.1,3.5-4.5c0.5-0.7,1.1-1.3,1.8-1.8l1.7-1.8l1.3-1.4l0.6-0.8
	c0.4-0.8,0.9-1.5,1.6-2.1l0,0c0-0.1,0-0.1,0.1-0.1s1.9-0.6,2.7-0.5l2.8,0.6h1.1c1.3,0.2,2.6,0.5,3.9,0.9l1.8,0.6l1.6,0.3
	c4.4,1.1,8.6,3,12.4,5.5c5.1,3.3,9.4,7.6,12.7,12.7c2.2,3.1,3.5,6.7,3.8,10.4h0.1c0,0.3,0.1,0.6,0.2,0.9l0.9,7
	c0.2,5.5,0.3,11.1,0.5,16.6l-1.2,11.3l-1.1,2.3l-0.6,0.4c-0.9,0.9-2.1,1.3-3.3,1.2h-1.6c-1.6,0-3.2,0.1-4.8,0h-37.4l-4.9-0.2
	c-6.8,0.3-13.5,0.2-20.3,0.2h-18.2l-2.9-0.3C772.2,139.2,772.6,138.2,773,137.3z M743,153.3L743,153.3L743,153.3L743,153.3z"/>
<linearGradient id="SVGID_3_" gradientUnits="userSpaceOnUse" x1="874.973" y1="24.6" x2="874.973" y2="-12.8444" gradientTransform="matrix(1 0 0 -1 0 288)">
	<stop  offset="0" style="stop-color:#D0A400"/>
	<stop  offset="0.11" style="stop-color:#D9B632"/>
	<stop  offset="0.24" style="stop-color:#E3C968"/>
	<stop  offset="0.37" style="stop-color:#ECDA96"/>
	<stop  offset="0.5" style="stop-color:#F3E7BC"/>
	<stop  offset="0.63" style="stop-color:#F8F2D9"/>
	<stop  offset="0.76" style="stop-color:#FCF9EE"/>
	<stop  offset="0.88" style="stop-color:#FEFDFB"/>
	<stop  offset="1" style="stop-color:#FFFFFF"/>
</linearGradient>
<path class="st2" d="M881.8,264.3c-1.8-0.4-3.6-0.7-5.4-0.8h-20l-1.1,0.2c1.8,0.8,1.8,2.3,1.8,3.6v29.1c0.1,1.7-0.6,3.4-1.9,4.5
	c5.3,0,10.2,0.1,15.2,0l8-0.3c3.6-0.3,6.9-1.8,9.5-4.3c2.9-2.7,4.9-6,6-9.8C896.9,276.3,891.7,266.9,881.8,264.3z M890.5,283.7
	c-0.5,6.9-4.6,15-15,15.7c-2.9,0.2-5.9,0.2-8.8-0.1c-3.7-0.3-5.2-2.1-5.2-5.8c-0.1-9.3-0.1-18.5-0.1-27.8c0-0.5,0.1-1,0.2-1.5
	c5.6-0.2,10.9-0.2,16,1.4C885.8,268.3,891,275.4,890.5,283.7z"/>
<linearGradient id="SVGID_4_" gradientUnits="userSpaceOnUse" x1="806.2" y1="25.1" x2="806.2" y2="-12.7" gradientTransform="matrix(1 0 0 -1 0 288)">
	<stop  offset="0" style="stop-color:#D0A400"/>
	<stop  offset="0.11" style="stop-color:#D9B632"/>
	<stop  offset="0.24" style="stop-color:#E3C968"/>
	<stop  offset="0.37" style="stop-color:#ECDA96"/>
	<stop  offset="0.5" style="stop-color:#F3E7BC"/>
	<stop  offset="0.63" style="stop-color:#F8F2D9"/>
	<stop  offset="0.76" style="stop-color:#FCF9EE"/>
	<stop  offset="0.88" style="stop-color:#FEFDFB"/>
	<stop  offset="1" style="stop-color:#FFFFFF"/>
</linearGradient>
<path class="st3" d="M819.9,296c-4.2-10.4-8.4-20.7-12.5-31.1c-0.3-0.7-0.7-1.3-1-2h-0.6c-0.4,0.9-0.8,1.7-1.1,2.6l-12,30.2
	c-0.7,1.8-1.3,3.7-3.4,5h4.1c-0.2-0.8-0.2-1.5,0-2.3l5.8-14.7h11.1c1.7,4.4,3.5,8.6,5.1,12.9c0.4,1.3,0.8,2.7,1,4.1h6.7
	C821.2,299.6,820.6,297.7,819.9,296z M799.7,282.4l4.7-11.8h0.6c1.5,3.7,3,7.4,4.6,11.6C806.2,282.5,803.2,282.4,799.7,282.4z"/>
<linearGradient id="SVGID_5_" gradientUnits="userSpaceOnUse" x1="977.2501" y1="25.14" x2="977.2501" y2="-12.86" gradientTransform="matrix(1 0 0 -1 0 288)">
	<stop  offset="0" style="stop-color:#D0A400"/>
	<stop  offset="0.11" style="stop-color:#D9B632"/>
	<stop  offset="0.24" style="stop-color:#E3C968"/>
	<stop  offset="0.37" style="stop-color:#ECDA96"/>
	<stop  offset="0.5" style="stop-color:#F3E7BC"/>
	<stop  offset="0.63" style="stop-color:#F8F2D9"/>
	<stop  offset="0.76" style="stop-color:#FCF9EE"/>
	<stop  offset="0.88" style="stop-color:#FEFDFB"/>
	<stop  offset="1" style="stop-color:#FFFFFF"/>
</linearGradient>
<path class="st4" d="M990.7,296.1c-4.2-10.3-8.3-20.5-12.4-30.8c-0.3-0.8-0.7-1.6-1.1-2.3h-0.6c-0.4,0.8-0.8,1.6-1.1,2.4
	c-4.1,10.2-8.1,20.5-12.2,30.7c-0.7,1.6-1.7,3.2-2.6,4.8h3.3c0-0.8,0-1.7,0.2-2.5c1.7-4.6,3.5-9.1,5.4-13.5c0.3-0.6,0.9-1,1.5-1.1
	h9.8c2.1,5,4,9.8,5.9,14.6c0.1,0.9,0.1,1.7,0,2.6c2.4-0.1,4.7,0.2,7-0.3C992,299.5,991.4,297.8,990.7,296.1z M970.5,282.3
	c1.6-4.2,3.2-8,4.7-11.8h0.5l4.6,11.7L970.5,282.3z"/>
<linearGradient id="SVGID_6_" gradientUnits="userSpaceOnUse" x1="927.55" y1="24.5001" x2="927.55" y2="-13.5999" gradientTransform="matrix(1 0 0 -1 0 288)">
	<stop  offset="0" style="stop-color:#D0A400"/>
	<stop  offset="0.11" style="stop-color:#D9B632"/>
	<stop  offset="0.24" style="stop-color:#E3C968"/>
	<stop  offset="0.37" style="stop-color:#ECDA96"/>
	<stop  offset="0.5" style="stop-color:#F3E7BC"/>
	<stop  offset="0.63" style="stop-color:#F8F2D9"/>
	<stop  offset="0.76" style="stop-color:#FCF9EE"/>
	<stop  offset="0.88" style="stop-color:#FEFDFB"/>
	<stop  offset="1" style="stop-color:#FFFFFF"/>
</linearGradient>
<path class="st5" d="M940.4,266.6c-3.3,8.4-6.7,16.7-10,25.1l-1,1.9c-0.2-0.4-0.4-0.5-0.5-0.8c-3.6-8.9-7.3-17.9-10.9-26.9
	c-0.2-0.8-0.3-1.6-0.3-2.4h-6.6c2,1.3,2.5,3.3,3.3,5.2c4.2,10.3,8.3,20.6,12.5,30.8c0.3,0.7,0.7,1.4,1.1,2.1
	c0.5-1.2,0.8-1.9,1.2-2.7c4-10.2,8.1-20.3,12.2-30.4c0.8-1.7,1.6-3.4,2.6-5h-2.8C940.9,264.7,940.7,265.7,940.4,266.6z"/>
<linearGradient id="SVGID_7_" gradientUnits="userSpaceOnUse" x1="774.2" y1="24.5" x2="774.2" y2="-13.8" gradientTransform="matrix(1 0 0 -1 0 288)">
	<stop  offset="0" style="stop-color:#D0A400"/>
	<stop  offset="0.11" style="stop-color:#D9B632"/>
	<stop  offset="0.24" style="stop-color:#E3C968"/>
	<stop  offset="0.37" style="stop-color:#ECDA96"/>
	<stop  offset="0.5" style="stop-color:#F3E7BC"/>
	<stop  offset="0.63" style="stop-color:#F8F2D9"/>
	<stop  offset="0.76" style="stop-color:#FCF9EE"/>
	<stop  offset="0.88" style="stop-color:#FEFDFB"/>
	<stop  offset="1" style="stop-color:#FFFFFF"/>
</linearGradient>
<path class="st6" d="M791.2,263.5h-3.7c0.2,2-9.5,26.8-11.6,29.9l-0.6-1.1L765,266.5c-0.3-0.9-0.5-1.9-0.6-2.9h-7.2
	c2.5,1.2,3.1,3.1,3.8,4.9l12,29.6c0.4,1.1,0.9,2.1,1.6,3.7c0.6-1.4,1-2.1,1.3-2.9l12-29.9C788.4,266.9,789.6,265,791.2,263.5z"/>
<linearGradient id="SVGID_8_" gradientUnits="userSpaceOnUse" x1="838" y1="24.49" x2="838" y2="-12.8544" gradientTransform="matrix(1 0 0 -1 0 288)">
	<stop  offset="0" style="stop-color:#D0A400"/>
	<stop  offset="0.11" style="stop-color:#D9B632"/>
	<stop  offset="0.24" style="stop-color:#E3C968"/>
	<stop  offset="0.37" style="stop-color:#ECDA96"/>
	<stop  offset="0.5" style="stop-color:#F3E7BC"/>
	<stop  offset="0.63" style="stop-color:#F8F2D9"/>
	<stop  offset="0.76" style="stop-color:#FCF9EE"/>
	<stop  offset="0.88" style="stop-color:#FEFDFB"/>
	<stop  offset="1" style="stop-color:#FFFFFF"/>
</linearGradient>
<path class="st7" d="M850,294.1c-0.7,4-2.2,5.3-6.3,5.4H838c-4.2-0.2-5.9-1.7-5.9-5.9c-0.2-8.9-0.1-17.8,0-26.8
	c0.2-1.1,0.5-2.2,1-3.2H826c1.8,0.8,1.6,2.4,1.6,3.8v28.8c0,1.8,0.2,3.5-2,4.7c8.6,0,16.7,0.1,24.8,0v-7.5
	C850.2,293.6,850,293.8,850,294.1z"/>
<linearGradient id="SVGID_9_" gradientUnits="userSpaceOnUse" x1="903.15" y1="24.46" x2="903.15" y2="-12.74" gradientTransform="matrix(1 0 0 -1 0 288)">
	<stop  offset="0" style="stop-color:#D0A400"/>
	<stop  offset="0.11" style="stop-color:#D9B632"/>
	<stop  offset="0.24" style="stop-color:#E3C968"/>
	<stop  offset="0.37" style="stop-color:#ECDA96"/>
	<stop  offset="0.5" style="stop-color:#F3E7BC"/>
	<stop  offset="0.63" style="stop-color:#F8F2D9"/>
	<stop  offset="0.76" style="stop-color:#FCF9EE"/>
	<stop  offset="0.88" style="stop-color:#FEFDFB"/>
	<stop  offset="1" style="stop-color:#FFFFFF"/>
</linearGradient>
<path class="st8" d="M905.2,297.1c0.1-10.1,0-20.1,0-30.2c0.1-1.3,0.1-2.6,1.5-3.4H900c0.4,1.3,0.7,2.6,0.8,4
	c0.1,9.8,0.1,19.6,0.1,29.4c0,1.5-0.1,2.9-1.6,3.8h7.7C905.5,300,905.2,298.6,905.2,297.1z"/>
<linearGradient id="SVGID_10_" gradientUnits="userSpaceOnUse" x1="952.25" y1="24.45" x2="952.25" y2="-12.78" gradientTransform="matrix(1 0 0 -1 0 288)">
	<stop  offset="0" style="stop-color:#D0A400"/>
	<stop  offset="0.11" style="stop-color:#D9B632"/>
	<stop  offset="0.24" style="stop-color:#E3C968"/>
	<stop  offset="0.37" style="stop-color:#ECDA96"/>
	<stop  offset="0.5" style="stop-color:#F3E7BC"/>
	<stop  offset="0.63" style="stop-color:#F8F2D9"/>
	<stop  offset="0.76" style="stop-color:#FCF9EE"/>
	<stop  offset="0.88" style="stop-color:#FEFDFB"/>
	<stop  offset="1" style="stop-color:#FFFFFF"/>
</linearGradient>
<path class="st9" d="M956.5,263.5h-7.2c0.5,1.3,0.8,2.7,0.9,4.1c0.1,9.6,0.1,19.3,0,29c0,1.6,0,3.1-2.2,4.2h8.1
	c-1.7-1-1.5-2.6-1.5-4v-29.6C954.6,265.8,954.4,264.4,956.5,263.5z"/>
<linearGradient id="SVGID_11_" gradientUnits="userSpaceOnUse" x1="278.2478" y1="279.4463" x2="278.2478" y2="26.5492" gradientTransform="matrix(1 0 0 -1 0 288)">
	<stop  offset="0" style="stop-color:#D0A400"/>
	<stop  offset="0.11" style="stop-color:#D9B632"/>
	<stop  offset="0.24" style="stop-color:#E3C968"/>
	<stop  offset="0.37" style="stop-color:#ECDA96"/>
	<stop  offset="0.5" style="stop-color:#F3E7BC"/>
	<stop  offset="0.63" style="stop-color:#F8F2D9"/>
	<stop  offset="0.76" style="stop-color:#FCF9EE"/>
	<stop  offset="0.88" style="stop-color:#FEFDFB"/>
	<stop  offset="1" style="stop-color:#FFFFFF"/>
</linearGradient>
<path class="st10" d="M444.3,254.8v-0.3c0-0.2,0-0.3-0.1-0.5c-1.1-3.7-2-7.4-3.4-11c-0.5-1.3-0.7-3-1.6-4.2l-6.6-18.7
	c-1.1-3.4-2.1-6.8-3.3-10.2c-2.1-5.9-3.8-12-5.4-18.1c-1-3.7-2.1-7.3-3.2-11c-0.4-1.4-1-2.9-1.3-4.4c-0.8-3.5-1.6-7-2.3-10.5
	c-0.3-1.1-0.4-2.2-0.6-3.3s-1-4.6-1.6-7.1l0,0c0-0.3-0.1-0.7-0.1-1h-0.1v-2.3c-0.4-1.1-0.7-2.2-0.9-3.3c-0.2-0.6-0.3-1.3-0.4-1.9
	c-0.4-1.8-0.6-3.6-0.7-5.4c-0.2-0.9-0.3-1.8-0.5-2.7c-1.4-9-3.1-18.1-3.2-27.3l-0.3-1.9c-0.7-4.4-1.1-8.9-1.2-13.4
	c0-1.6,0.1-3.3,0.3-4.9c0.1-1.1,0.2-2.1,0.2-3.1c-0.1-9.7-0.2-19.4-0.2-29.1c0.1-2.5,0.3-5,0.8-7.5c0.4-2.1,0.9-4.3,1.4-6.6
	c-0.3-0.4-0.2-1.2,0.5-1.2c2.7,0,5.4-0.4,8,0l1.6-0.2l18.2,0.2h26.5c4.7,0,9.4-0.1,14,0c2.1,0.1,4.2-0.7,5.8-2l9.1-8
	c1.6-1.4,3.1-2.8,4.5-4.3c1.6-1.8,1.4-3.5-0.4-5.2c-0.4-0.3-0.8-0.6-1.2-0.9c0.7-3.7-0.9-5.9-4.7-6.2h-43.4l-21.6,0.2H230.3
	c-5.2,0-10.4,0.2-15.6,0c-3.5-0.1-7-0.6-9.8-3.4s-3.4-3.1-5.2-4.6c-1.1-1.1-2.9-1.3-4.2-0.3c-0.7,0.6-1.5,1.2-2.1,1.9
	c-0.2,0.2-0.5,0.5-0.7,0.5h-0.4l-0.4,0.3l-1.1,0.7h-0.2l-0.4,0.4c-1.4,1.4-2.6,3-4.1,4.4c-1,1.2-2,2.5-2.9,3.9
	c-2.8,3.5-5.1,7.3-6.9,11.4c-2.4,4.5-4.5,9.2-6.1,14.1c-0.9,3.3-2.6,6.3-3.4,9.7c-0.4,1.5-1.1,3-1.6,4.5s-1.9,5.4-2.7,8.1
	s-1.6,6.8-2.8,10.1c-2.5,6.7-4.6,13.5-6.6,20.3c-0.1,0.5-0.3,0.9-0.5,1.3l-0.3,1l-0.2,0.3v0.3c-0.1,0.4-0.2,0.8-0.4,1.1h0.2
	c-0.5,0.8-0.9,1.7-1.2,2.6l-2.1,7.3c0,0.1,0,0.3-0.1,0.4c-0.3,1.2-0.8,2.3-1.3,3.4c0,1.3-0.8,2.5-1.5,3.8s-4.1,0.1-6.2,0
	c-5.6-0.2-11.2,0.5-16.8-0.5c-1-0.1-2.2-0.2-2.7,1.1s-0.2,0.4-0.5,0s-1.3-0.7-1.9,0.2c-0.2,0.2-0.5,0.4-0.8,0.3
	c-1.1-0.4-1.7,0.6-2.4,1.1c-1.2,0.8-2.3,1.6-3.3,2.5l-3.4,3.2c-0.9,0.3-1.9,0.8-2.7,1.3c-1.8,1.1-3.5,2.3-5.3,3.6
	c-1.5,0.9-2.2,2.8-1.7,4.5c0.3,1.1,1.4,2,2.3,3.3c0.3,4.5,1.3,5.4,6.4,5.4h30.2c0,0.6-0.1,1.3-0.2,1.9c-1.6,4.5-3.3,9-5.1,13.4
	s-3.4,8.5-5,12.7c-3.3,8.5-7,16.9-11.1,25c-2.3,4.7-4.9,9.2-7.4,13.8c-4.1,7.5-9,14.4-14.7,20.8c-5.1,5.4-10.7,10-18.4,11.5
	c-2.3,0.4-4.1-0.4-6-1s-0.8-0.9-1-1.4c-0.8-2-1.2-4.1-1.2-6.2c-0.1-1.1-0.3-2.6-1-3.1s-1.4-2.2-1.5-3.6c-0.1-1.4-1-2.7-2.3-3.2
	c-1-0.4-2.1-0.2-2.8,0.6c-1.3,1.1-2.3,2.7-1.9,4.3s0.5,4.7,1.2,7.1c1.3,4.3,3,8.4,5.2,12.3c2.2,4.3,6.1,6.7,11.2,7s9.1-1.5,13.2-3.7
	c5.8-3.4,11-7.8,15.2-13c3.9-4.5,7.3-9.4,10.4-14.5c2.1-3.6,4.4-7.1,6.3-10.9c3.1-5.8,6-11.8,8.9-17.7c1.2-2.5,2.4-5.1,3.5-7.7
	c1.9-4.5,3.7-9,5.5-13.6s2.7-6.9,4-10.3s2.7-7.2,4.1-10.8l2.7-7.5c0.7-2.1,0.7-2.1,2.7-2.1h42.1c0.3,1.4,0.7,2.7,1,4
	s0.1,1.2,0.2,1.8c0.6,2.1,1.3,4.2,1.9,6.4s1,4.5,1.5,6.7s0.5,3.4,1.3,4.7c0.4,0.8,0.6,1.7,0.6,2.6c0.3,1,0.6,1.9,0.8,2.9
	c0.3,0.8,0.5,1.7,0.6,2.5c1.1,2.4,1.7,5,2,7.7c0,0.4,0.3,0.7,0.5,1.1s0.6,1,0.8,1.6c0.9,3,1.6,6.1,2.6,9.1s2.8,7.7,4.3,11.5
	c2.3,5.9,4.3,11.9,7.5,17.4s6.1,10.5,9.6,15.5c3.2,4.6,6.9,8.8,11,12.5c1.8,1.8,4,3.4,6.3,4.5c1.5,0.6,2.6,0.8,3.8-0.2
	s4.4-1.9,6.6-2.6c4.2-1.1,8.3-2.9,11.9-5.3c8.5-5.8,15.3-13.3,21.3-21.5c1-1.6,1-3.7-0.2-5.3c-1-1-1.5-2.3-1.5-3.7
	c-0.1-0.8-0.5-1.6-1.1-2.2c-1.9-2.7-3.8-5.3-5.8-7.9c-0.8-0.9-1.1-2.2-0.7-3.3c1.3-4,2.5-8,3.7-12c0.4-1.3,0.9-2.6,1.3-3.9
	s1.3-4.5,1.9-6.8c0.1-1,0.3-2,0.6-2.9c1.7-4.6,3.5-9.1,5.3-13.6s4.9-11.4,7.2-17.1c2.1-5.6,4.9-10.9,8.2-15.9c2-2.9,4.2-5.8,6.3-8.7
	s5.1-7.1,7.8-10.6c0.6-1.1,1.8-1.7,3-1.6c0,0.9-0.1,1.9-0.3,2.8c-0.5,2.8-1.3,5.5-1.9,8.2l-1.5,8.4c0,0.1-0.1,0.3-0.2,0.4
	c-0.6,2.2-1.2,4.3-1.7,6.4s-1.4,5.8-2.1,8.8c-0.3,1.8-0.8,3.7-1.5,5.4c-0.8,1.9-0.9,4.1-1.4,6.2c-0.3,1.6-0.7,3.2-1.2,4.7
	c-0.9,3.1-2,6.2-2.9,9.3c-0.3,1.1-0.1,2.4-0.6,3.3c-1.5,2.6-1.2,5.6-1.7,8.3s-1.8,8.1-1.5,12.3c0,0.9-0.1,1.7-0.3,2.6
	c-0.3,1.5-0.4,3.1-0.5,4.6c-0.1,6.5-0.2,13-0.2,19.5c-0.2,2.9,0,5.8,0.4,8.6c0.7,3.4,0.6,6.8,0.8,10.3c0.1,0.3,0,0.7,0.1,1
	c1.1,2,0.9,4.2,1.3,6.3c0.3,1.1,0.8,2.2,1.5,3.1c0.2,0.6,0.8,1.2,0.8,1.8c0.6,3.9,2.8,5.4,6.5,4.3c5.9-1.9,11.6-4.2,17.2-6.9
	c9.9-4.6,19.7-9.4,29.6-14.2c1.6-0.7,3.3-1.8,3-4s-1-7.1-1.7-10.7s-1.3-7-2-10.6c0-0.1-0.1-0.3,0-0.5h0.1c-0.1,0-0.1-0.1-0.1-0.2
	c-0.3-0.8-0.5-1.7-0.6-2.5c-0.3-1.6-0.6-3.3-0.8-4.9s-0.3-3.2-0.5-4.7s-0.8-5.7-0.3-8.5v-1.5c0-0.2-0.1-0.3,0-0.5
	c-0.1-3-0.2-6-0.2-9c0-6.6-0.1-13.2-0.3-19.8v-3.9c-0.1-0.2-0.1-0.3-0.1-0.5c0-0.1,0-0.1,0.1-0.2c0-1.8,0-3.6,0.1-5.3
	s0.2-5.5,0.1-8.2c-0.3-0.4-0.5-1-0.4-1.5c0.3-1.8,0.4-3.7,0.7-5.6c0-0.2,0.1-0.3,0.2-0.5v-1.3c0-4.2,1-8.2,0.8-12.4s0-10.4,0-15.5
	v-8c-0.1-0.5-0.1-0.9-0.1-1.4c-0.1-0.1-0.2-0.3-0.2-0.5l0,0c-0.1-0.3-0.1-0.6,0.1-0.9l0,0c-0.1-0.2-0.1-0.4-0.2-0.6
	c-0.3-0.5-0.5-1-0.6-1.6c-0.1-2.9-1.2-5.5-2.2-8.1s-2.4-5-3.7-7.5c-2.5-4.9-9.8-7.4-14.4-5.8c-4.7,1.6-8.9,4.4-12.3,8.1
	c-1.8,1.8-3.3,3.9-5.1,5.8c-4.6,5.1-8.1,11-11.9,16.7l-0.5,0.6c0,0.2-0.1,0.3-0.2,0.4l-0.7,0.7c-0.2,0.4-0.4,0.8-0.7,1.1l-0.3,0.5
	h0.1c-3.3,5.9-6.5,11.6-9.7,17.5h-0.2c0.1,0.3,0,0.7-0.1,1c-0.1,0.4-0.3,0.7-0.6,0.9c0,0.4-0.1,0.8-0.3,1.1
	c-1.8,3.3-3.5,6.7-5.5,9.8c-3.5,5.6-7.2,11-11,16.4c-1.1,1.9-2.6,3.5-4.4,4.6c-1.5,0.9-3.5,0.9-5,0c-0.9-0.4-1.4-1.3-1.2-2.3
	c0.1-4.9,0-9.9,0.1-14.8c0-1.3,0.1-2.6,0.2-3.9s0.1-2.6,0.1-4c-0.2-1.9-0.1-3.9,0.3-5.8c0-0.3,0.1-0.6,0.1-0.9
	c0.1-2.7,0.5-5.5,0.8-8.3c0-0.2,0-0.3,0.1-0.5v-1.9c0.2-3.3,0.5-6.5,1.1-9.7c0.9-3.7,0.5-7.6,1.3-11.2c0-0.1,0-0.2-0.1-0.3
	c-0.2-1.6,0.4-3.2,0.8-4.8c0.1-2.4,0.5-4.9,1.2-7.2c0.2-1,0.2-2,0.2-3c-0.1-0.4-0.1-0.9,0-1.3c0.2-0.6,0.3-1.2,0.3-1.8
	c0-0.6,0.1-1.1,0.1-1.6c0.1-3.6-0.1-7.3-0.6-10.9c-1-2.8-2.1-5.5-3.2-8.2s-1.8-1.9-3.5-2.1c-4.8-0.5-8.7,1.8-12.5,4.1
	c-2.5,1.5-4.9,3.1-7.1,4.9l-10.4,8.4l-0.4,0.3l-7.3,6.5l-6.1,5.6c-0.9,0.8-1.9,1.6-3,2.2c-0.7-2.5-1.3-4.6-1.8-6.8
	c-0.5-2.1-1.3-4.1-2.4-5.9c-1-2-1.7-4.2-1.9-6.4c-0.2-2.8-0.2-5.6-1.1-8.4c-0.6-2.3-1.1-4.6-1.5-7l-1.6-6.9h10.1
	c1.9,0.1,3.8-0.2,5.6-0.8c1.3-0.4,2.7-0.6,4.1-0.6c5.7-0.1,11.3-0.1,16.9,0c1.3-0.1,2.7,0.2,3.9,0.6c1.8,0.6,3.7,0.9,5.6,0.8
	c5.8,0,11.6-0.2,17.4,0s8.6-0.8,12.9-1s7.4-0.2,11.2-0.2h0.5c6.5,2,13.2,1.1,19.9,1.2c13.6,0.1,27.3,0,41,0H374
	c0.1,1.5,0.2,3.1,0.1,4.6c0,4.3-0.1,8.6-0.3,12.9c-0.1,3.6-0.5,7.2-0.6,10.8s0,9.3,0.1,14c0,2.9,0.1,5.7,0.1,8.5
	c0.1,0.5,0.1,0.9,0,1.4c0,0.1,0,0.2,0.1,0.3c0.1,1.2,0.1,2.4,0,3.6c-0.1,0.1-0.1,0.3-0.1,0.4l0.3,0.6c0.2,9.6,0.3,19.2,0.4,28.7v1.2
	c0.1,0.4,0.1,0.8,0.1,1.2l1.5,28.1l0.6,11.5l1.5,14.2l0.4,8.4c0.5,4.1,0.9,8.3,1.4,12.5s1,7.2,1.6,10.7c0,0.4,0.1,0.7,0.1,1
	s0.1,0.9,0.1,1.3c0.3,2.5,0.6,5,1,7.5c0.1,0.8,0.4,1.6,0.7,2.4c0.3,0.6,0.7,1.2,1.1,1.8l0.4,0.8c0.1,0.2,0.2,0.5,0.2,0.7
	c0.4,2.7,2,5,4.4,6.3c3.1,2,6.1,4.1,9.3,6c9.6,6.3,20.2,10.9,31.4,13.5l5.8,1.2l5.4,0.4c0.6-0.1,1.1-0.3,1.5-0.8
	c1.3-1.5,1.9-3.4,1.7-5.3L444.3,254.8z M264.9,94.5c0.1,3,0,6-0.5,8.9c-0.3,1.3-0.5,2.5-0.6,3.8c-0.5,4.7-0.7,9.3-1.4,13.9
	c-0.3,2.4-1.3,4.7-2,7.1s-1.3,3.9-1.3,6c-0.2,2.4-0.6,4.9-1.3,7.2c-0.9,3.6-1.7,7.2-2.4,10.8c-0.6,3.5-1.8,6.8-3.6,9.9
	c-0.9-1.2-1.6-2.6-2.1-4.1c-1.7-3.1-3.8-6-5.1-9.2c-0.8-2-1.4-4.1-1.7-6.2c-1.1-3.2-1.3-6.7-0.8-10c0-0.2,0.1-0.4,0.2-0.6
	c0-0.1,0.1-0.2,0.1-0.3l0.4-0.6l0.3-0.5c0.9-2.2,1.9-4.3,2.9-6.5c0.2-0.3,0.4-0.6,0.5-0.9c0.1-0.4,0.3-0.8,0.5-1.2
	c0.3-1.1,0.8-2.2,1.3-3.2h0.1c1.6-3.4,3.1-7,4.9-10.3s4.9-9.5,8.8-13.3C263.1,94.1,263.1,94,264.9,94.5z M159.1,117.1
	c0.6-1.9,1.3-3.7,1.9-5.6s0.9-2.8,1.3-4.2c0.3-1.6,0.7-3.2,1.3-4.7c0-0.1,0-0.1,0.1-0.2s0.1-0.3,0.1-0.4c0.6-1.9,1.4-3.7,1.8-5.6
	c0.9-4.1,3-7.6,4.9-11.2s4.9-8.6,7.4-12.9c-0.1-0.1-0.1-0.4,0-0.5c0.6-0.8,1.1-1.7,1.4-2.6c0.4-0.8,0.7-1.8,1.2-2.6
	c0.1,0,0.1,0,0.1-0.1l0,0c0.1-0.3,0.4-0.5,0.6-0.7v-0.2c0-0.1,0.1-0.2,0.1-0.3h0.2l0.7-0.4h0.5c0,0.1,0.1,0.1,0.2,0.1h0.2l0.2,0.2
	c0,0.1,0,0.1,0.1,0.1l0.6,6.2V73c0.1,0.3,0.2,0.6,0.2,0.9c0.1,0.7,0.2,1.5,0.2,2.2v1.4c0.1,0.2,0.1,0.4,0.1,0.6v2.7
	c0.1,0.5,0.1,0.9,0.2,1.3v0.2c0.1,0.4,0.2,0.9,0.2,1.3h0.2l0.6,8.6v1h0.1c0,1,0.1,1.9,0.2,2.9h-0.1v2.8l0.2,0.3
	c0.1,6.8,0.3,13.5,0.5,20.3l0,0c-0.1,0.4-0.1,0.7-0.1,1.1h-28.4C158.5,119.5,158.7,118.2,159.1,117.1z M265.6,91.3L265.6,91.3
	l-0.6,0.3L265.6,91.3z"/>
<linearGradient id="SVGID_12_" gradientUnits="userSpaceOnUse" x1="897.3" y1="166.38" x2="897.3" y2="164.37" gradientTransform="matrix(1 0 0 -1 0 288)">
	<stop  offset="0" style="stop-color:#D0A400"/>
	<stop  offset="0.11" style="stop-color:#D9B632"/>
	<stop  offset="0.24" style="stop-color:#E3C968"/>
	<stop  offset="0.37" style="stop-color:#ECDA96"/>
	<stop  offset="0.5" style="stop-color:#F3E7BC"/>
	<stop  offset="0.63" style="stop-color:#F8F2D9"/>
	<stop  offset="0.76" style="stop-color:#FCF9EE"/>
	<stop  offset="0.88" style="stop-color:#FEFDFB"/>
	<stop  offset="1" style="stop-color:#FFFFFF"/>
</linearGradient>
<path class="st11" d="M897.1,123.6c0.1-0.3,0.4-2,0.4-2C897.3,122.3,897.2,122.9,897.1,123.6z"/>
</svg>
