<svg id="fb7a7a61-e142-42e1-a9b1-9ef70755a534" data-name="Layer 1" xmlns="http://www.w3.org/2000/svg" viewBox="0 0 773.9 388.4"><defs><style>.ba78bce1-ba28-4577-b29c-1954ed21ce36{fill:#eceef0;}.b6ce4cd0-eaf9-42b4-8366-403d315bda34{fill:#706b6e;}.f9be1929-e638-4e2a-9adc-b3d45f09106d{fill:#fff;}.b093d054-72c8-41f3-930c-508fb10b311c{fill:#cbcfcf;}.a446abe2-9ede-4d99-8429-2d8e966c8ae5{fill:#899695;}.a7e67ccb-2695-4222-8338-7ecbe5435881{fill:#efefef;}.f92bca58-52db-4b3a-b465-91bd1f605dcf{fill:#252223;}</style></defs><title>logo-malicia</title><path class="ba78bce1-ba28-4577-b29c-1954ed21ce36" d="M558.9,187.8c-.1.4,0,.9-.2,1.2a9.4,9.4,0,0,1-5.9,3.8,10.2,10.2,0,0,0-4.3,2.1c-.1.1-.2.4-.1.5a29.9,29.9,0,0,0,2,4,23.3,23.3,0,0,0,2.7,3.5,1.9,1.9,0,0,1,.4,1.4c-.7,3-1.5,3.4-4.1,1.9s-2.9-2-4.4-3-2.5-1-2.6,1.2c-.1.5,0,1-.1,1.5s.3,2.9-1.3,3.4-2.3-1-3.2-2a37.9,37.9,0,0,1-3.4-4.5c-1.8-2.8-3-3.1-6-1.7l-4.1,1.9-2.7,1.2c-1.2.5-2.6,1.3-3.7.1s.1-2.4.9-3.5.9-1,1.3-1.6.6-2.9-1.7-3.2h-.9c-1-.1-2.1-.1-2.4-1.4s.6-2,1.6-2.6a19.4,19.4,0,0,1,4.2-1.7,4.7,4.7,0,0,0,2.8-1.6c.9-2.3-1-4.1-1.4-6.2s-1.3-2.5-.1-3.6,2.7-.5,4,0c3.3,1.4,3.3,1.4,3.6-2.2.1-1-.1-2.2,1-2.7s1.7.7,2.4,1.4a15.5,15.5,0,0,0,3.8,5,3.3,3.3,0,0,0,3.5,1c2.4-.7,4.3-2.3,6.4-3.4s1.8-1,2.8-.2.8,2,.4,3.1c-1.2,3.1-1.2,3.1,2.1,2.8h.6c1.3.1,2.9-.4,3.4,1.2s-1,2.1-2,2.7a34.1,34.1,0,0,0-3.7,2.5c-1.4,1.4-4.4,1.6-3.6,4.7,2.6-3.6,7.6-3.1,10.4-6.3A2,2,0,0,1,558.9,187.8Z" transform="translate(-12.5 -11.4)"/><path d="M559.2,187.8l-1,.8c-.6-.7-.7-2-2.1-1s-2.1,1.2-3.1,1.8-1.7,1.1-2.8.3a1.8,1.8,0,0,1,1.1-1l3.8-2.4a2.7,2.7,0,0,0,1-1.1c0-.2-.1-.7-.4-.7a8.3,8.3,0,0,0-3.5,0l-1.8.3-.9-.2a1.5,1.5,0,0,1-1-1.9,21.2,21.2,0,0,1,1.1-2.1c.1-.4.3-.7.4-1.1a1.4,1.4,0,0,0,0-.9,1,1,0,0,0-1.4-.7l-3.3,2.1-3.5,1.8-1.2.2c-.2-2.2,2.5-1.6,3-3.1s.3-.4.4-.4a13.6,13.6,0,0,0,3.8-2.4l2.7-1.9,1.1-.4a.8.8,0,0,1,.9.6,2.8,2.8,0,0,1,.1.9,18.6,18.6,0,0,1-.9,4.7l-.3,1.2c-.5.9-.2,1.5.9,1.6s3.7,1,5.6.3,2.7,0,2.1,2-.1,2-.8,2.8Z" transform="translate(-12.5 -11.4)"/><path class="b6ce4cd0-eaf9-42b4-8366-403d315bda34" d="M543.6,178.9a3.7,3.7,0,0,1-3.1,1.1A4.1,4.1,0,0,1,543.6,178.9Z" transform="translate(-12.5 -11.4)"/><path class="b6ce4cd0-eaf9-42b4-8366-403d315bda34" d="M539.4,180.1a.9.9,0,0,1-1.2-.7A1.5,1.5,0,0,1,539.4,180.1Z" transform="translate(-12.5 -11.4)"/><path class="f9be1929-e638-4e2a-9adc-b3d45f09106d" d="M89.5,207.3a5.8,5.8,0,0,0,1-2.1,122.9,122.9,0,0,1,7.3-16.6c1.1-2.1,2.3-4.3,3.6-6.3a45.8,45.8,0,0,0,3.7-6.9,59.7,59.7,0,0,1,6.5-11.9c1.9-2.8,3.7-5.6,5.5-8.4s4.3-6,6.6-9c4.1-5.1,8.2-10.2,12.4-15.2a187.6,187.6,0,0,1,15.8-17.5c3.9-3.6,7.8-7,11.8-10.3,7.8-6.5,15.8-12.6,23.7-18.9a139.7,139.7,0,0,1,15.8-10.5l27.8-16c8.1-4.6,16.1-9.1,24.4-13.4a208,208,0,0,1,21.9-10.2c6.6-2.6,13.3-5.1,20.1-7.4l16.4-5.4A84.8,84.8,0,0,1,324,18.6c3.1-.6,6.3-1.2,9.5-1.5s6.6-.9,9.9-.9c1.4,0,2.8-.5,4.2-.6a29.8,29.8,0,0,0,4.2-.4,5.7,5.7,0,0,1,1.8-.3l9.4-.2,4.5.3c4.2.6,8.4,1,12.3,2.6a23.8,23.8,0,0,1,9.2,5.7A20.2,20.2,0,0,1,394.8,34a29.6,29.6,0,0,1,.6,5.1c0,2.4.2,4.8.3,7.2a26.1,26.1,0,0,1-.2,4c-.4,1.8-.3,3.8-.7,5.7s-.7,4.7-1.3,7.1-1.3,5.4-2.2,8.1a40.4,40.4,0,0,1-2,4.8l-8.6,16.6-11.6,21.9c-5.6,10.4-11.1,20.8-16.8,31.1a137.6,137.6,0,0,1-11,17.4l-4.3,5.8-3.9,5.5c-3.2,4.9-6.8,9.7-10.4,14.4-1.1,1.4-2.2,2.9-3.2,4.4a52.2,52.2,0,0,0-5.2,8.8,15.3,15.3,0,0,1-2.7,4.4l-.5.7a.9.9,0,0,0,.6,1.2,3.7,3.7,0,0,0,1.8-.1l1.7-.7a14.1,14.1,0,0,1,7.3-1.2,29.8,29.8,0,0,1,4.2.4,5.2,5.2,0,0,1,4.3,5.1,8.6,8.6,0,0,1-.5,2.7l-1.6,4.2-5.8,16.9a139.6,139.6,0,0,1-14.6,29.8l-3.8,5.8a8.6,8.6,0,0,0-.7,1c-.4,1-.3,2.9.5,3a2.5,2.5,0,0,0,2.4-1,24.8,24.8,0,0,0,1.9-2.6c1.9-3,3.9-5.9,5.9-8.8s6-8.3,9.3-12.3A96.8,96.8,0,0,1,336.4,238l3.7-3a9.4,9.4,0,0,1,1.8-1.2,9.9,9.9,0,0,1,8.4-1.1c2.1.7,4.1,1.6,6.2,2.5a8.8,8.8,0,0,1,1.7,1.2,1.7,1.7,0,0,1,.4,1.7,4.8,4.8,0,0,1-.5,1.4l-1.3,2-8.5,11.7a8,8,0,0,0-1.3,2.4,70.1,70.1,0,0,1-4.4,6.7h.1a4.7,4.7,0,0,1-1.2,1.9h0a6.2,6.2,0,0,1-1.2,1.9h0a5.5,5.5,0,0,1-1.3,1.8h.1a69,69,0,0,1-4.3,6.7h0a1.9,1.9,0,0,0-.9,1.1,97.5,97.5,0,0,0-5.5,12.4,2.8,2.8,0,0,0,.3,2.9,1.4,1.4,0,0,0,1.3.5,12.9,12.9,0,0,0,1.6-.9l1.8-2c3.9-4.9,7.6-9.9,11.1-15.1,4.9-7.2,10-14.2,15.4-20.9,1.9-2.3,3.9-4.6,6-6.8,3.8-4.1,7.4-8.3,11.1-12.4l.2-.3c.6-.7,1.1-.7,1.7,0l.3.5,1.2,1.3a2,2,0,0,0,3.2-.1c.3-.5.7-.9,1-1.5a18,18,0,0,1,3.6-3.7A23.6,23.6,0,0,1,398,225a10.6,10.6,0,0,1,12,6.4,12.9,12.9,0,0,1,.8,3.8,12,12,0,0,0,0,1.9,3.2,3.2,0,0,1-1,2.7l-.2.2c-1.2,1.5-1.2,2.2,0,3.8l1.2,1.4a6.2,6.2,0,0,1,.9,1.2,2.6,2.6,0,0,1,.2,2.3c-1,2.2-1.9,4.5-2.8,6.7l-1.5,3.6a8.6,8.6,0,0,1-1,1.6,1.9,1.9,0,0,1-1.2.7h-1.3l-11.4.2a38.8,38.8,0,0,1-4.8-.4.8.8,0,0,1-.7-1.1l4.2-8.4a17.2,17.2,0,0,1,4.2-5.5l2.5-1.7c.2-.1.2-.5.3-.8a1.3,1.3,0,0,0-.7-.9h-.9c-1,0-2,.1-3.1,0a4.5,4.5,0,0,0-3.5,1.3c-3.7,3.3-7.8,6.2-11.6,9.3-1.9,1.5-3.7,3.1-5.5,4.7a19.6,19.6,0,0,1-7.3,4.1,12.6,12.6,0,0,1-2.7.4,2.8,2.8,0,0,0-1.9.9,1,1,0,0,0,.3,1.5l1.7.5h2.1a1.8,1.8,0,0,1,1,.7,1.5,1.5,0,0,1-.3,1.4l-.9.9c-2.9,2.2-4.5,5.3-5.6,8.7-.3,1-.6,2-.8,3s-.9,4.1-1.3,6.2a12,12,0,0,0-.3,2,3.1,3.1,0,0,0,1.1,2.7,5.8,5.8,0,0,0,5.6,1.4,13.5,13.5,0,0,0,6.2-3.1,14.2,14.2,0,0,0,4-6.2l.5-1.5a5.7,5.7,0,0,1,5.2-4c3.2-.1,6.4-.9,9.6-.9l2.1-.2,4.2-.5,3.3-.3a1,1,0,0,1,1.1,1.3,3.7,3.7,0,0,1-.5,1.1l-3,6.6a11.4,11.4,0,0,0-1,6.8,3.5,3.5,0,0,0,.3,1.1,2,2,0,0,0,1.6,1.2,10.8,10.8,0,0,0,3.6-.4,15.9,15.9,0,0,0,8.2-4.3l3.8-3.5a11.3,11.3,0,0,0,2.9-4.5l1.8-4.8a5.5,5.5,0,0,1,1.4-1.9,3,3,0,0,1,2.8-1,21.5,21.5,0,0,1,4.4.9,3.2,3.2,0,0,0,2.7-.1,23.8,23.8,0,0,0,5-2.6,34.8,34.8,0,0,1,3.6-2.2,1.6,1.6,0,0,0,1-2.3c0-.2-.1-.3-.1-.5a2.8,2.8,0,0,1,.3-1.8,8.8,8.8,0,0,1,1.8-2.5,31.2,31.2,0,0,0,5.1-6.7l.5-.7h0c.4-.2.3-.8.6-1.1h0c.5-.6.8-1.3,1.3-1.8,2.4-3.4,4.8-6.8,7.3-10,6.8-8.5,13.1-17.4,19.4-26.3,2.9-4.1,5.8-8.2,8.6-12.4s5-7.8,7.5-11.7a3,3,0,0,0,.4-.8,1.8,1.8,0,0,0-.3-2,2.1,2.1,0,0,0-2.2-.7,4.6,4.6,0,0,0-1.5.9,17.5,17.5,0,0,0-2.3,2.4c-2.9,3.5-5.7,7-8.5,10.6l-9.8,13c-4.1,5.3-7.9,10.7-11.7,16.2-5.7,8.6-11.5,17.1-17.3,25.6l-1.7,2.4a3.5,3.5,0,0,1-2.7,1.3l-6.3.2-.9-.2a1.2,1.2,0,0,1-.8-1.4l.5-1.1c1.9-3.4,4-6.8,6.1-10.1,3.8-5.9,7.6-11.8,11.5-17.7s6.5-9.3,10-13.7,6.7-8.5,10.1-12.8,6.6-7.9,10.2-11.6c5.3-5.5,11-10.6,16.8-15.6l4.9-4.1a27.6,27.6,0,0,1,8.4-4.6l.9-.3a1.9,1.9,0,0,1,2.2,1.5,9.1,9.1,0,0,1-.2,3.3,119,119,0,0,1-2.8,11.8c-.7,2.7-1.6,5.4-2.4,8.1a54.9,54.9,0,0,1-5.4,11.8c-2.3,4-5,7.8-7.6,11.6s-7.1,10.3-10.8,15.4-6.1,8.5-9.3,12.6-4.7,6.3-7.3,9.3-6.7,8-10.4,11.8l-8.4,9a29,29,0,0,1-6,5.1l-7.8,5.7a9.3,9.3,0,0,0-1.8,1.6,1.6,1.6,0,0,0-.5,1.1,31.3,31.3,0,0,1-.4,4.2,27,27,0,0,0-.6,4.1,5,5,0,0,0,.5,2.7,2.9,2.9,0,0,0,2.4,1.5,5.9,5.9,0,0,0,3.5-.8l2-1.4c5-4.4,9.9-8.9,14.5-13.7,1.2-1.3,2.3-2.8,3.4-4.2a38.8,38.8,0,0,1,6.2-6.6,15.6,15.6,0,0,0,3.3-3.5c8.1-11.8,16.6-23.3,24.9-35l8.8-12.6,1-1.5c1.2-1.8,1.6-1.7,3.2-.8l4.3,2.1,1.3.9a.6.6,0,0,1,.1.8,3.5,3.5,0,0,1-.5.8c-4.2,5.2-8.4,10.5-12.2,16s-6.6,9.8-9.8,14.6c-2.1,3.2-4.1,6.5-6.3,9.6a49.2,49.2,0,0,0-7.1,15,35.9,35.9,0,0,0-.8,3.5,3.5,3.5,0,0,0,2.4,3.8,13.6,13.6,0,0,0,3.5.7h.9c2.2.2,3.4.6,1.6,3.1a16.4,16.4,0,0,1-2,2.6,83.9,83.9,0,0,1-8.3,7.5l-2,1.4a4.8,4.8,0,0,1-7.2-4.4,8.8,8.8,0,0,1,.7-3.2,4.4,4.4,0,0,0-.3-3.2,1.4,1.4,0,0,0-2.3-.6,17.1,17.1,0,0,0-2,1.8l-7.5,8.7-6.9,7.6c-4.3,4.8-9.8,7.7-15.9,9.6l-3.5.9-1.5.2a4.7,4.7,0,0,1-4.6-4,20.5,20.5,0,0,1-.2-7.8,15.9,15.9,0,0,1,1.4-5.8,8.1,8.1,0,0,1,2.1-3.3l.8-.9a1.5,1.5,0,0,0,.2-1.7,1.8,1.8,0,0,0-1.7-1,5.8,5.8,0,0,0-2.5.9,22,22,0,0,0-2.5,1.7l-4.3,3.4a32.2,32.2,0,0,1-6.4,3.9,21.9,21.9,0,0,1-7.6,2,6.1,6.1,0,0,1-4.2-1.2,8.9,8.9,0,0,1-4.3-5.6,10.2,10.2,0,0,1,.1-6c.2-.8.6-1.5.8-2.2a8.3,8.3,0,0,0,.4-1.5,1.5,1.5,0,0,0-2.2-1.5,3.5,3.5,0,0,0-1.8,1.6,27.2,27.2,0,0,1-5.4,7.2l-2.9,3a26.7,26.7,0,0,1-10.4,7.2,71.8,71.8,0,0,1-7.3,2.7,2.1,2.1,0,0,1-2.3-.5,14,14,0,0,1-3.2-4.7,2.4,2.4,0,0,1,.1-2.3,9.2,9.2,0,0,0,1.7-5.1c.1-1.7.3-3.4.5-5.1a2.8,2.8,0,0,0-.1-.9,1.4,1.4,0,0,0-2.3-.8,4.9,4.9,0,0,0-1.2,1.3,8.7,8.7,0,0,0-.7,1.7,31.8,31.8,0,0,1-6.2,10.3l-6.3,7.3-.3.6-1.2.8a5.5,5.5,0,0,1-2.4,1.2c-4.7,1.3-9.3,2.6-14,3.5l-1.2.3a3.6,3.6,0,0,1-3-1.1,7.9,7.9,0,0,1-2.1-4.3c-.1-.4,0-.8-.1-1.2a7,7,0,0,0-1.5-3.9,2.8,2.8,0,0,1-.6-2A33.5,33.5,0,0,1,310,298a30.6,30.6,0,0,1,3.3-7.1l1.3-2a2.6,2.6,0,0,0,.2-2.1,2,2,0,0,0-1.5-1.3h-1.2a1.9,1.9,0,0,0-1.6.8l-1,1.5c-3.8,6-7.7,12.1-11.2,18.3-2,3.4-4.2,6.6-6.4,9.9l-10.2,14.6a28,28,0,0,1-6.6,6.7l-2.2,1.5a7.7,7.7,0,0,1-4.7.8,2.1,2.1,0,0,1-1.1-.4,5,5,0,0,1-2.1-1.7,3.5,3.5,0,0,1-.8-2.2,44.2,44.2,0,0,1,1.8-15.8c2.2-7,4.5-13.8,7.2-20.6a112.9,112.9,0,0,1,5.3-11.1c5.2-9.5,10.4-19,15.8-28.3.6-1,1.3-2,1.9-3.1a22.6,22.6,0,0,0,1.6-2.6,3.3,3.3,0,0,0,.4-1.7,1.2,1.2,0,0,0-1.3-1.3,3.5,3.5,0,0,0-2.7,1.3,23.9,23.9,0,0,0-2.8,3.5,145,145,0,0,1-11.5,13.2c-4.7,4.9-9.2,9.9-13.6,15A154.7,154.7,0,0,0,249.4,307c-2.1,3.5-4.1,6.9-6,10.5-3.8,7-7.8,13.9-11.8,20.7s-6.4,11.2-9.5,16.9a172.2,172.2,0,0,1-13.4,21.2,53.3,53.3,0,0,1-14.6,13.4,24.9,24.9,0,0,1-4.7,2.1l-1.5.3a2.5,2.5,0,0,1-2.4-2.3,10.8,10.8,0,0,1,0-1.8c1-4.9,2-9.8,3.4-14.7a81.6,81.6,0,0,1,6.7-15.5c2.5-4.5,5.3-8.8,8.2-13l14.4-20.2c3.2-4.5,6.8-8.8,10.4-13s5.2-5.9,7.7-8.9,3.9-4.9,5.8-7.3l6.3-7.8a13.4,13.4,0,0,0,1.1-1.4,1.5,1.5,0,0,0-.1-1.7l-.6-.7a1.2,1.2,0,0,1-.2-1.6c1.8-3.5,3.6-7,5.5-10.5,5.8-11,11.8-22,17.9-32.9,1.8-3.1,3.6-6.3,5.2-9.5s5-8.8,7.7-13.1c5.2-7.9,10.4-15.8,15.7-23.7s10.7-15.6,16.1-23.3c6.7-9.6,13.3-19,19.9-28.6,2.6-3.7,5-7.6,7.4-11.4s6.6-10.6,9.8-16a255.4,255.4,0,0,0,13.6-25.9c3.6-8,7.1-16.1,10.5-24.1,2.6-6.2,4.8-12.4,6.8-18.8a21.8,21.8,0,0,0,.8-6.3,24.4,24.4,0,0,0-1.5-7.6,20.8,20.8,0,0,0-6.7-8.8,10.5,10.5,0,0,0-3.8-1.9,25.9,25.9,0,0,0-8.3-1.5c-4.5,0-9,.1-13.6.4h-1.5c-4.2.8-8.5,1.5-12.7,2.7l-18.6,5a259.8,259.8,0,0,0-31.1,10.8,171.9,171.9,0,0,0-19.2,9.6c-5.3,3.1-10.7,6-16.1,9l-9.7,5.6c-4.6,2.8-9.3,5.5-14.2,7.9a142.6,142.6,0,0,0-18.4,11.1c-6.3,4.5-12.4,9.4-18.3,14.4L181,104.1c-6.3,5.5-12.5,11.2-18.4,17.1-3.2,3.1-6.3,6.2-9.3,9.5A145.2,145.2,0,0,0,141.9,144c-2.3,3.3-4.6,6.6-6.7,10-4,6.5-8.1,13.1-11.9,19.7a184.6,184.6,0,0,0-13.5,28.4c-1.8,5.1-3.9,10.1-5.7,15.2a137.2,137.2,0,0,0-4.7,17.8c-.5,2.9-.9,5.8-1.3,8.7a44,44,0,0,0-.5,5.1l-.3,5.1a33.8,33.8,0,0,0,.3,8.4,7.7,7.7,0,0,1,.2,1.5,39.5,39.5,0,0,0,4.7,14.3,16,16,0,0,0,8,7,18.7,18.7,0,0,0,4,1.3c3.3.7,6.6,1.1,9.9,1.5l2.7.4a1.8,1.8,0,0,0,1.8-.8,3.2,3.2,0,0,1,2-1.2l16.9-4.9a102.3,102.3,0,0,0,11.5-3.7l7.4-3.3a10.4,10.4,0,0,0,3.2-2.3,17.3,17.3,0,0,1,4.8-3.6c7-4,13.7-8.5,20.3-13.1l13.6-9.5a99,99,0,0,0,8.8-6.9c4.8-4.1,9.3-8.5,13.6-12.9l1.6-1.4c1.3-1.7,3.2-2.9,4.2-4.9h0q.6-.2.6-.6h0a14.2,14.2,0,0,0,2.5-3h0c.5-.4.8-1.4,1.8-1.1s.4.8.1,1.2h0c-.4.3-.3.8-.6,1.2h0l-6.6,11.6-.8,1.2-1.1,1.5c-3.8,5.3-8.1,10.2-12.1,15.4l-1.2,1.4c-1.9,1.8-3.7,3.7-5.6,5.4L198.6,268a26.3,26.3,0,0,1-5.3,4,12.4,12.4,0,0,1-4.7,2l-1.4.4a2.3,2.3,0,0,0-1.4,2.9,3.2,3.2,0,0,1,.3.9,1.9,1.9,0,0,1-.2.8,1,1,0,0,1-.5.4l-9.5,5.8a39,39,0,0,1-3.5,1.9l-13,6.4c-5.5,2.6-11.1,5.1-16.9,7.2a56,56,0,0,1-9.9,2.8,32.1,32.1,0,0,1-6.2,1l-1.5.2a29.2,29.2,0,0,1-7.8.3h-1.8A31.1,31.1,0,0,1,99.9,300a15.4,15.4,0,0,1-3.7-3.5l-4.9-5.7c-.8-.9-1.7-1.8-2.4-2.7s-1.1-1.5-1.6-2.2a2.1,2.1,0,0,1-.3-2,3.6,3.6,0,0,0,.4-.9,2.5,2.5,0,0,0-.2-1.7,22.6,22.6,0,0,0-1.6-2.6,16.1,16.1,0,0,1-2.5-5.5c-.5-2.3-1-4.7-1.3-7.1a78.3,78.3,0,0,1-.7-10.8c0-1.7.1-3.4.2-5.1a14.9,14.9,0,0,0,.2-2.1,47.8,47.8,0,0,1,.3-7.6,31.2,31.2,0,0,1,.5-4.4c.8-4.8,1.6-9.6,2.8-14.2a4.9,4.9,0,0,0,.1-1.2h0A90.9,90.9,0,0,1,89.5,207.3Z" transform="translate(-12.5 -11.4)"/><path class="b093d054-72c8-41f3-930c-508fb10b311c" d="M234.6,229.2a1.7,1.7,0,0,1,.3-1.4l1.5-2.6c1.1-1.8,2.2-3.7,3.2-5.7a6,6,0,0,1,.9-1.5c.1-.2.5-.3.7-.4a1.5,1.5,0,0,1-.2.9,101.8,101.8,0,0,1-5.4,9.6C235.3,228.5,235.1,229,234.6,229.2Z" transform="translate(-12.5 -11.4)"/><path class="b093d054-72c8-41f3-930c-508fb10b311c" d="M241.8,216.4a.8.8,0,0,0-.2-.5c-.1-.4-.3-.4-.6-.2s-.6.6-1.1.6V216a7.8,7.8,0,0,1,2.5-2.9h.3c.1.1.4.3.3.4A3.3,3.3,0,0,1,241.8,216.4Z" transform="translate(-12.5 -11.4)"/><path class="b093d054-72c8-41f3-930c-508fb10b311c" d="M236.8,219.9c0,.3.1.7,0,.9a20.6,20.6,0,0,1-3.9,3.9h-.3l.3-.8,3.4-3.8Z" transform="translate(-12.5 -11.4)"/><path class="b093d054-72c8-41f3-930c-508fb10b311c" d="M239.9,216.3a2.8,2.8,0,0,1-.1.9,5.3,5.3,0,0,1-2.1,2.1h-.3A8.1,8.1,0,0,1,239.9,216.3Z" transform="translate(-12.5 -11.4)"/><path class="b093d054-72c8-41f3-930c-508fb10b311c" d="M241.2,217.6c-.1-.6,0-1,.6-1.2A1,1,0,0,1,241.2,217.6Z" transform="translate(-12.5 -11.4)"/><path class="b093d054-72c8-41f3-930c-508fb10b311c" d="M237.4,219.3a.5.5,0,0,1-.6.6A.5.5,0,0,1,237.4,219.3Z" transform="translate(-12.5 -11.4)"/><path class="f9be1929-e638-4e2a-9adc-b3d45f09106d" d="M618.8,270a26.2,26.2,0,0,1-2.8,0,84.2,84.2,0,0,0-8.7-.2,7.6,7.6,0,0,1-1.5-.1,1,1,0,0,1-.5-1c.1-.3.1-.6.3-.8,3-4.6,5.9-9.2,9-13.7,1-1.5,2.1-2.9,3.2-4.4a12,12,0,0,0,2-3.7,1.2,1.2,0,0,0-.3-1.4,1.6,1.6,0,0,0-.9-.7,6.9,6.9,0,0,0-4-1.1H614c-2.6-.2-4.7.8-6.8,2.2l-.5.3c-4.3,3.6-8.8,7.1-13,10.8a62.1,62.1,0,0,0-13.2,16.1,44.6,44.6,0,0,0-4.5,11.1,12.4,12.4,0,0,0-.3,2.7,3.4,3.4,0,0,0,1.6,3.1,4.3,4.3,0,0,0,3.1,1h1.5a14,14,0,0,0,7.9-2.5l1.5-1.1a8,8,0,0,0,2.6-2.9l1.7-2.5a3.4,3.4,0,0,1,2.7-1.2c4.1.2,8.2-.2,12.4.3h2.1c4.1-.2,8.2.2,12.4.3h.3a.8.8,0,0,1,.4,1,5.4,5.4,0,0,1-.5,1.1c-1.2,2.3-2.5,4.6-3.8,6.9a42.3,42.3,0,0,0-3,6.9,26.6,26.6,0,0,0-.9,13.4c.5,2.1,1.3,4,1.9,6.1a2.9,2.9,0,0,0,1.9,1.8l6.9,2.2h.9c2.2-.1,4.4.2,6.6-.6s6-1.6,9-2.5a17.7,17.7,0,0,0,4.9-2.1l.9-.3.4.4a.4.4,0,0,1,.1.3l-.3.5c-2.2,2.1-4.2,4.3-6.6,6.2a26.8,26.8,0,0,1-13.6,6.1,32.5,32.5,0,0,1-5.4.2,33.2,33.2,0,0,1-7.1-1.5l-2.2-.9a12.5,12.5,0,0,1-6-5.8c-1.4-2.9-2.6-5.9-3.8-8.9a10.4,10.4,0,0,1-.7-3.5,55,55,0,0,1,.3-9.1,2.4,2.4,0,0,1,.5-1.4l1-1.1a8.5,8.5,0,0,0,1.2-3.7,11,11,0,0,1,.3-3.6v-.9a1.9,1.9,0,0,0-2.9-1.5,3.1,3.1,0,0,0-.9.7,10.9,10.9,0,0,0-1.3,1.7,50.4,50.4,0,0,1-14.1,13.5l-7.3,4.3a29.5,29.5,0,0,1-6.3,2.8,7,7,0,0,1-5.5-.8,6.6,6.6,0,0,1-3.6-5.6,26.9,26.9,0,0,1,.6-6.9c.1-.2.1-.4.2-.6a1.5,1.5,0,0,0-1.3-1.7h-1.5a3.3,3.3,0,0,0-3.2,1.9,8.7,8.7,0,0,0-.7,1.7,6.6,6.6,0,0,1-3.8,3.7,11.2,11.2,0,0,1-2.6.8,19.4,19.4,0,0,1-5.4.4,10,10,0,0,1-8.7-6,5.5,5.5,0,0,1,0-5,17.6,17.6,0,0,1,1.4-2.3c.6-1.1,1.3-2.1,1.9-3.1a3.7,3.7,0,0,0,.5-1.1,1.5,1.5,0,0,0-2.1-1.9,2.7,2.7,0,0,0-1,.6,8,8,0,0,0-1.3,1.3,45.1,45.1,0,0,1-14.4,10.8L520,298l-12.6,5.8a10.9,10.9,0,0,1-3.4,1.3,14.8,14.8,0,0,1-8.8-1.2,6.9,6.9,0,0,1-3.2-3.1,14.6,14.6,0,0,1-1.6-5.5,23.9,23.9,0,0,1,.9-9.2,98.6,98.6,0,0,1,6.5-16.6A56.2,56.2,0,0,1,510,253.1a43.7,43.7,0,0,1,4.8-3.7c5.3-3.4,10.8-6.6,16.4-9.7a6.2,6.2,0,0,1,3.8-.6c.6.1.9.7.6,1.4l-.5.7a1.2,1.2,0,0,0,.4,1.6l.7.5,2,1.4a1.3,1.3,0,0,1,.1,2.1c-.6.7-1.3,1.3-1.9,1.9l-8.7,7.6-12,11a40.4,40.4,0,0,0-5.8,6.6l-4.2,6.3a7.1,7.1,0,0,0-.7,6.9,13.4,13.4,0,0,0,1.2,2.4,2.6,2.6,0,0,0,3.1,1.4,33.1,33.1,0,0,0,13.7-6.7l10.6-8.6a112,112,0,0,0,9-8,72.7,72.7,0,0,0,5.5-5.6c3.1-3.6,6.1-7.3,9.1-10.9l9.6-12,1-1.2c1.3-1.5,1.5-1.6,3.2-.4a13.6,13.6,0,0,1,3.4,2.5,2.2,2.2,0,0,1,.5,1.7l-.6,2c-.4.8-.9,1.6-1.4,2.4-2.8,4.5-5.5,9.2-8,13.8l-8.2,14.9a20,20,0,0,0-2,5.3,13,13,0,0,0,.8,6.5,2,2,0,0,0,1.3,1.2H558a13.1,13.1,0,0,0,3.4-2.4l2.3-2.4,2.1-1.7a4.2,4.2,0,0,1,1.9-.9,10.5,10.5,0,0,0,2.4-.6c1.9-.6,2.8-2.1,3.2-4a2.3,2.3,0,0,0-.2-1.8,4.1,4.1,0,0,1,.5-4l1-1.5c4.6-6,9.2-12,13.9-17.9,2.4-3,4.9-5.9,7.4-8.8.7-.8,1.6-1.5,2.4-2.3a1.5,1.5,0,0,1,2.1,0,7,7,0,0,1,1,.8c1.4,1.1,2.3,1.2,3.8.2l4.4-3.2c1.8-1.3,3.6-2.6,5.5-3.8a26.4,26.4,0,0,1,7.1-3.1c3.5-1.1,6.4-.1,8.9,2.4a8.4,8.4,0,0,1,2.1,8.9,25.8,25.8,0,0,1-.8,2.6,9.3,9.3,0,0,1-3.1,4.7l-.6.7a.6.6,0,0,0,.1.8,15.2,15.2,0,0,0,4.8,3.1A8.8,8.8,0,0,1,637,256a7.2,7.2,0,0,1,1.2,2.1,5.3,5.3,0,0,1,.1,3.5,5.6,5.6,0,0,1-.4,1.2,27.4,27.4,0,0,1-3.6,5.9,4.2,4.2,0,0,1-3.5,1.6h-2.4C625.2,270,622,269.9,618.8,270Z" transform="translate(-12.5 -11.4)"/><path class="a446abe2-9ede-4d99-8429-2d8e966c8ae5" d="M448.1,252.1a2.2,2.2,0,0,1-1.3,1.8A1.7,1.7,0,0,1,448.1,252.1Z" transform="translate(-12.5 -11.4)"/><path class="a446abe2-9ede-4d99-8429-2d8e966c8ae5" d="M446.8,253.9c.1.6,0,1-.6,1.1S446.2,254,446.8,253.9Z" transform="translate(-12.5 -11.4)"/><path class="a446abe2-9ede-4d99-8429-2d8e966c8ae5" d="M446.2,255c.1.5-.1.7-.5.7S445.8,255.1,446.2,255Z" transform="translate(-12.5 -11.4)"/><path class="a7e67ccb-2695-4222-8338-7ecbe5435881" d="M597.4,183.8a24.3,24.3,0,0,1,2.7,0,1.8,1.8,0,0,1,1.7,1.8,29.7,29.7,0,0,1-.3,4.2,3.7,3.7,0,0,1-.7,1.6,8.1,8.1,0,0,1-6,4.1c-3.3.5-6-1.3-6.4-4.8a29.1,29.1,0,0,1-.1-3,10.3,10.3,0,0,1,.4-1.4,1.8,1.8,0,0,1,1.1-1l4.3-1.4h1.2a14.7,14.7,0,0,1,2.1,0Z" transform="translate(-12.5 -11.4)"/><path class="f92bca58-52db-4b3a-b465-91bd1f605dcf" d="M533.3,174.6h-.2c0-.2.1-.2.2.1Z" transform="translate(-12.5 -11.4)"/><path d="M322.4,247.8c2.7-2.5,5.5-4.8,8.1-7.4s5.4-5,8.2-7.4c4.5-3.9,9.4-5.3,15.2-3a33,33,0,0,1,7.3,3.6c2.7,2.2,3,3.2,1.1,6.1s-5.7,8.1-8.4,12.2-3.9,5-5.5,8.3a7.6,7.6,0,0,0,3.6-2.8c3.4-4,6.6-8.2,10-12.2s8.4-10.4,13.8-14.6c1.7-1.4,3.3-2.6,5.7-1.8s2.6-.2,3.9-.8,5.1-2.9,7.8-4.1,8.2-2.7,12.5-1.1,8.6,6.5,9.2,12.5c.1,1.5,0,2.9,0,4.4a7.2,7.2,0,0,0,.9,4.3,5.7,5.7,0,0,1,.2,5.4c-1.2,3-2.4,6.1-3.5,9.1s-.6,3,2.3,3.2,6.6-1.2,8.4-4.7c9.1-17,20.2-32.7,31.9-48a211.5,211.5,0,0,1,15.8-18.3c7.8-7.9,15.5-15.7,24.4-22.3a19.1,19.1,0,0,1,7.8-3.9,9.4,9.4,0,0,1,4.4.1c2.6.8,3.7,2.3,3.5,5.1-.7,8.5-3.3,16.5-6.4,24.3-4.7,11.6-12.1,21.6-19,31.9s-15.3,21.3-23.4,31.7l-.6.7c-.3.5-.7,1.1-.1,1.7a1.5,1.5,0,0,0,1.8,0,7.6,7.6,0,0,0,2.1-2.3c4.2-5.9,8.3-11.9,12.6-17.8,5.7-7.9,11.2-16,17.2-23.7a7.5,7.5,0,0,1,1.4-1.7c1.4-1.5,2.5-1.5,3.4.3s3.9,3.9,6.8,4.6,4.4,2,2.1,5.4-7.3,9.8-10.8,14.7-9.3,12-13.1,18.5l-.3.6c-2.1,3.5-1.8,3.9,2.1,4.4a53.2,53.2,0,0,0,5.6.6,7.8,7.8,0,0,0,5.7-2.4c1.7-1.7,3.4-3.4,5-5.2,5.4-5.9,10.8-11.7,17.9-15.7a44.7,44.7,0,0,1,9.3-3.9c5.1-1.4,12.1,3.3,12.8,8.5.4,2.3-.7,4.1-2.1,5.8a56.4,56.4,0,0,1-9.9,9.6c-.4.4-1.1.7-1.2,1.4s1.1.6,1.8.7H537c4.6.4,8.1-1.5,10.9-5.1,4.3-5.3,8.5-10.7,12.5-16.2q1.5-2.1,3.3-4.2a11.5,11.5,0,0,1,3-2.8c2.4-1.5,3.8-1.6,6,.2a43,43,0,0,0,5.2,3.5c2.2,1.2,2.6,2.4,1.3,4.7-2.4,4.3-5,8.5-7.6,12.7s-3.5,5.7-5.2,8.7-.4,2.7,1.6,2.8a6.2,6.2,0,0,0,5.5-2.6l9-11.4a155,155,0,0,1,11.1-13.2,21.8,21.8,0,0,1,4.2-3.3,5.4,5.4,0,0,1,4.6-.7c2.1.7,3.8,0,5.5-1.2a44.2,44.2,0,0,1,13.3-6.4c5.8-1.8,10.1-.1,13.5,4.5s4.1,6.8,2.4,11.1c-.6,1.3-.9,2.8-1.4,4.2s-.2,2.7,1.1,3.9a36.6,36.6,0,0,1,4.4,4.4,5.8,5.8,0,0,1,1.4,6.4,29.4,29.4,0,0,1-2.6,5.7c-1.5,2.5-1.1,3.3,1.9,3.6a46.4,46.4,0,0,0,5.3.1c7.1-.1,14.3.1,21.4-.4,4.9-.4,9.9.3,14.8.5,12.1.3,24.1.7,36.2.5,1.1,0,2.7.5,3.3-.5s-1-2.1-1.7-3.1-1.7-2.1-2.5-3.2-1.2-1.6-.5-2.6,1.5-.5,2.3-.3a38.2,38.2,0,0,1,4.8,1.5c7.2,3.4,14.8,4.6,22.6,5.6s17.9,2.2,26.9,3.1c2.8.3,5.6.1,8.4.2,1.3,0,2.7-.3,3.2,1.3s-.9,1.8-3.1,1.8H751.1a31.3,31.3,0,0,0-15.8,4.4,110.2,110.2,0,0,0-11.1,7.8c-.9.6-2,2.1-3,1s.6-2.1,1.4-2.9c2.3-2.5,4.7-4.8,7-7.3a3.1,3.1,0,0,0,1.5-2.2c-3.3.5-5.8,2.2-8.3,4.2l-2.4,1.9c-.5.4-1.3.6-1.7,0s0-1.1.4-1.4l3.6-3.1c.6-.5,1.5-.9,1.5-2.1-9.6.7-19.1-.3-28.6.7a68.9,68.9,0,0,1-7.9.2c-11.9.1-23.9.9-35.8,1.7a146.3,146.3,0,0,1-14.8.4,7.5,7.5,0,0,0-6.9,3.7c-4.2,6.9-8.2,14-8.9,22.3a14.7,14.7,0,0,0,2,8.8c1.7,2.8,4.9,3.3,7.9,3a54.6,54.6,0,0,0,24.2-9.1c1.8-1.3,3.5-2.7,5.3-3.9s1.7-1.1,2.6-.3a2.1,2.1,0,0,1,.2,2.7,14.5,14.5,0,0,1-1.7,2.6,78.9,78.9,0,0,1-8.4,9.8,50.6,50.6,0,0,0-7.6,8.4,5.6,5.6,0,0,1-3.1,2.5c-8,2.3-15.8,5.2-24,6.5-5.5.8-10.7.3-15.5-2.8a17.2,17.2,0,0,1-7.8-18.2,58.3,58.3,0,0,1,2.1-9.2c.3-.9.8-1.7.5-2.7s-1.8.5-2.5,1c-3.6,2.4-7,5.1-10.6,7.4-5.5,3.4-11.3,5.5-17.9,5.3-4.8-.2-7.9-2.4-9.4-6.9-.9-2.6-.9-2.7-3.7-1.9l-6.1,1.8a15.8,15.8,0,0,1-7.5.4c-4.9-.7-8.2-4.7-8.2-10,0-1,.1-2,.2-3s-1.8.4-2.4.8c-4.3,2.7-8.3,5.8-12.8,8.1-6.8,3.4-13.5,6.9-21,8.2l-3.5.4c-8.2.5-13.8-4.1-15-12.3l-.3-2.5c-.1-.7.3-1.9-.8-2.1s-1.4.7-2,1.2a77.6,77.6,0,0,1-19.7,12.8c-3.2,1.5-4.3,1.1-6.3-1.8s-1.8-2.8-4-.3A106.6,106.6,0,0,1,433,321.1c-2.8,2.3-6.3,3.3-9.8,4.2s-9.8,2.3-14.9,2.1-7.2-2.8-7.4-7.3c-.1-1.9.1-3.8,0-5.7s-.4-2.8-2.8-1.9l-6.4,2.5c-6.2,3-12.3-1.8-13.3-7.4-.6-3.7-.6-3.7-3.7-1.4l-10.6,7.9c-5.2,3.8-11.1,5.4-17.3,6.2a7,7,0,0,1-2.5-.1A5.2,5.2,0,0,1,340,314c.2-1,.8-1.8.6-2.8s-.9.3-1.2.6a68.4,68.4,0,0,1-25.9,15.7,16.6,16.6,0,0,1-4.9,1.1c-5.7.2-9.3-3.2-9.1-8.9a46.2,46.2,0,0,1,1.8-10.5c.1-.4.5-.8-.2-1.4-2.4,4.1-5.1,8-7.8,11.8l-10.7,15.6c-4.4,6.2-10.7,10-17.5,13-5.2,2.2-11.3-2-12.1-8.1a30.3,30.3,0,0,1,0-8.5,60.9,60.9,0,0,1,7.3-19.7c6-10.4,11.9-20.8,17.8-31.2a5.3,5.3,0,0,0,.6-1.3c-1.1-.1-1.5.7-2.1,1.2-5.9,5.5-10.8,12-15.5,18.5-9.1,12.4-16.8,25.7-24.1,39.1s-15.4,27.3-24.9,39.8a80.3,80.3,0,0,1-14.6,15.1,34.9,34.9,0,0,1-13.3,6.4,6.6,6.6,0,0,1-6.8-1.9c-3.5-3.6-5.2-7.8-4.5-12.9a48.4,48.4,0,0,1,4.9-14.9c4.2-8.1,8.4-16.2,13.7-23.7a181.6,181.6,0,0,1,14.1-17.4c7.6-8.2,15.3-16.4,22.7-24.8,4-4.6,8.2-9,11.9-13.9a90.5,90.5,0,0,0,5.7-9.4,3.6,3.6,0,0,0,.7-2.7c-2.8.2-5.6.2-8.4.5-5.1.4-10.2,1.3-15.4,1.5s-11.8,1.4-17.8,1.6c-3.7.2-7.3,1-11,1.3s-9.4,3.4-13.5,6.3c-7,5-13.6,10.6-21.1,14.9-9.7,5.7-19.2,11.6-29.7,15.8a69.9,69.9,0,0,1-18,4.5c-4.3.4-8.6.9-12.8-.1-10.5-2.6-18.8-8.3-24.4-17.6-2-3.6-2.4-7.6-3.1-11.5s-.9-5.8-1.3-8.7a2.8,2.8,0,0,0-2.6-2.7,38.3,38.3,0,0,0-5.9-1c-5.8-.3-11.7-.8-17.6-.4a125.1,125.1,0,0,1-22.9-.2,25.1,25.1,0,0,1-7.2-2.2c-.8-.4-1.6-.9-1.3-1.9s1-1,1.7-1.1a37.1,37.1,0,0,1,10-.5,100.4,100.4,0,0,0,22.6-.3,111.8,111.8,0,0,1,16.3-1.2c7.7,0,7-1.8,7.7-6.6,1.6-11.2,3.2-22.4,6.2-33.4a248.1,248.1,0,0,1,11.5-33c3.8-8.9,8-17.5,12-26.3,2.1-4.5,5.1-8.4,8-12.5.6-.9,1.3-1.7,1.8-2.6,4.3-7.7,10.2-14.3,15.5-21.3s11.3-13.8,16.9-20.8a72.3,72.3,0,0,1,6.3-6.1l11.7-11.1a110.8,110.8,0,0,1,10.1-8c14.5-10.6,28.8-21.5,44.3-30.6,4.7-2.7,9.5-5.4,14.4-7.9,10.3-5.1,20.3-10.9,30.6-16.2a279.7,279.7,0,0,1,45.9-18.3A140.2,140.2,0,0,1,328.5,15c6.2-.8,12.5-1.4,18.7-2.4a85.2,85.2,0,0,1,18.2-1.1A42,42,0,0,1,389.3,19a22.5,22.5,0,0,1,9,13.6c2.7,11.2,1.9,22.3-1.2,33.3-2.2,7.9-5.9,15.1-9.7,22.2-8,14.7-16,29.3-23.2,44.4-4.4,9-10.2,17.2-15.7,25.5-8,12.1-16.4,24.1-24.8,36a35.5,35.5,0,0,0-3.8,6.2c-.7,1.6-.4,2,1.3,2.3s4.8.6,7.2,1.1c4.6.9,7,4.5,5.9,9A145.9,145.9,0,0,1,324.2,242c-.9,1.8-1.6,3.7-2.3,5.5ZM207.5,267.7l.3.6,3.6-.6c4.9-.9,9.6-2.3,14.6-2.9,8.4-.9,16.8-2.2,25.3-2.9a9.4,9.4,0,0,0,7.9-5.3c4.1-7.6,8.3-15.1,12.5-22.6s9.2-16.5,14.2-24.5c7.1-11.2,15.2-21.7,22.6-32.7,10.5-15.7,21.4-31.1,31.5-47.1,6.5-10.3,13-20.6,18.6-31.4S369.7,74,375.1,61.8a99.3,99.3,0,0,0,6.4-20.7c1-4.9-1.2-8-6-8.9a32.1,32.1,0,0,0-6.9-.5c-5.2-.1-10.3.4-15.4.5a93.6,93.6,0,0,0-18.4,2.4,221.9,221.9,0,0,0-32.5,10.1c-13.9,5.7-27.7,11.4-41.1,18.3-6.4,3.3-13,6.5-19.2,10.2-10.7,6.5-21.1,13.3-31.7,20s-18.3,13-27.1,20A120.7,120.7,0,0,0,162.6,133c-4.9,6-10.1,11.8-15.1,17.8-3.3,4-6.8,8-9.3,12.6-1.4,2.6-2.8,5.2-5.2,7.1a9.2,9.2,0,0,0-1.9,2.8c-3.3,6.1-6.5,12.3-9.6,18.5a67.8,67.8,0,0,0-5.3,13.1c-1.9,6.9-4,13.7-5.9,20.6a104.5,104.5,0,0,0-4.3,35.1,20.5,20.5,0,0,0,2.1,8.5c1.9,3.7,4.1,5,8.2,4.4l10.6-1.2c7.6-.5,15.1-1.1,22.6-1.9,4.4-.4,9-.3,13.2-2.4a187.1,187.1,0,0,0,25.5-15c9.3-6.6,17.6-14.3,25.9-22,2.9-2.8,5.8-5.8,8.8-8.5a136.1,136.1,0,0,0,17.5-18.1c1.5-1.8,2.8-3.9,4.4-5.8a9.8,9.8,0,0,1,8.9-3.6c1.8.2,2.2.7,2,2.5a12.6,12.6,0,0,1-2,5.6,82.6,82.6,0,0,0-6,11.4c-2.7,6.4-5.6,12.7-10,18.2s-6.7,9.6-10,14.5a48.4,48.4,0,0,1-8.4,9.7C215.3,260.4,211.4,264.1,207.5,267.7Zm32.6-50-.9.8-2.1,2.4a140.3,140.3,0,0,1-23.6,22.6c-10.2,7.8-20.9,15.1-31.8,22.2-4.3,2.8-9,5-12.7,8.6a5.2,5.2,0,0,1-1.9,1.1c-3.2,1.5-6.5,3-9.8,4.2-7.4,2.7-15.1,4.7-22.6,6.9-1.9.5-3.9.8-5.5,2.3a2.7,2.7,0,0,1-2.3.6c-4.4-.6-8.8-.8-13.1-2A19,19,0,0,1,101,277.1a44.3,44.3,0,0,1-4.4-21.4A144.7,144.7,0,0,1,98.7,236c3-16.2,9.4-31.2,15.8-46.1,5.2-11.9,12.3-22.7,19-33.8a150.3,150.3,0,0,1,21.2-27.3,505.4,505.4,0,0,1,44-40c8.4-6.7,16.9-13.2,26.5-18C238,64.4,250,56.5,262.6,49.9c6.6-3.5,13-7.5,19.8-10.6a241.5,241.5,0,0,1,34.8-12.7c12.5-3.4,24.7-7.6,37.8-8.5a86.6,86.6,0,0,1,14.4.2c8.6.8,15.3,9.2,16.6,15.6a24.7,24.7,0,0,1-.9,12.4c-5.5,16.8-12.8,32.9-20.3,48.9s-17.7,31.3-27.6,46.2c-8.2,12.4-17,24.5-25.6,36.7-9.6,13.7-18.6,27.8-27.8,41.7-2.1,3.2-3.9,6.5-5.7,9.8l-16.5,30.1c-3.8,7.1-7.5,14.3-11.3,21.5-.6,1-1.1,2-.4,3.2s.2,2.8-.8,4c-3.8,4.7-7.6,9.5-11.5,14.2s-8.7,9.7-12.7,14.8c-8.7,11.3-17.1,22.9-24.9,34.9s-11.3,22.9-13.6,35.7c-.4,2.7.7,4.3,4,3.2l1.7-.8a44.1,44.1,0,0,0,9.8-6.8c5.7-5.4,9.9-11.9,14.1-18.5s8.8-16,13.5-23.9,8.1-13.5,11.7-20.5a209.9,209.9,0,0,1,32.9-46c4-4.3,8.2-8.4,12-12.9s4.8-6.3,7.5-9.3,3.7-2.4,4.7-1.6.8,2.8-.4,4.7c-4.9,7.8-9.1,16-13.8,24a170.8,170.8,0,0,0-17.7,42.3,37.1,37.1,0,0,0-1.4,12.8c.2,3.6,2.5,5.2,6.1,4.4a9.6,9.6,0,0,0,3.1-1.4,23.4,23.4,0,0,0,6.8-6.5c5.5-7.7,10.9-15.4,16-23.4l11.9-19.6a8,8,0,0,1,1.8-2.3,3.4,3.4,0,0,1,4.1,0,2.9,2.9,0,0,1,.6,3.7,7.6,7.6,0,0,1-1.2,1.9,28.1,28.1,0,0,0-4.5,13.2,4.2,4.2,0,0,0,.2,2.5c1.3,2,1.5,4.3,2.1,6.6s2.4,4.5,5.9,3.7,7.1-2,10.7-2.6a12.8,12.8,0,0,0,7.9-4.8l5.5-6.5a28.7,28.7,0,0,0,5.1-9,6.4,6.4,0,0,1,1.5-2.8c.8-.7,1.6-1.3,2.8-.8a2.3,2.3,0,0,1,1.5,2.5c-.4,2.9-.2,6-1.7,8.6s-.3,4.8,1.3,6.8a2.6,2.6,0,0,0,3.3,1.1c2.4-.9,5-1.4,7.4-2.6,7.4-3.5,12.5-9.4,17.1-15.8.8-1.2,1.4-2.4,2.8-2.9s2.5,0,2.7,1.6a4.1,4.1,0,0,1-.5,2.7,14.8,14.8,0,0,0-.6,6.9c.4,3,3.8,6.9,8,6.6a22.2,22.2,0,0,0,11.4-4.1l7.3-5.5a21.6,21.6,0,0,1,3-1.8,2.5,2.5,0,0,1,3.3.7c1.1,1.3.6,2.4-.4,3.3a13.4,13.4,0,0,0-3.2,6.4,26.4,26.4,0,0,0-.2,10.1,3.9,3.9,0,0,0,4.5,3.4,11.3,11.3,0,0,0,1.8-.3,36.2,36.2,0,0,0,18.2-10.1c4.7-4.9,9-10.3,13.6-15.3a11.1,11.1,0,0,1,2.7-2.6q2.7-1.3,3.6,1.5a5.3,5.3,0,0,1,.1,2.8,18.4,18.4,0,0,0-.5,2.5,4.3,4.3,0,0,0,2,4.3c1.5,1.1,3,.7,4.4-.2l1.6-1a84.7,84.7,0,0,0,8.8-8.2,6.3,6.3,0,0,0,1-1.2c.9-1.4.6-2-1-2.4a20.5,20.5,0,0,1-3.4-.7c-3-.9-4.2-2.8-3.5-6a38.2,38.2,0,0,1,5.7-14.2c8.9-13.9,17.6-27.9,28.1-40.7,3.6-4.4,2.3-4.1-1.5-6s-2.8-1.1-4.4,1.1l-6.8,9.9c-5.9,8.3-11.7,16.6-17.8,24.8s-9.6,14.9-16.4,20.7a7.3,7.3,0,0,0-1.7,1.8c-4.8,6.9-11.3,12.1-17.4,17.8a15.2,15.2,0,0,1-3.5,2.6c-1.7.9-3.6,1.5-5.4.3s-2-3.1-1.7-5.1a35.5,35.5,0,0,0,.6-5.6,4.8,4.8,0,0,1,2.1-4.4c1.8-1.4,3.6-2.8,5.5-4.1,3.8-2.7,7.6-5.4,10.6-8.9,1.1-1.3,2.1-2.6,3.3-3.8,8.3-8.1,15.5-17.1,22.5-26.3,8.3-10.9,15.9-22.2,23.6-33.5a58.6,58.6,0,0,0,6.9-13.1,184.8,184.8,0,0,0,5.9-20.9,23.1,23.1,0,0,0,.3-3.7c-.1-1.9-.8-2.3-2.5-1.7a29.2,29.2,0,0,0-6.1,3.1c-2.9,2-5.5,4.4-8.1,6.6a172.9,172.9,0,0,0-19.9,19.3c-7,8.2-13.7,16.7-20.2,25.4-8,10.7-14.9,22.1-21.8,33.5a5.1,5.1,0,0,0-.9,1.6c-.5,1.1,0,1.7,1,1.8s2.7,0,4.1,0a5.3,5.3,0,0,0,5-2.6c1.7-2.7,3.4-5.3,5.2-7.9,10.1-14.7,20-29.6,31.1-43.6,3.7-4.6,7.2-9.3,10.8-13.9a19.5,19.5,0,0,1,3.8-3.8,2.7,2.7,0,0,1,3.5,0,2.5,2.5,0,0,1,.6,3.4c-.3.7-.8,1.3-1.1,1.9-8.7,14.2-18.6,27.5-28.4,40.9-5.3,7.2-11.2,13.9-15.9,21.5a41,41,0,0,1-5.3,7.1c-.8.9-1.7,2-1.6,3.3s-.9,3.7-3,4.6-1.7,1.3-2.6,1.7c-2.8,1.5-5.4,3.2-8.9,2.2s-5.8-.5-7.5,4.1a17.2,17.2,0,0,0-.7,2.1,14.3,14.3,0,0,1-4.2,6.1c-1.4,1.2-2.8,2.3-4,3.5s-6,3.5-9.5,4-4-1-4.3-3.5a9,9,0,0,1,.4-4.6c1-2.7,2.4-5.2,3.5-7.8s.4-2.2-1.3-2l-17.2,1.7c-2.7.3-4.5,1.6-5.2,4.3a20.3,20.3,0,0,1-1.1,2.6,13.7,13.7,0,0,1-10,7.9c-4.8,1.1-8.1-2.2-7-7,.3-1.6.7-3.2,1-4.9.9-4.7,2.5-9.1,6.1-12.5,1.7-1.6,1.5-1.9-.6-2.7s-3.1-.5-2.9-2.2,1.8-1.8,3.2-2a20.1,20.1,0,0,0,9.5-4.6c5.5-4.6,11.1-9,16.5-13.6,2.2-1.8,4.6-2,7.2-1.8a2.3,2.3,0,0,1,2.2,1.4c.4,1.2-.5,1.8-1.3,2.3-3.4,1.9-5.2,5-6.7,8.5l-1.9,3.9c-.9,2-.6,2.4,1.5,2.7,4.5.6,9,0,13.5-.1a3.2,3.2,0,0,0,3.1-2.3c1-2.5,2-5.1,3.1-7.5s1.2-4.4-.8-6.3a3.5,3.5,0,0,1-.2-5.1,5.5,5.5,0,0,0,.9-3.3c.1-7.4-6.1-12.2-13.4-10.2a20.6,20.6,0,0,0-11.9,7.9c-2.1,2.9-2.9,2.9-5.7.5-.9-.9-1.5-.8-2.3.1s-3.5,4.2-5.4,6.1a224.9,224.9,0,0,0-26.6,33.5c-3.2,4.7-6.6,9.3-10.1,13.7a22.7,22.7,0,0,1-3,3.2c-.8.8-1.8,1.4-2.9.8a2.8,2.8,0,0,1-1.2-3,10.7,10.7,0,0,1,.7-2.7c1.1-2.6,2.1-5.1,3.3-7.5,5-9.9,11.6-18.8,17.8-27.9,2.4-3.6,5-7,7.4-10.6,1.5-2.1,1.1-3.3-1.2-4.4a23.2,23.2,0,0,0-6.2-2.3,10.5,10.5,0,0,0-8.4,1.7,97.8,97.8,0,0,0-19.8,19.8c-4.3,5.7-8.5,11.7-12.4,17.8a7.8,7.8,0,0,1-2.9,2.8c-1.6.7-2.7,0-2.8-1.7a5.6,5.6,0,0,1,1.5-3.7c3.5-5.4,6.9-10.8,9.9-16.5,6.6-12.4,10.4-25.9,15.1-39a7.8,7.8,0,0,0,.4-2.2c.2-2.7-.9-4.4-3.6-5.1s-7-1-10.4.6a9.7,9.7,0,0,1-3.3,1,1.9,1.9,0,0,1-2-.7,1.5,1.5,0,0,1,.2-2c2.4-2.9,3.3-6.6,5.4-9.6,6.8-9.5,13.5-19,20.4-28.4,3.5-4.8,7.1-9.6,10.2-14.7,7.5-12.2,13.8-25,20.6-37.6q8.3-15.3,16.2-30.6c2.4-4.6,5.1-9,6.7-14,3.6-11.4,5.4-23,4-35a20.2,20.2,0,0,0-6.2-12.8,25.4,25.4,0,0,0-13.1-6.5,64.8,64.8,0,0,0-20.6-1.4c-3.9.4-7.7,1-11.6,1.3-7,.6-14,1.1-20.9,2.8-11,2.8-21.6,6.8-32.4,10.4C275,35.3,261,42.2,247.3,49.8c-11.8,6.4-23.5,13-35.1,19.9-7.2,4.3-14.7,8.1-21.4,13.2C180.4,90.9,170,99,160,107.4a130.7,130.7,0,0,0-13.7,13.1c-5.3,6-10.4,12.1-15.4,18.3-10.2,12.4-19.9,25.2-26.6,40a24.4,24.4,0,0,1-1.4,2.8,124.3,124.3,0,0,0-11.5,23.8c-2.9,8-5.7,16.1-7.3,24.4a140,140,0,0,0-2,32.3c.4,6.3,1.1,12.6,5,18a4.2,4.2,0,0,1,.9,3.6,4.3,4.3,0,0,0,1.3,4.3c3.1,3.3,6.1,6.7,8.9,10.2a5.3,5.3,0,0,0,1.4,1.2,30.2,30.2,0,0,0,14.7,5.1,66.7,66.7,0,0,0,29.7-4.6,286.9,286.9,0,0,0,30.3-14.1c3.1-1.6,6.1-3.6,9.2-5.4,1-.7,1.9-1.4,1.8-2.7s1.3-3.6,3.5-4a14.9,14.9,0,0,0,6.7-3.5l16-14.2c8.8-7.8,15.7-17.1,22.6-26.5A33,33,0,0,0,240.1,217.7Zm409.6,98.9c-3.7,1.5-7.5,2.4-11.2,3.5a23.8,23.8,0,0,1-16-.9,5.6,5.6,0,0,1-3.4-3.5,27.8,27.8,0,0,1,.7-22.6c1.1-2.3,2.3-4.5,3.4-6.7s1.2-2,1.7-3.1.5-1.7-1.2-1.8h-1.9c-7,0-13.9,0-20.8-.2-3-.1-4.7.9-6.4,3.4-3.4,5-8.4,7.2-14.4,6.7-3.1-.3-4.7-2.3-4.7-5.3a16.2,16.2,0,0,1,.7-4.4,53.7,53.7,0,0,1,5.5-11.6c6.8-10.8,16.8-18.4,26.8-25.9,2.9-2.1,6.5-1.8,9.8-.8s3.2,2.4,1.8,4.9a33.7,33.7,0,0,1-2.1,3.1c-3.7,5-7,10.2-10.3,15.5-1.2,2-.9,2.5,1.5,2.5l19.5.7c3.6.1,5.8-1.2,7.4-4.2a20.1,20.1,0,0,0,1.4-2.5c1.4-3.6.4-6.6-3.2-8.4a29.2,29.2,0,0,1-4.8-2.9c-1.5-1.3-1.7-1.8-.3-3.1s3-4.7,3.8-7.4a7.3,7.3,0,0,0-2.5-8.2,7.6,7.6,0,0,0-8.1-1.8,41.9,41.9,0,0,0-12.4,6.9l-4.3,3.1a3.5,3.5,0,0,1-3.8.1c-2.5-1.4-3-1.3-4.9.6s-3.3,3.6-4.8,5.5c-5.6,7.1-11.1,14.2-16.6,21.4a6.4,6.4,0,0,0-1.5,5.2c.6,3.4-1.1,6.1-4.4,6.8a11,11,0,0,0-6.1,3.7,16.5,16.5,0,0,1-4.3,3.6c-2,1-3.6.4-4.3-1.7a11.9,11.9,0,0,1-.6-6.5c.7-3.2,2.3-6,3.9-8.9,4.7-8.5,9.5-17.1,14.6-25.4a9,9,0,0,0,1.3-3.2c.3-1.8-.7-3-3-4.2s-2.6.1-3.4,1.2l-4.2,5.1c-4.9,6-9.7,12.2-14.8,18s-11.2,11-17.3,16c-4.5,3.5-8.6,7.4-13.7,10.2a28.9,28.9,0,0,1-7.6,2.8,3.7,3.7,0,0,1-4.3-1.7c-1.9-3.2-2.5-6.5-.4-9.8,3.2-5.2,6.6-10.2,11.3-14.3s6.3-5.6,9.4-8.4l10.5-9.5c1.9-1.8,1.9-2-.1-3.6s-2-1.2-1.9-2.6-1-1.7-2.1-1.4a12.3,12.3,0,0,0-2.6,1.2l-13.3,7.8a45.3,45.3,0,0,0-14,13.9c-5.1,7.2-8.1,15.4-10.6,23.8a22.4,22.4,0,0,0-.2,11.2,7.2,7.2,0,0,0,4.8,5.7,13.2,13.2,0,0,0,11-.5c5.1-2.5,10.4-4.9,15.7-7.3a48.7,48.7,0,0,0,15.7-10.9,18.9,18.9,0,0,1,2-2c1-.9,2.2-1.3,3.4-.3s.8,2.1.3,3.1-1.9,3.1-2.8,4.6a5.9,5.9,0,0,0,.3,7.1,9.6,9.6,0,0,0,8.7,4l3.8-.5c2.7-.3,4.8-1.4,5.9-4.1a7.1,7.1,0,0,1,2.2-3,4.2,4.2,0,0,1,4.4-.6c1.5.9,1.3,2.2,1,3.6a24.2,24.2,0,0,0-.3,6,6.4,6.4,0,0,0,7.7,5.9,12.3,12.3,0,0,0,4.2-1.4c9.4-4.9,18.1-10.6,24.2-19.7a5.4,5.4,0,0,1,1.5-1.5c1.8-1.3,3.7-.6,3.9,1.6s.5,6.1-1.5,8.7a6.4,6.4,0,0,0-1.4,3.5c-.4,5.6-.2,11.1,2.7,16.2a25.2,25.2,0,0,1,1.2,2.9,11.9,11.9,0,0,0,5.7,6,25.5,25.5,0,0,0,16.3,2C639.7,326.2,645,321.9,649.7,316.6ZM449.2,277.9c-.1-.7-.7-.9-1.4-.8s-3.5.4-5,1.7-4.9,4.1-7.5,6.1-4.7,5.5-6,9c-.3.6-.6,1.3-.1,1.8s1.4.1,2-.3a84.3,84.3,0,0,0,17.2-16A2.4,2.4,0,0,0,449.2,277.9ZM414,276.3c0-1.4-.6-1.9-1.6-1.8l-6.2,1c-1.2.2-1.8,1.2-2.3,2.3-1.1,3-2.3,5.9-3.5,8.8a5.6,5.6,0,0,0-.4,1.2c-.3,1.7.5,2.6,2.3,2.1a3.1,3.1,0,0,0,1.2-.5c4.2-2.8,7.9-6.1,9.9-11A14.3,14.3,0,0,0,414,276.3Zm199.7-27.6a14.1,14.1,0,0,0-5.2,3.8l-10.4,11.8a9,9,0,0,0-1.7,2.6c-.5,1.1,0,1.8,1.1,2.1s3.3-.3,4.3-1.7c3.4-4.5,7.1-8.9,9.8-13.9C612.3,252.1,613.4,250.9,613.7,248.7ZM476.9,283.8c1.6-.1,4-1.1,6.3-2a2.1,2.1,0,0,0,1.3-1.3c.4-.8,1.5-1.5.8-2.5s-1.5-.1-2.3,0l-3.5.2a29.3,29.3,0,0,0-4.1.3,2.9,2.9,0,0,0-2.4,3.4C473.1,283.4,473.7,283.8,476.9,283.8Zm43.1-3.6-.3-.6a3.7,3.7,0,0,0-4.3-.7,10.7,10.7,0,0,0-3.7,4.9,1.3,1.3,0,0,0,.1,1.2,1.1,1.1,0,0,0,1.2,0l6.6-4.1C519.8,280.8,519.9,280.4,520,280.2ZM379.7,261.8c3.8-.5,5.2-2.3,5.9-6.8A57.7,57.7,0,0,0,379.7,261.8Z" transform="translate(-12.5 -11.4)"/><path d="M551.5,182.9a16.1,16.1,0,0,0,6.9.4c2.1-.2,2.3.1,2.1,2.2-.4,3.6-2.6,5.6-5.6,7-1.3.6-2.6.9-3.8,1.5s-2.5,1.6-1.3,3.9a26.3,26.3,0,0,0,3.5,5.2l2.9,3.7a6.4,6.4,0,0,1,1.3,3.2c.1.7.4,1.5-.3,2.1s-1.5.1-2.3-.3l-6.8-3.8c-2.1-1.1-2.6-.8-2.6,1.6s.1,3.3.1,5-.1,1.8-1.1,2.1a1.9,1.9,0,0,1-1.9-.8c-2.3-2.5-4.5-5-6.6-7.6-4.3-5.1-4.3-5.3-10.5-2.6-2.8,1.3-5.6,2.4-8.4,3.6-.8.4-1.7,1-2.6.2s-.6-1.7-.3-2.7a6.6,6.6,0,0,1,1.7-2.9c.7-.8,1.5-1.5,2.1-2.3s1.4-2.3-1-3l-4.2-1.5c-1.6-.8-1.8-1.7-.4-2.9s3.8-2.6,5.7-3.9,3.1-1.3,3.7-2.7-.6-2.9-1-4.4-.6-4.2-1.5-6.1.3-1.9,1.5-1.5a15.7,15.7,0,0,1,2.3.9l3.4,1.7c1.9.6,2.2.4,2.4-1.5a15.9,15.9,0,0,0,.4-5.3c-.1-.7-.2-1.6.7-1.9s1.3.4,1.8.9a34.1,34.1,0,0,1,3.7,4.8c3.6,5.4,4,5.2,10.2,2.4a35.5,35.5,0,0,0,4.7-3.2c.7-.4,1.5-.9,2.3-.3a2.2,2.2,0,0,1,.6,2.3C553.1,178.6,552.2,180.6,551.5,182.9Zm-1.2,21.7a1.7,1.7,0,0,0-.4-1.8,41,41,0,0,1-3.9-7.5c-.9-2.1-.6-2.9,1.3-4.2s2.6-1.5,3.7-2.4,2.2-1.2,2.7-2.4c-1.1-1-2.2-.2-3.2-.4s-2.6-1.4-2.1-3.3,1-1.7.1-2.8l-5.6,2.5c-3.6,1.6-5.4,1.2-7.9-1.9-.8-1-1.2-2.2-2.2-2.9s-.7,1.1-.8,1.7c-.7,2.9-1.4,3.3-4.1,2.3-1.1-.3-2.1-1.1-3.4-.5.6,1.9,1.2,3.7,1.6,5.5s-.1,4.2-2.5,5.4l-3,1.1c-.6.3-1.5.2-1.5,1.2s.7.5,1.1.6c2.3.7,2.7,1.2,2.5,3.6a4.2,4.2,0,0,1-.8,2.6c-.3.5-1,.9-.1,1.8l6.8-2.9c3.7-1.6,5.6-1.1,7.7,2.2a17.9,17.9,0,0,0,3.1,3.6c.4.4.9,1,1.6.5s.4-.9.3-1.4a3.6,3.6,0,0,1,.3-2.5c.8-1.2,2.2-1.4,3.9-.5S548.7,203.6,550.3,204.6Z" transform="translate(-12.5 -11.4)"/><path d="M588.6,204.4c-4.6,0-7.7-1.7-8.7-4.7s-.1-4.2.2-6.2c.9-6.1,4.8-10.3,9.6-13.8a5.2,5.2,0,0,1,5.4-.5,12.4,12.4,0,0,0,4.3.6c5,.2,7.6,3.6,6.4,8.4a21.9,21.9,0,0,1-10.6,14.2A12.4,12.4,0,0,1,588.6,204.4Zm8.4-19.5a12.3,12.3,0,0,0-5.6,1.2,2.5,2.5,0,0,0-1.9,2.6c0,1,0,2.1.1,3.1a3.3,3.3,0,0,0,2.3,2.8c3.3,1.4,8.2-.9,9.2-4.4S601.1,184.9,597,184.9Z" transform="translate(-12.5 -11.4)"/></svg>